#N canvas 831 243 690 501 12;
#N canvas 26 133 450 300 rms 0;
#X obj 213 83 inlet~;
#X obj 213 107 env~ 512;
#X obj 213 131 dbtorms~;
#X obj 213 155 -~;
#X obj 213 179 *~;
#X obj 213 203 +~;
#X obj 213 227 /~;
#X obj 213 251 outlet~;
#X obj 309 138 r \$0-thresh;
#X obj 309 163 r \$0-ratio;
#X obj 272 208 +~ 0;
#X obj 332 70 inlet;
#X obj 332 94 switch~;
#X connect 0 0 1 0;
#X connect 1 0 2 0;
#X connect 2 0 3 0;
#X connect 2 0 10 0;
#X connect 3 0 4 0;
#X connect 4 0 5 0;
#X connect 5 0 6 0;
#X connect 6 0 7 0;
#X connect 8 0 3 1;
#X connect 8 0 5 1;
#X connect 9 0 4 1;
#X connect 10 0 6 1;
#X connect 11 0 12 0;
#X restore 195 99 pd rms;
#N canvas 26 133 450 300 peak 0;
#X obj 213 83 inlet~;
#X obj 213 155 -~;
#X obj 213 179 *~;
#X obj 213 203 +~;
#X obj 213 227 /~;
#X obj 213 251 outlet~;
#X obj 309 138 r \$0-thresh;
#X obj 309 163 r \$0-ratio;
#X obj 272 208 +~ 0;
#X obj 213 131 abs~;
#X obj 355 80 inlet;
#X obj 355 104 switch~;
#X connect 0 0 9 0;
#X connect 1 0 2 0;
#X connect 2 0 3 0;
#X connect 3 0 4 0;
#X connect 4 0 5 0;
#X connect 6 0 1 1;
#X connect 6 0 3 1;
#X connect 7 0 2 1;
#X connect 8 0 4 1;
#X connect 9 0 1 0;
#X connect 9 0 8 0;
#X connect 10 0 11 0;
#X restore 248 97 pd peak;
#X obj 195 150 clip~ 0 1;
#X obj 195 182 lop~;
#X obj 258 169 r \$0-response;
#N canvas 63 102 450 300 delwrite 0;
#X obj 175 79 inlet~;
#X obj 175 103 delwrite~ \$0-comp 500;
#X obj 174 154 outlet~;
#X connect 0 0 1 0;
#X restore 18 224 pd delwrite;
#N canvas 92 131 450 300 delread 0;
#X obj 126 73 inlet~;
#X obj 244 67 inlet;
#X obj 244 153 outlet~;
#X obj 244 122 delread4~ \$0-comp;
#X connect 1 0 3 0;
#X connect 3 0 2 0;
#X restore 18 275 pd delread;
#X obj 85 251 r \$0-lookahead;
#X obj 195 28 inlet~;
#X obj 177 339 *~;
#X obj 177 435 *~;
#X obj 195 409 line~;
#X msg 195 386 \$1 50;
#X obj 195 365 r \$0-gain;
#X obj 177 459 outlet~;
#X obj 256 11 r \$0-rmspeak;
#X obj 256 35 t f f;
#X obj 256 59 == 0;
#X obj 421 96 inlet;
#N canvas 121 160 582 453 control 0;
#X obj 42 18 inlet;
#X obj 42 142 route threshold ratio response gain rmspeak lookahead;
#X obj 42 325 + 100;
#X obj 42 349 dbtorms;
#X obj 42 373 s \$0-thresh;
#X obj 103 276 swap 1;
#X obj 103 300 /;
#X obj 103 324 s \$0-ratio;
#X obj 164 246 swap 1000;
#X obj 164 270 /;
#X obj 164 294 s \$0-response;
#X obj 226 175 + 100;
#X obj 226 199 dbtorms;
#X obj 226 223 s \$0-gain;
#X obj 287 193 s \$0-rmspeak;
#X obj 348 171 s \$0-lookahead;
#X obj 42 88 t a a;
#X obj 74 117 s \$0-dump;
#X msg 103 32 threshold -2 \, ratio 2 \, response 40 \, gain 0 \, rmspeak 0 \, lookahead 0;
#X obj 103 10 loadbang;
#X connect 0 0 16 0;
#X connect 1 0 2 0;
#X connect 1 1 5 0;
#X connect 1 2 8 0;
#X connect 1 3 11 0;
#X connect 1 4 14 0;
#X connect 1 5 15 0;
#X connect 2 0 3 0;
#X connect 3 0 4 0;
#X connect 5 0 6 0;
#X connect 5 1 6 1;
#X connect 6 0 7 0;
#X connect 8 0 9 0;
#X connect 8 1 9 1;
#X connect 9 0 10 0;
#X connect 11 0 12 0;
#X connect 12 0 13 0;
#X connect 16 0 1 0;
#X connect 16 1 17 0;
#X connect 18 0 16 0;
#X connect 19 0 18 0;
#X restore 421 122 pd control;
#X obj 421 149 r \$0-dump;
#X connect 0 0 2 0;
#X connect 1 0 2 0;
#X connect 2 0 3 0;
#X connect 3 0 9 1;
#X connect 4 0 3 1;
#X connect 5 0 6 0;
#X connect 6 0 9 0;
#X connect 7 0 6 1;
#X connect 8 0 0 0;
#X connect 8 0 1 0;
#X connect 8 0 5 0;
#X connect 9 0 10 0;
#X connect 10 0 14 0;
#X connect 11 0 10 1;
#X connect 12 0 11 0;
#X connect 13 0 12 0;
#X connect 15 0 16 0;
#X connect 16 0 17 0;
#X connect 16 1 1 1;
#X connect 17 0 0 1;
#X connect 18 0 19 0;
