#N canvas 734 343 631 585 12;
#X obj 84 38 inlet;
#X obj 84 62 route 0;
#X msg 84 88 \$1 0;
#X msg 130 89 \$2 \$1;
#X obj 130 113 unpack 0 0;
#X obj 130 163 pack 0 0;
#X obj 130 187 line 0 30;
#X obj 326 132 r resetlines;
#X msg 326 155 0;
#X obj 130 211 expr sin($f1 * 1.570796);
#X obj 130 233 change 0;
#X obj 130 259 outlet;
#X text 224 103 convert from dB to rms;
#X obj 130 138 expr pow(10.\\\,$f1/20.);
#X connect 0 0 1 0;
#X connect 1 0 2 0;
#X connect 1 1 3 0;
#X connect 2 0 6 0;
#X connect 3 0 4 0;
#X connect 4 0 13 0;
#X connect 4 1 5 1;
#X connect 5 0 6 0;
#X connect 6 0 9 0;
#X connect 7 0 8 0;
#X connect 8 0 6 0;
#X connect 9 0 10 0;
#X connect 10 0 11 0;
#X connect 13 0 5 0;
