#N canvas 414 235 638 754 12;
#X obj 49 30 inlet;
#X obj 49 54 route 0 1 2 3 4 5 6 7 8 9;
#X obj 49 84 linecell;
#X obj 49 682 outlet;
#X obj 66 154 linecell;
#X obj 83 227 linecell;
#X obj 100 302 linecell;
#X obj 117 375 linecell;
#X obj 135 445 linecell;
#X obj 152 516 linecell;
#X obj 172 586 linecell;
#X obj 186 110 linecell;
#X obj 203 186 linecell;
#X obj 49 107 list prepend \$1 0;
#X obj 49 131 list trim;
#X obj 66 202 list trim;
#X obj 66 178 list prepend \$1 1;
#X obj 83 274 list trim;
#X obj 83 251 list prepend \$1 2;
#X obj 100 347 list trim;
#X obj 100 324 list prepend \$1 3;
#X obj 117 421 list trim;
#X obj 117 398 list prepend \$1 4;
#X obj 135 490 list trim;
#X obj 135 467 list prepend \$1 5;
#X obj 152 560 list trim;
#X obj 152 537 list prepend \$1 6;
#X obj 172 630 list trim;
#X obj 172 607 list prepend \$1 7;
#X obj 186 155 list trim;
#X obj 203 230 list trim;
#X obj 186 132 list prepend \$1 8;
#X obj 203 207 list prepend \$1 9;
#X connect 0 0 1 0;
#X connect 1 0 2 0;
#X connect 1 1 4 0;
#X connect 1 2 5 0;
#X connect 1 3 6 0;
#X connect 1 4 7 0;
#X connect 1 5 8 0;
#X connect 1 6 9 0;
#X connect 1 7 10 0;
#X connect 1 8 11 0;
#X connect 1 9 12 0;
#X connect 2 0 13 0;
#X connect 4 0 16 0;
#X connect 5 0 18 0;
#X connect 6 0 20 0;
#X connect 7 0 22 0;
#X connect 8 0 24 0;
#X connect 9 0 26 0;
#X connect 10 0 28 0;
#X connect 11 0 31 0;
#X connect 12 0 32 0;
#X connect 13 0 14 0;
#X connect 14 0 3 0;
#X connect 15 0 3 0;
#X connect 16 0 15 0;
#X connect 17 0 3 0;
#X connect 18 0 17 0;
#X connect 19 0 3 0;
#X connect 20 0 19 0;
#X connect 21 0 3 0;
#X connect 22 0 21 0;
#X connect 23 0 3 0;
#X connect 24 0 23 0;
#X connect 25 0 3 0;
#X connect 26 0 25 0;
#X connect 27 0 3 0;
#X connect 28 0 27 0;
#X connect 29 0 3 0;
#X connect 30 0 3 0;
#X connect 31 0 29 0;
#X connect 32 0 30 0;
