#N canvas 919 260 631 585 12;
#X obj 115 17 inlet;
#X obj 49 57 route 0;
#X msg 84 88 \$1 0;
#X msg 130 89 \$2 \$1;
#X obj 130 113 unpack 0 0;
#X obj 130 203 pack 0 0;
#X obj 130 227 line 0 30;
#X obj 326 132 r resetlines;
#X msg 326 155 0;
#X obj 130 251 expr sin($f1 * 1.570796);
#X obj 129 285 change 0;
#X obj 130 318 outlet;
#N canvas 92 126 450 300 dbtoa 0;
#X obj 140 69 inlet;
#X obj 140 171 outlet;
#X obj 140 96 expr ($f1 + 130) / 130;
#X obj 140 144 expr max(0 \, $f1);
#X obj 140 120 expr min(.67 \, $f1);
#X connect 0 0 2 0;
#X connect 2 0 4 0;
#X connect 3 0 1 0;
#X connect 4 0 3 0;
#X restore 130 151 pd dbtoa;
#X text 224 103 convert from dB to A;
#X connect 0 0 3 0;
#X connect 1 0 2 0;
#X connect 1 1 3 0;
#X connect 2 0 6 0;
#X connect 3 0 4 0;
#X connect 4 0 12 0;
#X connect 4 1 5 1;
#X connect 5 0 6 0;
#X connect 6 0 9 0;
#X connect 7 0 8 0;
#X connect 8 0 6 0;
#X connect 9 0 10 0;
#X connect 10 0 11 0;
#X connect 12 0 5 0;
