#N canvas 882 370 685 535 12;
#X obj 49 30 inlet;
#X obj 49 54 route 0 1 2 3 4 5 6 7 8 9;
#X obj 49 84 linecell;
#X obj 49 432 outlet;
#X obj 67 136 linecell;
#X obj 85 186 linecell;
#X obj 103 238 linecell;
#X obj 159 134 linecell;
#X obj 177 186 linecell;
#X obj 195 236 linecell;
#X obj 213 288 linecell;
#X obj 255 133 linecell;
#X obj 273 185 linecell;
#X obj 49 108 prepend \$1 0;
#X obj 67 160 prepend \$1 1;
#X obj 85 210 prepend \$1 2;
#X obj 103 262 prepend \$1 3;
#X obj 159 158 prepend \$1 4;
#X obj 177 210 prepend \$1 5;
#X obj 195 260 prepend \$1 6;
#X obj 213 312 prepend \$1 7;
#X obj 255 157 prepend \$1 8;
#X obj 273 209 prepend \$1 9;
#X connect 0 0 1 0;
#X connect 1 0 2 0;
#X connect 1 1 4 0;
#X connect 1 2 5 0;
#X connect 1 3 6 0;
#X connect 1 4 7 0;
#X connect 1 5 8 0;
#X connect 1 6 9 0;
#X connect 1 7 10 0;
#X connect 1 8 11 0;
#X connect 1 9 12 0;
#X connect 2 0 13 0;
#X connect 4 0 14 0;
#X connect 5 0 15 0;
#X connect 6 0 16 0;
#X connect 7 0 17 0;
#X connect 8 0 18 0;
#X connect 9 0 19 0;
#X connect 10 0 20 0;
#X connect 11 0 21 0;
#X connect 12 0 22 0;
#X connect 13 0 3 0;
#X connect 14 0 3 0;
#X connect 15 0 3 0;
#X connect 16 0 3 0;
#X connect 17 0 3 0;
#X connect 18 0 3 0;
#X connect 19 0 3 0;
#X connect 20 0 3 0;
#X connect 21 0 3 0;
#X connect 22 0 3 0;
