#N canvas 428 254 924 615 12;
#X obj 323 48 inlet~;
#X obj 373 48 inlet~;
#X obj 423 48 inlet~;
#X obj 473 48 inlet~;
#X obj 523 48 inlet~;
#X obj 573 48 inlet~;
#X obj 623 48 inlet~;
#X obj 673 48 inlet~;
#X obj 723 48 inlet~;
#X obj 323 389 outlet~;
#X obj 383 389 outlet~;
#X obj 443 389 outlet~;
#X obj 503 389 outlet~;
#X obj 562 389 outlet~;
#X obj 622 389 outlet~;
#X obj 34 48 inlet;
#X text 28 25 mtx in;
#X obj 34 89 route 0 1 2 3 4 5 6 7 8;
#X obj 34 525 route 0 1 2 3 4 5 6;
#X text 17 525 0;
#X obj 51 475 route 0 1 2 3 4 5 6;
#X text 35 476 1;
#X obj 69 425 route 0 1 2 3 4 5 6;
#X obj 86 375 route 0 1 2 3 4 5 6;
#X text 52 425 2;
#X text 70 376 3;
#X obj 104 319 route 0 1 2 3 4 5 6;
#X obj 121 269 route 0 1 2 3 4 5 6;
#X obj 139 219 route 0 1 2 3 4 5 6;
#X obj 156 169 route 0 1 2 3 4 5 6;
#X text 87 319 4;
#X text 105 270 5;
#X text 122 219 6;
#X text 140 170 7;
#X obj 174 118 route 0 1 2 3 4 5 6;
#X text 158 119 8;
#N canvas 527 566 450 300 A 0;
#X obj 29 21 inlet;
#X obj 76 21 inlet;
#X obj 124 21 inlet;
#X obj 171 21 inlet;
#X obj 219 21 inlet;
#X obj 266 21 inlet;
#X obj 29 81 s A0;
#X obj 76 80 s A1;
#X obj 124 81 s A2;
#X obj 171 80 s A3;
#X obj 219 80 s A4;
#X obj 266 79 s A5;
#X obj 315 21 inlet;
#X obj 315 79 s A6;
#X connect 0 0 6 0;
#X connect 1 0 7 0;
#X connect 2 0 8 0;
#X connect 3 0 9 0;
#X connect 4 0 10 0;
#X connect 5 0 11 0;
#X connect 12 0 13 0;
#X restore 34 556 pd A;
#X f 16;
#N canvas 527 566 450 300 B 0;
#X obj 29 21 inlet;
#X obj 76 21 inlet;
#X obj 124 21 inlet;
#X obj 171 21 inlet;
#X obj 219 21 inlet;
#X obj 266 21 inlet;
#X obj 315 21 inlet;
#X obj 29 81 s B0;
#X obj 76 80 s B1;
#X obj 124 81 s B2;
#X obj 171 80 s B3;
#X obj 219 80 s B4;
#X obj 266 79 s B5;
#X obj 315 79 s B6;
#X connect 0 0 7 0;
#X connect 1 0 8 0;
#X connect 2 0 9 0;
#X connect 3 0 10 0;
#X connect 4 0 11 0;
#X connect 5 0 12 0;
#X connect 6 0 13 0;
#X restore 51 500 pd B;
#X f 16;
#N canvas 527 566 450 300 C 0;
#X obj 29 21 inlet;
#X obj 76 21 inlet;
#X obj 124 21 inlet;
#X obj 171 21 inlet;
#X obj 219 21 inlet;
#X obj 266 21 inlet;
#X obj 315 21 inlet;
#X obj 29 81 s C0;
#X obj 76 80 s C1;
#X obj 124 81 s C2;
#X obj 171 80 s C3;
#X obj 219 80 s C4;
#X obj 266 79 s C5;
#X obj 315 79 s C6;
#X connect 0 0 7 0;
#X connect 1 0 8 0;
#X connect 2 0 9 0;
#X connect 3 0 10 0;
#X connect 4 0 11 0;
#X connect 5 0 12 0;
#X connect 6 0 13 0;
#X restore 69 449 pd C;
#X f 16;
#N canvas 527 566 450 300 D 0;
#X obj 29 21 inlet;
#X obj 76 21 inlet;
#X obj 124 21 inlet;
#X obj 171 21 inlet;
#X obj 219 21 inlet;
#X obj 266 21 inlet;
#X obj 315 21 inlet;
#X obj 29 81 s D0;
#X obj 76 80 s D1;
#X obj 124 81 s D2;
#X obj 171 80 s D3;
#X obj 219 80 s D4;
#X obj 266 79 s D5;
#X obj 315 79 s D6;
#X connect 0 0 7 0;
#X connect 1 0 8 0;
#X connect 2 0 9 0;
#X connect 3 0 10 0;
#X connect 4 0 11 0;
#X connect 5 0 12 0;
#X connect 6 0 13 0;
#X restore 86 400 pd D;
#X f 16;
#N canvas 527 566 450 300 E 0;
#X obj 29 21 inlet;
#X obj 76 21 inlet;
#X obj 124 21 inlet;
#X obj 171 21 inlet;
#X obj 219 21 inlet;
#X obj 266 21 inlet;
#X obj 315 21 inlet;
#X obj 29 81 s E0;
#X obj 76 80 s E1;
#X obj 124 81 s E2;
#X obj 171 80 s E3;
#X obj 219 80 s E4;
#X obj 266 79 s E5;
#X obj 315 79 s E6;
#X connect 0 0 7 0;
#X connect 1 0 8 0;
#X connect 2 0 9 0;
#X connect 3 0 10 0;
#X connect 4 0 11 0;
#X connect 5 0 12 0;
#X connect 6 0 13 0;
#X restore 104 346 pd E;
#X f 16;
#N canvas 527 566 450 300 F 0;
#X obj 29 21 inlet;
#X obj 76 21 inlet;
#X obj 124 21 inlet;
#X obj 171 21 inlet;
#X obj 219 21 inlet;
#X obj 266 21 inlet;
#X obj 315 21 inlet;
#X obj 29 81 s F0;
#X obj 76 80 s F1;
#X obj 124 81 s F2;
#X obj 171 80 s F3;
#X obj 219 80 s F4;
#X obj 266 79 s F5;
#X obj 315 79 s F6;
#X connect 0 0 7 0;
#X connect 1 0 8 0;
#X connect 2 0 9 0;
#X connect 3 0 10 0;
#X connect 4 0 11 0;
#X connect 5 0 12 0;
#X connect 6 0 13 0;
#X restore 121 294 pd F;
#X f 16;
#N canvas 527 566 450 300 G 0;
#X obj 29 21 inlet;
#X obj 76 21 inlet;
#X obj 124 21 inlet;
#X obj 171 21 inlet;
#X obj 219 21 inlet;
#X obj 266 21 inlet;
#X obj 315 21 inlet;
#X obj 29 81 s G0;
#X obj 76 80 s G1;
#X obj 124 81 s G2;
#X obj 171 80 s G3;
#X obj 219 80 s G4;
#X obj 266 79 s G5;
#X obj 315 79 s G6;
#X connect 0 0 7 0;
#X connect 1 0 8 0;
#X connect 2 0 9 0;
#X connect 3 0 10 0;
#X connect 4 0 11 0;
#X connect 5 0 12 0;
#X connect 6 0 13 0;
#X restore 139 244 pd G;
#X f 16;
#N canvas 527 566 450 300 H 0;
#X obj 29 21 inlet;
#X obj 76 21 inlet;
#X obj 124 21 inlet;
#X obj 171 21 inlet;
#X obj 219 21 inlet;
#X obj 266 21 inlet;
#X obj 315 21 inlet;
#X obj 29 81 s H0;
#X obj 76 80 s H1;
#X obj 124 81 s H2;
#X obj 171 80 s H3;
#X obj 219 80 s H4;
#X obj 266 79 s H5;
#X obj 315 79 s H6;
#X connect 0 0 7 0;
#X connect 1 0 8 0;
#X connect 2 0 9 0;
#X connect 3 0 10 0;
#X connect 4 0 11 0;
#X connect 5 0 12 0;
#X connect 6 0 13 0;
#X restore 156 195 pd H;
#X f 16;
#N canvas 527 566 450 300 I 0;
#X obj 29 21 inlet;
#X obj 76 21 inlet;
#X obj 124 21 inlet;
#X obj 171 21 inlet;
#X obj 219 21 inlet;
#X obj 266 21 inlet;
#X obj 315 21 inlet;
#X obj 29 81 s I0;
#X obj 76 80 s I1;
#X obj 124 81 s I2;
#X obj 171 80 s I3;
#X obj 219 80 s I4;
#X obj 266 79 s I5;
#X obj 315 79 s I6;
#X connect 0 0 7 0;
#X connect 1 0 8 0;
#X connect 2 0 9 0;
#X connect 3 0 10 0;
#X connect 4 0 11 0;
#X connect 5 0 12 0;
#X connect 6 0 13 0;
#X restore 174 145 pd I;
#X f 16;
#X obj 682 388 outlet~;
#N canvas 187 263 525 444 A~ 0;
#X obj 41 318 outlet~;
#X obj 101 318 outlet~;
#X obj 161 318 outlet~;
#X obj 221 318 outlet~;
#X obj 281 318 outlet~;
#X obj 341 318 outlet~;
#X obj 401 318 outlet~;
#X obj 41 30 inlet~;
#X obj 41 244 *~;
#X obj 64 166 r A0;
#X obj 64 215 line~;
#X msg 64 191 \$1 50;
#X obj 101 244 *~;
#X obj 124 215 line~;
#X msg 124 191 \$1 50;
#X obj 124 166 r A1;
#X obj 161 244 *~;
#X obj 184 215 line~;
#X msg 184 191 \$1 50;
#X obj 221 244 *~;
#X obj 244 215 line~;
#X msg 244 191 \$1 50;
#X obj 184 166 r A2;
#X obj 244 166 r A3;
#X obj 281 244 *~;
#X obj 304 215 line~;
#X msg 304 191 \$1 50;
#X obj 341 244 *~;
#X obj 364 215 line~;
#X msg 364 191 \$1 50;
#X obj 401 244 *~;
#X obj 424 215 line~;
#X msg 424 191 \$1 50;
#X obj 304 166 r A4;
#X obj 364 166 r A5;
#X obj 424 166 r A6;
#X connect 7 0 8 0;
#X connect 7 0 12 0;
#X connect 7 0 16 0;
#X connect 7 0 19 0;
#X connect 7 0 24 0;
#X connect 7 0 27 0;
#X connect 7 0 30 0;
#X connect 8 0 0 0;
#X connect 9 0 11 0;
#X connect 10 0 8 1;
#X connect 11 0 10 0;
#X connect 12 0 1 0;
#X connect 13 0 12 1;
#X connect 14 0 13 0;
#X connect 15 0 14 0;
#X connect 16 0 2 0;
#X connect 17 0 16 1;
#X connect 18 0 17 0;
#X connect 19 0 3 0;
#X connect 20 0 19 1;
#X connect 21 0 20 0;
#X connect 22 0 18 0;
#X connect 23 0 21 0;
#X connect 24 0 4 0;
#X connect 25 0 24 1;
#X connect 26 0 25 0;
#X connect 27 0 5 0;
#X connect 28 0 27 1;
#X connect 29 0 28 0;
#X connect 30 0 6 0;
#X connect 31 0 30 1;
#X connect 32 0 31 0;
#X connect 33 0 26 0;
#X connect 34 0 29 0;
#X connect 35 0 32 0;
#X restore 323 351 pd A~;
#X f 10;
#N canvas 187 263 525 444 B~ 0;
#X obj 41 318 outlet~;
#X obj 101 318 outlet~;
#X obj 161 318 outlet~;
#X obj 221 318 outlet~;
#X obj 281 318 outlet~;
#X obj 341 318 outlet~;
#X obj 401 318 outlet~;
#X obj 41 30 inlet~;
#X obj 41 244 *~;
#X obj 64 215 line~;
#X msg 64 191 \$1 50;
#X obj 101 244 *~;
#X obj 124 215 line~;
#X msg 124 191 \$1 50;
#X obj 161 244 *~;
#X obj 184 215 line~;
#X msg 184 191 \$1 50;
#X obj 221 244 *~;
#X obj 244 215 line~;
#X msg 244 191 \$1 50;
#X obj 281 244 *~;
#X obj 304 215 line~;
#X msg 304 191 \$1 50;
#X obj 341 244 *~;
#X obj 364 215 line~;
#X msg 364 191 \$1 50;
#X obj 401 244 *~;
#X obj 424 215 line~;
#X msg 424 191 \$1 50;
#X obj 64 166 r B0;
#X obj 124 166 r B1;
#X obj 184 166 r B2;
#X obj 244 166 r B3;
#X obj 304 166 r B4;
#X obj 364 166 r B5;
#X obj 424 166 r B6;
#X connect 7 0 8 0;
#X connect 7 0 11 0;
#X connect 7 0 14 0;
#X connect 7 0 17 0;
#X connect 7 0 20 0;
#X connect 7 0 23 0;
#X connect 7 0 26 0;
#X connect 8 0 0 0;
#X connect 9 0 8 1;
#X connect 10 0 9 0;
#X connect 11 0 1 0;
#X connect 12 0 11 1;
#X connect 13 0 12 0;
#X connect 14 0 2 0;
#X connect 15 0 14 1;
#X connect 16 0 15 0;
#X connect 17 0 3 0;
#X connect 18 0 17 1;
#X connect 19 0 18 0;
#X connect 20 0 4 0;
#X connect 21 0 20 1;
#X connect 22 0 21 0;
#X connect 23 0 5 0;
#X connect 24 0 23 1;
#X connect 25 0 24 0;
#X connect 26 0 6 0;
#X connect 27 0 26 1;
#X connect 28 0 27 0;
#X connect 29 0 10 0;
#X connect 30 0 13 0;
#X connect 31 0 16 0;
#X connect 32 0 19 0;
#X connect 33 0 22 0;
#X connect 34 0 25 0;
#X connect 35 0 28 0;
#X restore 373 321 pd B~;
#X f 10;
#N canvas 187 263 525 444 C~ 0;
#X obj 41 318 outlet~;
#X obj 101 318 outlet~;
#X obj 161 318 outlet~;
#X obj 221 318 outlet~;
#X obj 281 318 outlet~;
#X obj 341 318 outlet~;
#X obj 401 318 outlet~;
#X obj 41 30 inlet~;
#X obj 41 244 *~;
#X obj 64 215 line~;
#X msg 64 191 \$1 50;
#X obj 101 244 *~;
#X obj 124 215 line~;
#X msg 124 191 \$1 50;
#X obj 161 244 *~;
#X obj 184 215 line~;
#X msg 184 191 \$1 50;
#X obj 221 244 *~;
#X obj 244 215 line~;
#X msg 244 191 \$1 50;
#X obj 281 244 *~;
#X obj 304 215 line~;
#X msg 304 191 \$1 50;
#X obj 341 244 *~;
#X obj 364 215 line~;
#X msg 364 191 \$1 50;
#X obj 401 244 *~;
#X obj 424 215 line~;
#X msg 424 191 \$1 50;
#X obj 64 166 r C0;
#X obj 124 166 r C1;
#X obj 184 166 r C2;
#X obj 244 166 r C3;
#X obj 304 166 r C4;
#X obj 364 166 r C5;
#X obj 424 166 r C6;
#X connect 7 0 8 0;
#X connect 7 0 11 0;
#X connect 7 0 14 0;
#X connect 7 0 17 0;
#X connect 7 0 20 0;
#X connect 7 0 23 0;
#X connect 7 0 26 0;
#X connect 8 0 0 0;
#X connect 9 0 8 1;
#X connect 10 0 9 0;
#X connect 11 0 1 0;
#X connect 12 0 11 1;
#X connect 13 0 12 0;
#X connect 14 0 2 0;
#X connect 15 0 14 1;
#X connect 16 0 15 0;
#X connect 17 0 3 0;
#X connect 18 0 17 1;
#X connect 19 0 18 0;
#X connect 20 0 4 0;
#X connect 21 0 20 1;
#X connect 22 0 21 0;
#X connect 23 0 5 0;
#X connect 24 0 23 1;
#X connect 25 0 24 0;
#X connect 26 0 6 0;
#X connect 27 0 26 1;
#X connect 28 0 27 0;
#X connect 29 0 10 0;
#X connect 30 0 13 0;
#X connect 31 0 16 0;
#X connect 32 0 19 0;
#X connect 33 0 22 0;
#X connect 34 0 25 0;
#X connect 35 0 28 0;
#X restore 425 291 pd C~;
#X f 10;
#N canvas 187 263 525 444 D~ 0;
#X obj 41 318 outlet~;
#X obj 101 318 outlet~;
#X obj 161 318 outlet~;
#X obj 221 318 outlet~;
#X obj 281 318 outlet~;
#X obj 341 318 outlet~;
#X obj 401 318 outlet~;
#X obj 41 30 inlet~;
#X obj 41 244 *~;
#X obj 64 215 line~;
#X msg 64 191 \$1 50;
#X obj 101 244 *~;
#X obj 124 215 line~;
#X msg 124 191 \$1 50;
#X obj 161 244 *~;
#X obj 184 215 line~;
#X msg 184 191 \$1 50;
#X obj 221 244 *~;
#X obj 244 215 line~;
#X msg 244 191 \$1 50;
#X obj 281 244 *~;
#X obj 304 215 line~;
#X msg 304 191 \$1 50;
#X obj 341 244 *~;
#X obj 364 215 line~;
#X msg 364 191 \$1 50;
#X obj 401 244 *~;
#X obj 424 215 line~;
#X msg 424 191 \$1 50;
#X obj 64 166 r D0;
#X obj 124 166 r D1;
#X obj 184 166 r D2;
#X obj 244 166 r D3;
#X obj 304 166 r D4;
#X obj 364 166 r D5;
#X obj 424 166 r D6;
#X connect 7 0 8 0;
#X connect 7 0 11 0;
#X connect 7 0 14 0;
#X connect 7 0 17 0;
#X connect 7 0 20 0;
#X connect 7 0 23 0;
#X connect 7 0 26 0;
#X connect 8 0 0 0;
#X connect 9 0 8 1;
#X connect 10 0 9 0;
#X connect 11 0 1 0;
#X connect 12 0 11 1;
#X connect 13 0 12 0;
#X connect 14 0 2 0;
#X connect 15 0 14 1;
#X connect 16 0 15 0;
#X connect 17 0 3 0;
#X connect 18 0 17 1;
#X connect 19 0 18 0;
#X connect 20 0 4 0;
#X connect 21 0 20 1;
#X connect 22 0 21 0;
#X connect 23 0 5 0;
#X connect 24 0 23 1;
#X connect 25 0 24 0;
#X connect 26 0 6 0;
#X connect 27 0 26 1;
#X connect 28 0 27 0;
#X connect 29 0 10 0;
#X connect 30 0 13 0;
#X connect 31 0 16 0;
#X connect 32 0 19 0;
#X connect 33 0 22 0;
#X connect 34 0 25 0;
#X connect 35 0 28 0;
#X restore 475 261 pd D~;
#X f 10;
#N canvas 187 263 525 444 E~ 0;
#X obj 41 318 outlet~;
#X obj 101 318 outlet~;
#X obj 161 318 outlet~;
#X obj 221 318 outlet~;
#X obj 281 318 outlet~;
#X obj 341 318 outlet~;
#X obj 401 318 outlet~;
#X obj 41 30 inlet~;
#X obj 41 244 *~;
#X obj 64 215 line~;
#X msg 64 191 \$1 50;
#X obj 101 244 *~;
#X obj 124 215 line~;
#X msg 124 191 \$1 50;
#X obj 161 244 *~;
#X obj 184 215 line~;
#X msg 184 191 \$1 50;
#X obj 221 244 *~;
#X obj 244 215 line~;
#X msg 244 191 \$1 50;
#X obj 281 244 *~;
#X obj 304 215 line~;
#X msg 304 191 \$1 50;
#X obj 341 244 *~;
#X obj 364 215 line~;
#X msg 364 191 \$1 50;
#X obj 401 244 *~;
#X obj 424 215 line~;
#X msg 424 191 \$1 50;
#X obj 64 166 r E0;
#X obj 124 166 r E1;
#X obj 184 166 r E2;
#X obj 244 166 r E3;
#X obj 304 166 r E4;
#X obj 364 166 r E5;
#X obj 424 166 r E6;
#X connect 7 0 8 0;
#X connect 7 0 11 0;
#X connect 7 0 14 0;
#X connect 7 0 17 0;
#X connect 7 0 20 0;
#X connect 7 0 23 0;
#X connect 7 0 26 0;
#X connect 8 0 0 0;
#X connect 9 0 8 1;
#X connect 10 0 9 0;
#X connect 11 0 1 0;
#X connect 12 0 11 1;
#X connect 13 0 12 0;
#X connect 14 0 2 0;
#X connect 15 0 14 1;
#X connect 16 0 15 0;
#X connect 17 0 3 0;
#X connect 18 0 17 1;
#X connect 19 0 18 0;
#X connect 20 0 4 0;
#X connect 21 0 20 1;
#X connect 22 0 21 0;
#X connect 23 0 5 0;
#X connect 24 0 23 1;
#X connect 25 0 24 0;
#X connect 26 0 6 0;
#X connect 27 0 26 1;
#X connect 28 0 27 0;
#X connect 29 0 10 0;
#X connect 30 0 13 0;
#X connect 31 0 16 0;
#X connect 32 0 19 0;
#X connect 33 0 22 0;
#X connect 34 0 25 0;
#X connect 35 0 28 0;
#X restore 525 231 pd E~;
#X f 10;
#N canvas 187 263 525 444 F~ 0;
#X obj 41 318 outlet~;
#X obj 101 318 outlet~;
#X obj 161 318 outlet~;
#X obj 221 318 outlet~;
#X obj 281 318 outlet~;
#X obj 341 318 outlet~;
#X obj 401 318 outlet~;
#X obj 41 30 inlet~;
#X obj 41 244 *~;
#X obj 64 215 line~;
#X msg 64 191 \$1 50;
#X obj 101 244 *~;
#X obj 124 215 line~;
#X msg 124 191 \$1 50;
#X obj 161 244 *~;
#X obj 184 215 line~;
#X msg 184 191 \$1 50;
#X obj 221 244 *~;
#X obj 244 215 line~;
#X msg 244 191 \$1 50;
#X obj 281 244 *~;
#X obj 304 215 line~;
#X msg 304 191 \$1 50;
#X obj 341 244 *~;
#X obj 364 215 line~;
#X msg 364 191 \$1 50;
#X obj 401 244 *~;
#X obj 424 215 line~;
#X msg 424 191 \$1 50;
#X obj 64 166 r F0;
#X obj 124 166 r F1;
#X obj 184 166 r F2;
#X obj 244 166 r F3;
#X obj 304 166 r F4;
#X obj 364 166 r F5;
#X obj 424 166 r F6;
#X connect 7 0 8 0;
#X connect 7 0 11 0;
#X connect 7 0 14 0;
#X connect 7 0 17 0;
#X connect 7 0 20 0;
#X connect 7 0 23 0;
#X connect 7 0 26 0;
#X connect 8 0 0 0;
#X connect 9 0 8 1;
#X connect 10 0 9 0;
#X connect 11 0 1 0;
#X connect 12 0 11 1;
#X connect 13 0 12 0;
#X connect 14 0 2 0;
#X connect 15 0 14 1;
#X connect 16 0 15 0;
#X connect 17 0 3 0;
#X connect 18 0 17 1;
#X connect 19 0 18 0;
#X connect 20 0 4 0;
#X connect 21 0 20 1;
#X connect 22 0 21 0;
#X connect 23 0 5 0;
#X connect 24 0 23 1;
#X connect 25 0 24 0;
#X connect 26 0 6 0;
#X connect 27 0 26 1;
#X connect 28 0 27 0;
#X connect 29 0 10 0;
#X connect 30 0 13 0;
#X connect 31 0 16 0;
#X connect 32 0 19 0;
#X connect 33 0 22 0;
#X connect 34 0 25 0;
#X connect 35 0 28 0;
#X restore 575 201 pd F~;
#X f 10;
#N canvas 187 263 525 444 G~ 0;
#X obj 41 318 outlet~;
#X obj 101 318 outlet~;
#X obj 161 318 outlet~;
#X obj 221 318 outlet~;
#X obj 281 318 outlet~;
#X obj 341 318 outlet~;
#X obj 401 318 outlet~;
#X obj 41 30 inlet~;
#X obj 41 244 *~;
#X obj 64 215 line~;
#X msg 64 191 \$1 50;
#X obj 101 244 *~;
#X obj 124 215 line~;
#X msg 124 191 \$1 50;
#X obj 161 244 *~;
#X obj 184 215 line~;
#X msg 184 191 \$1 50;
#X obj 221 244 *~;
#X obj 244 215 line~;
#X msg 244 191 \$1 50;
#X obj 281 244 *~;
#X obj 304 215 line~;
#X msg 304 191 \$1 50;
#X obj 341 244 *~;
#X obj 364 215 line~;
#X msg 364 191 \$1 50;
#X obj 401 244 *~;
#X obj 424 215 line~;
#X msg 424 191 \$1 50;
#X obj 64 166 r G0;
#X obj 124 166 r G1;
#X obj 184 166 r G2;
#X obj 244 166 r G3;
#X obj 304 166 r G4;
#X obj 364 166 r G5;
#X obj 424 166 r G6;
#X connect 7 0 8 0;
#X connect 7 0 11 0;
#X connect 7 0 14 0;
#X connect 7 0 17 0;
#X connect 7 0 20 0;
#X connect 7 0 23 0;
#X connect 7 0 26 0;
#X connect 8 0 0 0;
#X connect 9 0 8 1;
#X connect 10 0 9 0;
#X connect 11 0 1 0;
#X connect 12 0 11 1;
#X connect 13 0 12 0;
#X connect 14 0 2 0;
#X connect 15 0 14 1;
#X connect 16 0 15 0;
#X connect 17 0 3 0;
#X connect 18 0 17 1;
#X connect 19 0 18 0;
#X connect 20 0 4 0;
#X connect 21 0 20 1;
#X connect 22 0 21 0;
#X connect 23 0 5 0;
#X connect 24 0 23 1;
#X connect 25 0 24 0;
#X connect 26 0 6 0;
#X connect 27 0 26 1;
#X connect 28 0 27 0;
#X connect 29 0 10 0;
#X connect 30 0 13 0;
#X connect 31 0 16 0;
#X connect 32 0 19 0;
#X connect 33 0 22 0;
#X connect 34 0 25 0;
#X connect 35 0 28 0;
#X restore 625 171 pd G~;
#X f 10;
#N canvas 187 263 525 444 H~ 0;
#X obj 41 318 outlet~;
#X obj 101 318 outlet~;
#X obj 161 318 outlet~;
#X obj 221 318 outlet~;
#X obj 281 318 outlet~;
#X obj 341 318 outlet~;
#X obj 401 318 outlet~;
#X obj 41 30 inlet~;
#X obj 41 244 *~;
#X obj 64 215 line~;
#X msg 64 191 \$1 50;
#X obj 101 244 *~;
#X obj 124 215 line~;
#X msg 124 191 \$1 50;
#X obj 161 244 *~;
#X obj 184 215 line~;
#X msg 184 191 \$1 50;
#X obj 221 244 *~;
#X obj 244 215 line~;
#X msg 244 191 \$1 50;
#X obj 281 244 *~;
#X obj 304 215 line~;
#X msg 304 191 \$1 50;
#X obj 341 244 *~;
#X obj 364 215 line~;
#X msg 364 191 \$1 50;
#X obj 401 244 *~;
#X obj 424 215 line~;
#X msg 424 191 \$1 50;
#X obj 64 166 r H0;
#X obj 124 166 r H1;
#X obj 184 166 r H2;
#X obj 244 166 r H3;
#X obj 304 166 r H4;
#X obj 364 166 r H5;
#X obj 424 166 r H6;
#X connect 7 0 8 0;
#X connect 7 0 11 0;
#X connect 7 0 14 0;
#X connect 7 0 17 0;
#X connect 7 0 20 0;
#X connect 7 0 23 0;
#X connect 7 0 26 0;
#X connect 8 0 0 0;
#X connect 9 0 8 1;
#X connect 10 0 9 0;
#X connect 11 0 1 0;
#X connect 12 0 11 1;
#X connect 13 0 12 0;
#X connect 14 0 2 0;
#X connect 15 0 14 1;
#X connect 16 0 15 0;
#X connect 17 0 3 0;
#X connect 18 0 17 1;
#X connect 19 0 18 0;
#X connect 20 0 4 0;
#X connect 21 0 20 1;
#X connect 22 0 21 0;
#X connect 23 0 5 0;
#X connect 24 0 23 1;
#X connect 25 0 24 0;
#X connect 26 0 6 0;
#X connect 27 0 26 1;
#X connect 28 0 27 0;
#X connect 29 0 10 0;
#X connect 30 0 13 0;
#X connect 31 0 16 0;
#X connect 32 0 19 0;
#X connect 33 0 22 0;
#X connect 34 0 25 0;
#X connect 35 0 28 0;
#X restore 674 141 pd H~;
#X f 10;
#N canvas 187 263 525 444 I~ 0;
#X obj 41 318 outlet~;
#X obj 101 318 outlet~;
#X obj 161 318 outlet~;
#X obj 221 318 outlet~;
#X obj 281 318 outlet~;
#X obj 341 318 outlet~;
#X obj 401 318 outlet~;
#X obj 41 30 inlet~;
#X obj 41 244 *~;
#X obj 64 215 line~;
#X msg 64 191 \$1 50;
#X obj 101 244 *~;
#X obj 124 215 line~;
#X msg 124 191 \$1 50;
#X obj 161 244 *~;
#X obj 184 215 line~;
#X msg 184 191 \$1 50;
#X obj 221 244 *~;
#X obj 244 215 line~;
#X msg 244 191 \$1 50;
#X obj 281 244 *~;
#X obj 304 215 line~;
#X msg 304 191 \$1 50;
#X obj 341 244 *~;
#X obj 364 215 line~;
#X msg 364 191 \$1 50;
#X obj 401 244 *~;
#X obj 424 215 line~;
#X msg 424 191 \$1 50;
#X obj 64 166 r I0;
#X obj 124 166 r I1;
#X obj 184 166 r I2;
#X obj 244 166 r I3;
#X obj 304 166 r I4;
#X obj 364 166 r I5;
#X obj 424 166 r I6;
#X connect 7 0 8 0;
#X connect 7 0 11 0;
#X connect 7 0 14 0;
#X connect 7 0 17 0;
#X connect 7 0 20 0;
#X connect 7 0 23 0;
#X connect 7 0 26 0;
#X connect 8 0 0 0;
#X connect 9 0 8 1;
#X connect 10 0 9 0;
#X connect 11 0 1 0;
#X connect 12 0 11 1;
#X connect 13 0 12 0;
#X connect 14 0 2 0;
#X connect 15 0 14 1;
#X connect 16 0 15 0;
#X connect 17 0 3 0;
#X connect 18 0 17 1;
#X connect 19 0 18 0;
#X connect 20 0 4 0;
#X connect 21 0 20 1;
#X connect 22 0 21 0;
#X connect 23 0 5 0;
#X connect 24 0 23 1;
#X connect 25 0 24 0;
#X connect 26 0 6 0;
#X connect 27 0 26 1;
#X connect 28 0 27 0;
#X connect 29 0 10 0;
#X connect 30 0 13 0;
#X connect 31 0 16 0;
#X connect 32 0 19 0;
#X connect 33 0 22 0;
#X connect 34 0 25 0;
#X connect 35 0 28 0;
#X restore 723 109 pd I~;
#X f 10;
#X text 790 251 What a mess!;
#X text 327 464 This abstraction creates a 9 x 7 matrix. The first inlet must get three numbers a \, b and c. a = input # \, b = output # and c = linear amplitude (0-1). So for example \, 0 1 0.5 will turn on input 0 through output 1 at 50% (or 93 dB).;
#X text 339 413 0;
#X text 400 413 1;
#X text 460 413 2;
#X text 519 413 3;
#X text 580 413 4;
#X text 640 413 5;
#X text 703 413 6;
#X text 689 25 7;
#X text 339 27 0;
#X text 391 27 1;
#X text 442 27 2;
#X text 493 27 3;
#X text 541 27 4;
#X text 592 26 5;
#X text 640 26 6;
#X text 735 26 8;
#X text 326 539 Only use 1 instance of this abstraction per patch. It is not setup to have multiple instances and will fail horrendously.;
#N canvas 63 102 525 300 reset 0;
#X msg 26 58 \; A0 0 \; A1 0 \; A2 0 \; A3 0 \; A4 0 \; A5 0 \; A6 0 \;;
#X msg 80 58 \; B0 0 \; B1 0 \; B2 0 \; B3 0 \; B4 0 \; B5 0 \; B6 0 \;;
#X msg 131 58 \; C0 0 \; C1 0 \; C2 0 \; C3 0 \; C4 0 \; C5 0 \; C6 0 \;;
#X msg 186 58 \; D0 0 \; D1 0 \; D2 0 \; D3 0 \; D4 0 \; D5 0 \; D6 0 \;;
#X msg 240 58 \; E0 0 \; E1 0 \; E2 0 \; E3 0 \; E4 0 \; E5 0 \; E6 0 \;;
#X msg 291 58 \; F0 0 \; F1 0 \; F2 0 \; F3 0 \; F4 0 \; F5 0 \; F6 0 \;;
#X msg 344 58 \; G0 0 \; G1 0 \; G2 0 \; G3 0 \; G4 0 \; G5 0 \; G6 0 \;;
#X msg 398 58 \; H0 0 \; H1 0 \; H2 0 \; H3 0 \; H4 0 \; H5 0 \; H6 0 \;;
#X msg 449 58 \; I0 0 \; I1 0 \; I2 0 \; I3 0 \; I4 0 \; I5 0 \; I6 0 \;;
#X obj 26 32 r matrix-reset;
#X connect 9 0 0 0;
#X connect 9 0 1 0;
#X connect 9 0 2 0;
#X connect 9 0 3 0;
#X connect 9 0 4 0;
#X connect 9 0 5 0;
#X connect 9 0 6 0;
#X connect 9 0 7 0;
#X connect 9 0 8 0;
#X restore 790 353 pd reset;
#X connect 0 0 46 0;
#X connect 1 0 47 0;
#X connect 2 0 48 0;
#X connect 3 0 49 0;
#X connect 4 0 50 0;
#X connect 5 0 51 0;
#X connect 6 0 52 0;
#X connect 7 0 53 0;
#X connect 8 0 54 0;
#X connect 15 0 17 0;
#X connect 17 0 18 0;
#X connect 17 1 20 0;
#X connect 17 2 22 0;
#X connect 17 3 23 0;
#X connect 17 4 26 0;
#X connect 17 5 27 0;
#X connect 17 6 28 0;
#X connect 17 7 29 0;
#X connect 17 8 34 0;
#X connect 18 0 36 0;
#X connect 18 1 36 1;
#X connect 18 2 36 2;
#X connect 18 3 36 3;
#X connect 18 4 36 4;
#X connect 18 5 36 5;
#X connect 18 6 36 6;
#X connect 20 0 37 0;
#X connect 20 1 37 1;
#X connect 20 2 37 2;
#X connect 20 3 37 3;
#X connect 20 4 37 4;
#X connect 20 5 37 5;
#X connect 20 6 37 6;
#X connect 22 0 38 0;
#X connect 22 1 38 1;
#X connect 22 2 38 2;
#X connect 22 3 38 3;
#X connect 22 4 38 4;
#X connect 22 5 38 5;
#X connect 22 6 38 6;
#X connect 23 0 39 0;
#X connect 23 1 39 1;
#X connect 23 2 39 2;
#X connect 23 3 39 3;
#X connect 23 4 39 4;
#X connect 23 5 39 5;
#X connect 23 6 39 6;
#X connect 26 0 40 0;
#X connect 26 1 40 1;
#X connect 26 2 40 2;
#X connect 26 3 40 3;
#X connect 26 4 40 4;
#X connect 26 5 40 5;
#X connect 26 6 40 6;
#X connect 27 0 41 0;
#X connect 27 1 41 1;
#X connect 27 2 41 2;
#X connect 27 3 41 3;
#X connect 27 4 41 4;
#X connect 27 5 41 5;
#X connect 27 6 41 6;
#X connect 28 0 42 0;
#X connect 28 1 42 1;
#X connect 28 2 42 2;
#X connect 28 3 42 3;
#X connect 28 4 42 4;
#X connect 28 5 42 5;
#X connect 28 6 42 6;
#X connect 29 0 43 0;
#X connect 29 1 43 1;
#X connect 29 2 43 2;
#X connect 29 3 43 3;
#X connect 29 4 43 4;
#X connect 29 5 43 5;
#X connect 29 6 43 6;
#X connect 34 0 44 0;
#X connect 34 1 44 1;
#X connect 34 2 44 2;
#X connect 34 3 44 3;
#X connect 34 4 44 4;
#X connect 34 5 44 5;
#X connect 34 6 44 6;
#X connect 46 0 9 0;
#X connect 46 1 10 0;
#X connect 46 2 11 0;
#X connect 46 3 12 0;
#X connect 46 4 13 0;
#X connect 46 5 14 0;
#X connect 46 6 45 0;
#X connect 47 0 9 0;
#X connect 47 1 10 0;
#X connect 47 2 11 0;
#X connect 47 3 12 0;
#X connect 47 4 13 0;
#X connect 47 5 14 0;
#X connect 47 6 45 0;
#X connect 48 0 9 0;
#X connect 48 1 10 0;
#X connect 48 2 11 0;
#X connect 48 3 12 0;
#X connect 48 4 13 0;
#X connect 48 5 14 0;
#X connect 48 6 45 0;
#X connect 49 0 9 0;
#X connect 49 1 10 0;
#X connect 49 2 11 0;
#X connect 49 3 12 0;
#X connect 49 4 13 0;
#X connect 49 5 14 0;
#X connect 49 6 45 0;
#X connect 50 0 9 0;
#X connect 50 1 10 0;
#X connect 50 2 11 0;
#X connect 50 3 12 0;
#X connect 50 4 13 0;
#X connect 50 5 14 0;
#X connect 50 6 45 0;
#X connect 51 0 9 0;
#X connect 51 1 10 0;
#X connect 51 2 11 0;
#X connect 51 3 12 0;
#X connect 51 4 13 0;
#X connect 51 5 14 0;
#X connect 51 5 45 0;
#X connect 52 0 9 0;
#X connect 52 1 10 0;
#X connect 52 2 11 0;
#X connect 52 3 12 0;
#X connect 52 4 13 0;
#X connect 52 5 14 0;
#X connect 52 6 45 0;
#X connect 53 0 9 0;
#X connect 53 1 10 0;
#X connect 53 2 11 0;
#X connect 53 3 12 0;
#X connect 53 4 13 0;
#X connect 53 5 14 0;
#X connect 53 6 45 0;
#X connect 54 0 9 0;
#X connect 54 1 10 0;
#X connect 54 2 11 0;
#X connect 54 3 12 0;
#X connect 54 4 13 0;
#X connect 54 5 14 0;
#X connect 54 6 45 0;
