#N canvas 1074 197 1009 654 12;
#X floatatom 149 236 8 0 0 0 - - - 0;
#X floatatom 253 236 7 0 0 0 - - - 0;
#X floatatom 357 236 9 0 0 0 - - - 0;
#X text 96 237 (MIDI);
#X text 214 235 (db);
#X obj 149 208 sigmund~ -hop 4096 pitch env evenness quality;
#X floatatom 461 236 4 0 0 0 - - - 0;
#X obj 167 96 *~ 0.5;
#X obj 220 96 *~ 0.5;
#X obj 166 123 +~;
#X obj 149 179 *~;
#X obj 72 109 tgl 19 0 empty empty empty 0 -10 0 12 #fcfcfc #000000 #000000 0 1;
#X obj 72 75 inlet;
#X text 117 74 on/off;
#X obj 243 308 inlet;
#X obj 433 310 inlet;
#X text 241 289 pitch to listen for;
#X text 431 289 dB threshold to achieve;
#X obj 149 409 outlet;
#X obj 149 354 expr if($f1 == $f2 && $f3 >= $f4 \, $f1 \, 0);
#X obj 167 72 inlet~;
#X floatatom 243 332 5 0 0 0 - - - 0;
#X floatatom 433 334 5 0 0 0 - - - 0;
#X connect 0 0 19 0;
#X connect 1 0 19 2;
#X connect 5 0 0 0;
#X connect 5 1 1 0;
#X connect 5 2 2 0;
#X connect 5 3 6 0;
#X connect 7 0 9 0;
#X connect 8 0 9 1;
#X connect 9 0 10 1;
#X connect 10 0 5 0;
#X connect 11 0 10 0;
#X connect 12 0 11 0;
#X connect 14 0 21 0;
#X connect 15 0 22 0;
#X connect 19 0 18 0;
#X connect 20 0 7 0;
#X connect 21 0 19 1;
#X connect 22 0 19 3;
