#N canvas 354 84 1199 665 12;
#X obj 195 361 hilbert~;
#X obj 195 386 complex-mod~;
#N canvas 0 22 450 278 (subpatch) 0;
#X array array1 69868 float 2;
#X coords 0 1 69868 -1 200 140 1;
#X restore 643 149 graph;
#X obj 642 109 soundfiler;
#X obj 77 67 tabplay~ array1;
#X obj 195 410 output~;
#X floatatom 276 365 5 0 0 0 - - - 0;
#X obj 276 341 line;
#X text 34 522 A very basic experiment with an acoustic pitch bender. Uses a SSB modulator;
#N canvas 338 502 682 441 bender 0;
#X msg 73 170 0 \, 150 500;
#X msg 158 169 0 \, -150 500;
#X obj 73 145 r \$0-up;
#X obj 73 197 s \$0-bend;
#X obj 158 143 r \$0-down;
#X obj 328 146 del 85;
#X obj 262 114 r \$0-mordent;
#X msg 262 170 0 \, 70 85;
#X msg 329 169 70 \, 0 200;
#X msg 72 293 \; pb-tape 0 \, 2 1000 \;;
#X msg 221 293 \; pb-tape 0 \, -2 1000 \;;
#X obj 72 264 r \$0-up;
#X obj 221 266 r \$0-down;
#X obj 399 256 r \$0-mordent;
#X msg 399 311 \; pb-tape 0 \, 2 100 \;;
#X obj 465 288 del 150;
#X msg 465 351 \; pb-tape 2 \, 0 150 \;;
#X connect 0 0 3 0;
#X connect 1 0 3 0;
#X connect 2 0 0 0;
#X connect 4 0 1 0;
#X connect 5 0 8 0;
#X connect 6 0 7 0;
#X connect 6 0 5 0;
#X connect 7 0 3 0;
#X connect 8 0 3 0;
#X connect 11 0 9 0;
#X connect 12 0 10 0;
#X connect 13 0 14 0;
#X connect 13 0 15 0;
#X connect 15 0 16 0;
#X restore 40 336 pd bender;
#X obj 276 318 r \$0-bend;
#N canvas 0 22 450 278 (subpatch) 0;
#X array array2 63701 float 2;
#X coords 0 1 63701 -1 200 140 1;
#X restore 849 149 graph;
#X obj 191 67 tabplay~ array2;
#X obj 77 99 *~;
#X obj 106 93 tgl 19 0 empty empty empty 0 -10 0 12 #fcfcfc #000000 #000000 0 1;
#X obj 191 99 *~;
#X obj 220 94 tgl 19 0 empty empty empty 0 -10 0 12 #fcfcfc #000000 #000000 0 1;
#N canvas 17 258 661 405 threshold-detector 0;
#X obj 71 86 env~ 16386;
#X floatatom 71 110 5 0 0 0 - - - 0;
#X obj 192 82 bng 19 250 50 0 empty empty empty 0 -10 0 12 #fcfcfc #000000 #000000;
#X obj 371 83 bng 19 250 50 0 empty empty empty 0 -10 0 12 #fcfcfc #000000 #000000;
#X obj 192 32 inlet~;
#X obj 192 239 bng 19 250 50 0 empty empty empty 0 -10 0 12 #fcfcfc #000000 #000000;
#X obj 251 239 bng 19 250 50 0 empty empty empty 0 -10 0 12 #fcfcfc #000000 #000000;
#X text 170 238 up;
#X text 274 238 down;
#X obj 324 239 bng 19 250 50 0 empty empty empty 0 -10 0 12 #fcfcfc #000000 #000000;
#X text 355 239 upper mordent;
#X obj 251 263 s \$0-down;
#X obj 192 263 s \$0-up;
#X obj 324 263 s \$0-mordent;
#X obj 192 210 spigot;
#X obj 251 210 spigot;
#X obj 324 210 spigot;
#X obj 231 136 r \$0-bend-type;
#X obj 231 163 route 0 1 2, f 26;
#X obj 363 184 tgl 19 0 empty empty empty 0 -10 0 12 #fcfcfc #000000 #000000 0 1;
#X obj 290 185 tgl 19 0 empty empty empty 0 -10 0 12 #fcfcfc #000000 #000000 0 1;
#X obj 231 187 tgl 19 0 empty empty empty 0 -10 0 12 #fcfcfc #000000 #000000 0 1;
#X obj 434 139 r \$0-reset-bend-type;
#X msg 434 165 0, f 2;
#X obj 192 56 threshold~ 0.6 200 0.2 200;
#X obj 281 33 r threshold-detector;
#X obj 434 189 s \$0-bend;
#X connect 0 0 1 0;
#X connect 2 0 14 0;
#X connect 2 0 15 0;
#X connect 2 0 16 0;
#X connect 4 0 0 0;
#X connect 4 0 24 0;
#X connect 5 0 12 0;
#X connect 6 0 11 0;
#X connect 9 0 13 0;
#X connect 14 0 5 0;
#X connect 15 0 6 0;
#X connect 16 0 9 0;
#X connect 17 0 18 0;
#X connect 18 0 21 0;
#X connect 18 1 20 0;
#X connect 18 2 19 0;
#X connect 19 0 16 1;
#X connect 20 0 15 1;
#X connect 21 0 14 1;
#X connect 22 0 23 0;
#X connect 23 0 19 0;
#X connect 23 0 20 0;
#X connect 23 0 21 0;
#X connect 23 0 26 0;
#X connect 24 0 2 0;
#X connect 24 1 3 0;
#X connect 25 0 24 0;
#X restore 40 312 pd threshold-detector;
#X obj 77 30 bng 19 250 50 0 empty empty empty 0 -10 0 12 #fcfcfc #000000 #000000;
#X obj 310 128 s \$0-bend-type;
#X msg 310 100 0 1;
#X msg 357 100 1 1;
#X msg 407 100 2 1;
#X text 311 17 up;
#X text 352 18 down;
#X text 403 18 mord;
#X obj 447 99 bng 19 250 50 0 empty empty empty 0 -10 0 12 #fcfcfc #000000 #000000;
#X obj 447 125 s \$0-reset-bend-type;
#X obj 77 146 s~ input;
#X obj 195 265 r~ input;
#X obj 310 42 bng 19 250 50 0 empty empty empty 0 -10 0 12 #fcfcfc #000000 #000000;
#X obj 310 64 t b b;
#X obj 357 41 bng 19 250 50 0 empty empty empty 0 -10 0 12 #fcfcfc #000000 #000000;
#X obj 357 63 t b b;
#X obj 407 41 bng 19 250 50 0 empty empty empty 0 -10 0 12 #fcfcfc #000000 #000000;
#X obj 407 63 t b b;
#X msg 258 211 \; threshold-detector 0.6 200 0.2 200 \;;
#X msg 258 171 \; threshold-detector 0.2 50 0.05 200 \;;
#X obj 244 291 rev3~ 88 90 4000 90;
#X obj 195 291 *~ 0.6;
#X obj 550 394 pitchbend-tape;
#X obj 645 336 r~ input;
#X obj 694 362 rev3~ 88 90 4000 90;
#X obj 645 362 *~ 0.6;
#X obj 550 422 output~;
#X obj 550 368 line;
#X text 35 496 This part tends to work "best" with the mordent feature.;
#X text 551 507 This part sounds pretty good with the recorded samples;
#X obj 550 320 r pb-tape;
#X msg 642 81 read -resize ../test/D#4.aiff array1;
#X msg 910 81 read -resize ../test/F#4.aiff array2;
#X connect 0 0 1 0;
#X connect 0 1 1 1;
#X connect 1 0 5 0;
#X connect 1 1 5 1;
#X connect 4 0 13 0;
#X connect 6 0 1 2;
#X connect 7 0 6 0;
#X connect 10 0 7 0;
#X connect 12 0 15 0;
#X connect 13 0 28 0;
#X connect 14 0 13 1;
#X connect 15 0 28 0;
#X connect 16 0 15 1;
#X connect 18 0 4 0;
#X connect 18 0 12 0;
#X connect 20 0 19 0;
#X connect 21 0 19 0;
#X connect 22 0 19 0;
#X connect 26 0 27 0;
#X connect 29 0 17 0;
#X connect 29 0 39 0;
#X connect 29 0 38 0;
#X connect 30 0 31 0;
#X connect 31 0 20 0;
#X connect 31 1 26 0;
#X connect 32 0 33 0;
#X connect 33 0 21 0;
#X connect 33 1 26 0;
#X connect 34 0 35 0;
#X connect 35 0 22 0;
#X connect 35 1 26 0;
#X connect 38 0 0 0;
#X connect 38 1 0 0;
#X connect 39 0 0 0;
#X connect 40 0 44 0;
#X connect 40 0 44 1;
#X connect 41 0 43 0;
#X connect 41 0 42 0;
#X connect 42 0 40 1;
#X connect 42 1 40 1;
#X connect 43 0 40 1;
#X connect 45 0 40 0;
#X connect 48 0 45 0;
#X connect 49 0 3 0;
#X connect 50 0 3 0;
