#N canvas 652 108 728 819 12;
#X floatatom 101 137 6 0 0 0 - - - 0;
#X obj 71 508 *~;
#X obj 224 434 line~;
#X floatatom 224 189 6 0 0 0 - - - 0;
#X obj 224 163 r window;
#X obj 101 193 exp;
#X floatatom 101 219 6 0 0 0 - - - 0;
#X obj 101 309 /;
#X obj 149 246 * 0.001;
#X obj 287 498 line~;
#X floatatom 287 422 0 0 0 0 - - - 0;
#X obj 287 396 r delay;
#X obj 71 545 +~;
#X obj 15 560 cos~;
#X obj 15 587 *~;
#X obj 164 631 +~;
#X obj 165 434 wrap~;
#X obj 241 493 *~;
#X obj 269 553 +~;
#X obj 183 570 cos~;
#X obj 183 597 *~;
#X obj 149 272 t b f;
#X floatatom 101 335 6 0 0 0 - - - 0;
#X obj 165 407 +~ 0.5;
#X obj 15 508 -~ 0.5;
#X obj 15 534 *~ 0.5;
#X obj 183 493 -~ 0.5;
#X obj 183 542 *~ 0.5;
#X obj 101 246 - 1;
#X obj 101 167 * 0.05776;
#X obj 101 272 * -1;
#X text 54 213 speed;
#X text 47 227 change;
#X text 29 326 tape head;
#X obj 101 366 phasor~;
#X obj 287 449 max 1.5;
#X text 290 355 delay;
#X text 287 373 (msec);
#X obj 224 216 max 1;
#X text 29 339 rotation freq, f 9;
#X text 275 189 <-- window (msec);
#X msg 224 407 \$1 200;
#X msg 287 473 \$1 200;
#X text 151 137 <-- transposition in halftones;
#X obj 232 45 inlet~;
#X obj 113 784 outlet~;
#X obj 308 15 loadbang;
#X obj 101 112 inlet;
#X obj 232 104 delwrite~ \$0-tape 5000;
#X obj 71 571 delread4~ \$0-tape;
#X obj 269 582 delread4~ \$0-tape;
#X msg 394 93 \; window 14 \; delay 20;
#X text 323 680 <--testing this...;
#X obj 163 682 rev3~ 91 90 5000 93;
#X obj 113 718 *~ 0.8;
#X obj 164 718 *~ 0.2;
#X obj 232 77 compressor~;
#X msg 308 40 threshold -15 \, ratio 5 \, response 40 \, gain 8 \, rmspeak 0 \, lookahead 35;
#X connect 0 0 29 0;
#X connect 1 0 12 0;
#X connect 2 0 1 1;
#X connect 2 0 17 1;
#X connect 3 0 38 0;
#X connect 4 0 3 0;
#X connect 5 0 6 0;
#X connect 6 0 28 0;
#X connect 7 0 22 0;
#X connect 8 0 21 0;
#X connect 9 0 12 1;
#X connect 9 0 18 1;
#X connect 10 0 35 0;
#X connect 11 0 10 0;
#X connect 12 0 49 0;
#X connect 13 0 14 0;
#X connect 14 0 15 0;
#X connect 15 0 53 0;
#X connect 15 0 53 1;
#X connect 15 0 54 0;
#X connect 16 0 17 0;
#X connect 16 0 26 0;
#X connect 17 0 18 0;
#X connect 18 0 50 0;
#X connect 19 0 20 0;
#X connect 20 0 15 1;
#X connect 21 0 7 0;
#X connect 21 1 7 1;
#X connect 22 0 34 0;
#X connect 23 0 16 0;
#X connect 24 0 25 0;
#X connect 25 0 13 0;
#X connect 26 0 27 0;
#X connect 27 0 19 0;
#X connect 28 0 30 0;
#X connect 29 0 5 0;
#X connect 30 0 7 0;
#X connect 34 0 1 0;
#X connect 34 0 24 0;
#X connect 34 0 23 0;
#X connect 35 0 42 0;
#X connect 38 0 8 0;
#X connect 38 0 41 0;
#X connect 41 0 2 0;
#X connect 42 0 9 0;
#X connect 44 0 56 0;
#X connect 46 0 57 0;
#X connect 46 0 51 0;
#X connect 47 0 0 0;
#X connect 49 0 14 1;
#X connect 50 0 20 1;
#X connect 53 0 55 0;
#X connect 53 1 55 0;
#X connect 53 2 55 0;
#X connect 53 3 55 0;
#X connect 54 0 45 0;
#X connect 55 0 45 0;
#X connect 56 0 48 0;
#X connect 57 0 56 1;
