#N canvas 84 189 977 723 12;
#X floatatom 305 165 8 0 0 0 - - - 0;
#X floatatom 409 165 7 0 0 0 - - - 0;
#X floatatom 513 165 9 0 0 0 - - - 0;
#X text 252 166 (MIDI);
#X text 370 164 (db);
#X floatatom 617 165 4 0 0 0 - - - 0;
#X obj 305 108 *~;
#X obj 228 78 tgl 19 0 empty empty empty 0 -10 0 12 #fcfcfc #000000 #000000 0 1;
#X obj 228 44 inlet;
#X text 225 22 on/off;
#X obj 323 41 inlet~;
#X floatatom 305 383 5 0 0 0 - - - 0;
#X obj 337 442 unpack 0 0 0 0 0 0, f 33;
#X obj 337 413 r pitchdetection-list;
#X obj 305 505 sel 0;
#X obj 350 505 sel 0;
#X obj 441 505 sel 0;
#X obj 487 504 sel 0;
#X obj 396 505 sel 0;
#X obj 533 504 sel 0;
#X floatatom 337 468 5 0 0 0 - - - 0;
#X floatatom 382 469 5 0 0 0 - - - 0;
#X floatatom 428 469 5 0 0 0 - - - 0;
#X floatatom 473 470 5 0 0 0 - - - 0;
#X floatatom 519 470 5 0 0 0 - - - 0;
#X floatatom 565 471 5 0 0 0 - - - 0;
#X msg 673 341 \; pitchdetection-list 0 0 0 0 0 0 \;;
#X obj 673 317 r pitchdetection-reset;
#X msg 673 279 \; pitchdetection-list 49 48 52 60 63 65 \;;
#X obj 469 190 r pitchdetection-thresh;
#X floatatom 469 214 5 0 0 0 - - - 0;
#X obj 409 259 s \$0-b;
#X obj 348 192 r \$0-b;
#X msg 673 238 \; pitchdetection-thresh 40 \;;
#X obj 673 211 loadbang;
#X obj 305 192 + 0.5;
#N canvas 106 52 607 390 debounce 0;
#X obj 185 236 spigot;
#X obj 185 146 t b b;
#X msg 185 168 0;
#X obj 224 214 tgl 19 0 empty empty empty 0 -10 0 12 #fcfcfc #000000 #000000 0 1;
#X obj 249 166 del 500;
#X obj 295 140 r pitchdetection-debounce;
#X msg 249 190 1;
#X obj 189 101 inlet;
#X obj 185 260 outlet;
#X connect 0 0 8 0;
#X connect 1 0 2 0;
#X connect 1 1 0 0;
#X connect 1 1 4 0;
#X connect 2 0 3 0;
#X connect 3 0 0 1;
#X connect 4 0 6 0;
#X connect 5 0 4 1;
#X connect 6 0 3 0;
#X connect 7 0 1 0;
#X restore 305 531 pd debounce;
#X obj 305 589 outlet;
#X obj 305 239 spigot;
#X obj 366 216 tgl 19 0 empty empty empty 0 -10 0 12 #fcfcfc #000000 #000000 0 1;
#X obj 305 217 i;
#N canvas 991 231 490 300 switch 0;
#X obj 185 19 inlet;
#X obj 185 176 outlet;
#X obj 281 19 inlet;
#X obj 185 96 >;
#X obj 185 120 sel 1;
#X msg 185 146 1;
#X msg 217 146 0;
#X connect 0 0 3 0;
#X connect 2 0 3 1;
#X connect 3 0 4 0;
#X connect 4 0 5 0;
#X connect 4 1 6 0;
#X connect 5 0 1 0;
#X connect 6 0 1 0;
#X restore 409 235 pd switch;
#X text 551 61 This abstraction can detect up to 6 pitches;
#N canvas 106 52 607 390 debounce 0;
#X obj 185 236 spigot;
#X obj 185 146 t b b;
#X msg 185 168 0;
#X obj 224 214 tgl 19 0 empty empty empty 0 -10 0 12 #fcfcfc #000000 #000000 0 1;
#X obj 249 166 del 500;
#X obj 295 140 r pitchdetection-debounce;
#X msg 249 190 1;
#X obj 189 101 inlet;
#X obj 185 260 outlet;
#X connect 0 0 8 0;
#X connect 1 0 2 0;
#X connect 1 1 0 0;
#X connect 1 1 4 0;
#X connect 2 0 3 0;
#X connect 3 0 0 1;
#X connect 4 0 6 0;
#X connect 5 0 4 1;
#X connect 6 0 3 0;
#X connect 7 0 1 0;
#X restore 350 554 pd debounce;
#N canvas 106 52 607 390 debounce 0;
#X obj 185 236 spigot;
#X obj 185 146 t b b;
#X msg 185 168 0;
#X obj 224 214 tgl 19 0 empty empty empty 0 -10 0 12 #fcfcfc #000000 #000000 0 1;
#X obj 249 166 del 500;
#X obj 295 140 r pitchdetection-debounce;
#X msg 249 190 1;
#X obj 189 101 inlet;
#X obj 185 260 outlet;
#X connect 0 0 8 0;
#X connect 1 0 2 0;
#X connect 1 1 0 0;
#X connect 1 1 4 0;
#X connect 2 0 3 0;
#X connect 3 0 0 1;
#X connect 4 0 6 0;
#X connect 5 0 4 1;
#X connect 6 0 3 0;
#X connect 7 0 1 0;
#X restore 396 531 pd debounce;
#N canvas 106 52 607 390 debounce 0;
#X obj 185 236 spigot;
#X obj 185 146 t b b;
#X msg 185 168 0;
#X obj 224 214 tgl 19 0 empty empty empty 0 -10 0 12 #fcfcfc #000000 #000000 0 1;
#X obj 249 166 del 500;
#X obj 295 140 r pitchdetection-debounce;
#X msg 249 190 1;
#X obj 189 101 inlet;
#X obj 185 260 outlet;
#X connect 0 0 8 0;
#X connect 1 0 2 0;
#X connect 1 1 0 0;
#X connect 1 1 4 0;
#X connect 2 0 3 0;
#X connect 3 0 0 1;
#X connect 4 0 6 0;
#X connect 5 0 4 1;
#X connect 6 0 3 0;
#X connect 7 0 1 0;
#X restore 441 554 pd debounce;
#N canvas 106 52 607 390 debounce 0;
#X obj 185 236 spigot;
#X obj 185 146 t b b;
#X msg 185 168 0;
#X obj 224 214 tgl 19 0 empty empty empty 0 -10 0 12 #fcfcfc #000000 #000000 0 1;
#X obj 249 166 del 500;
#X obj 295 140 r pitchdetection-debounce;
#X msg 249 190 1;
#X obj 189 101 inlet;
#X obj 185 260 outlet;
#X connect 0 0 8 0;
#X connect 1 0 2 0;
#X connect 1 1 0 0;
#X connect 1 1 4 0;
#X connect 2 0 3 0;
#X connect 3 0 0 1;
#X connect 4 0 6 0;
#X connect 5 0 4 1;
#X connect 6 0 3 0;
#X connect 7 0 1 0;
#X restore 487 531 pd debounce;
#N canvas 106 52 607 390 debounce 0;
#X obj 185 236 spigot;
#X obj 185 146 t b b;
#X msg 185 168 0;
#X obj 224 214 tgl 19 0 empty empty empty 0 -10 0 12 #fcfcfc #000000 #000000 0 1;
#X obj 249 166 del 500;
#X obj 295 140 r pitchdetection-debounce;
#X msg 249 190 1;
#X obj 189 101 inlet;
#X obj 185 260 outlet;
#X connect 0 0 8 0;
#X connect 1 0 2 0;
#X connect 1 1 0 0;
#X connect 1 1 4 0;
#X connect 2 0 3 0;
#X connect 3 0 0 1;
#X connect 4 0 6 0;
#X connect 5 0 4 1;
#X connect 6 0 3 0;
#X connect 7 0 1 0;
#X restore 533 554 pd debounce;
#X obj 350 613 outlet;
#X obj 396 589 outlet;
#X obj 441 613 outlet;
#X obj 487 589 outlet;
#X obj 533 612 outlet;
#X obj 305 137 sigmund~ -hop 4096 pitch env evenness quality;
#X obj 85 266 fiddle~ 1024 1 20 3;
#X floatatom 130 293 5 0 0 0 - - - 0;
#X obj 85 290 i;
#X floatatom 85 314 5 0 0 0 - - - 0;
#X obj 172 352 spigot;
#X obj 305 352 spigot;
#X obj 211 321 tgl 19 0 empty empty empty 0 -10 0 12 #fcfcfc #000000 #000000 0 1;
#X obj 344 321 tgl 19 0 empty empty empty 0 -10 0 12 #fcfcfc #000000 #000000 0 1;
#X obj 344 296 r sigmund;
#X obj 209 295 r fiddle;
#X obj 391 339 sel 1;
#X msg 391 363 0;
#X obj 391 387 s fiddle;
#X obj 211 395 sel 1;
#X msg 211 419 0;
#X obj 211 443 s sigmund;
#X text 25 495 It's strange but fiddle~ seems \; to work well with higher pitches \; and sigmund~ with lower pitches \; Right now I'm switching between \; the two \, really only when I need \; reliable detection on higher pitches.;
#X text 8 226 We will only use fiddle~ sparingly.;
#X connect 0 0 35 0;
#X connect 1 0 41 0;
#X connect 6 0 53 0;
#X connect 6 0 54 0;
#X connect 7 0 6 0;
#X connect 8 0 7 0;
#X connect 10 0 6 1;
#X connect 11 0 14 0;
#X connect 11 0 15 0;
#X connect 11 0 18 0;
#X connect 11 0 16 0;
#X connect 11 0 17 0;
#X connect 11 0 19 0;
#X connect 12 0 20 0;
#X connect 12 1 21 0;
#X connect 12 2 22 0;
#X connect 12 3 23 0;
#X connect 12 4 24 0;
#X connect 12 5 25 0;
#X connect 13 0 12 0;
#X connect 14 0 36 0;
#X connect 15 0 43 0;
#X connect 16 0 45 0;
#X connect 17 0 46 0;
#X connect 18 0 44 0;
#X connect 19 0 47 0;
#X connect 20 0 14 1;
#X connect 21 0 15 1;
#X connect 22 0 18 1;
#X connect 23 0 16 1;
#X connect 24 0 17 1;
#X connect 25 0 19 1;
#X connect 27 0 26 0;
#X connect 29 0 30 0;
#X connect 30 0 41 1;
#X connect 32 0 39 0;
#X connect 34 0 33 0;
#X connect 35 0 40 0;
#X connect 36 0 37 0;
#X connect 38 0 59 0;
#X connect 39 0 38 1;
#X connect 40 0 38 0;
#X connect 41 0 31 0;
#X connect 43 0 48 0;
#X connect 44 0 49 0;
#X connect 45 0 50 0;
#X connect 46 0 51 0;
#X connect 47 0 52 0;
#X connect 53 0 0 0;
#X connect 53 1 1 0;
#X connect 53 2 2 0;
#X connect 53 3 5 0;
#X connect 54 0 56 0;
#X connect 54 1 55 0;
#X connect 56 0 57 0;
#X connect 57 0 58 0;
#X connect 58 0 11 0;
#X connect 59 0 11 0;
#X connect 60 0 58 1;
#X connect 60 0 67 0;
#X connect 61 0 59 1;
#X connect 61 0 64 0;
#X connect 62 0 61 0;
#X connect 63 0 60 0;
#X connect 64 0 65 0;
#X connect 65 0 66 0;
#X connect 67 0 68 0;
#X connect 68 0 69 0;
