#N canvas 518 224 934 484 12;
#X obj 77 226 hilbert~;
#X obj 77 251 complex-mod~;
#N canvas 0 22 450 278 (subpatch) 0;
#X array array1 69868 float 2;
#X coords 0 1 69868 -1 200 140 1;
#X restore 643 149 graph;
#X obj 642 109 soundfiler;
#X obj 77 167 tabplay~ array1;
#X obj 77 119 bng 19 250 50 0 empty empty empty 0 -10 0 12 #fcfcfc #000000 #000000;
#X obj 77 295 output~;
#X floatatom 225 225 5 0 0 0 - - - 0;
#X obj 225 201 line;
#X obj 28 195 *~ 0.5;
#X obj 77 196 rev3~ 88 90 4000 90;
#X msg 224 176 0 \, 150 500;
#X text 235 336 A very basic experiment with an acoustic pitch bender. Uses a SSB modulator;
#X msg 309 175 0 \, -150 500;
#X obj 112 119 bng 19 250 50 0 empty empty empty 0 -10 0 12 #fcfcfc #000000 #000000;
#X text 55 118 up;
#X text 135 118 down;
#X msg 642 81 read -resize ../D#4.aiff array1;
#X obj 179 119 bng 19 250 50 0 empty empty empty 0 -10 0 12 #fcfcfc #000000 #000000;
#X text 210 119 upper mordent;
#X obj 485 150 del 200;
#X msg 486 174 100 \, 0 200;
#X msg 405 173 0 \, 100 200;
#X connect 0 0 1 0;
#X connect 0 1 1 1;
#X connect 1 0 6 0;
#X connect 1 0 6 1;
#X connect 4 0 9 0;
#X connect 4 0 10 0;
#X connect 4 1 10 1;
#X connect 5 0 4 0;
#X connect 5 0 11 0;
#X connect 7 0 1 2;
#X connect 8 0 7 0;
#X connect 9 0 0 0;
#X connect 10 0 0 0;
#X connect 10 1 0 0;
#X connect 11 0 8 0;
#X connect 13 0 8 0;
#X connect 14 0 13 0;
#X connect 14 0 4 0;
#X connect 17 0 3 0;
#X connect 18 0 22 0;
#X connect 18 0 4 0;
#X connect 18 0 20 0;
#X connect 20 0 21 0;
#X connect 21 0 8 0;
#X connect 22 0 8 0;
