#N canvas 253 101 788 585 12;
#X obj 80 60 r playback1;
#X obj 80 267 throw~ out;
#X obj 131 331 catch~ out;
#X obj 213 267 throw~ out;
#X obj 351 267 throw~ out;
#X obj 213 60 r playback2;
#X obj 499 268 throw~ out;
#X obj 351 60 r playback3;
#X obj 499 60 r playback4;
#X text 132 12 sample playback \, all samples will be played back from disk \, not RAM \, open file first \, then start;
#X obj 220 379 output~;
#X msg 351 411 \; playback1 stop \;;
#X text 349 332 test;
#X obj 213 104 readsf~;
#X obj 80 104 readsf~;
#X obj 351 104 readsf~;
#X obj 499 104 readsf~;
#X msg 351 358 \; playback1 open ../test/Bach.wav \; playback1 start \;;
#X obj 36 402 pitchbend-tape;
#X floatatom 36 379 5 0 0 0 - - - 0;
#X obj 36 355 line;
#X obj 36 330 r bend-steps;
#X obj 36 505 s~ sampler;
#X obj 220 332 r~ sampler;
#X obj 50 429 r~ pitchbending;
#X text 59 451 This comes from our pitchbending subpatch;
#X obj 80 241 *~;
#X msg 98 191 \$1 50;
#X obj 98 215 line~;
#X obj 98 144 r playback1-vol;
#X floatatom 98 168 5 0 0 0 - - - 0;
#X obj 213 241 *~;
#X msg 231 191 \$1 50;
#X obj 231 215 line~;
#X floatatom 231 168 5 0 0 0 - - - 0;
#X obj 351 241 *~;
#X msg 369 191 \$1 50;
#X obj 369 215 line~;
#X floatatom 369 168 5 0 0 0 - - - 0;
#X obj 499 241 *~;
#X msg 517 191 \$1 50;
#X obj 517 215 line~;
#X floatatom 517 168 5 0 0 0 - - - 0;
#X obj 231 144 r playback2-vol;
#X obj 369 144 r playback3-vol;
#X obj 517 144 r playback4-vol;
#X msg 611 365 \; playback1-vol 1 \; playback2-vol 1 \; playback3-vol 1 \; playback4-vol 1 \;;
#X obj 610 341 loadbang;
#X obj 63 476 r~ synthbender;
#X text 118 497 This comes from our synthbender subpatch;
#X connect 0 0 14 0;
#X connect 2 0 18 1;
#X connect 5 0 13 0;
#X connect 7 0 15 0;
#X connect 8 0 16 0;
#X connect 13 0 31 0;
#X connect 14 0 26 0;
#X connect 15 0 35 0;
#X connect 16 0 39 0;
#X connect 18 0 22 0;
#X connect 19 0 18 0;
#X connect 20 0 19 0;
#X connect 21 0 20 0;
#X connect 23 0 10 0;
#X connect 23 0 10 1;
#X connect 24 0 22 0;
#X connect 26 0 1 0;
#X connect 27 0 28 0;
#X connect 28 0 26 1;
#X connect 29 0 30 0;
#X connect 30 0 27 0;
#X connect 31 0 3 0;
#X connect 32 0 33 0;
#X connect 33 0 31 1;
#X connect 34 0 32 0;
#X connect 35 0 4 0;
#X connect 36 0 37 0;
#X connect 37 0 35 1;
#X connect 38 0 36 0;
#X connect 39 0 6 0;
#X connect 40 0 41 0;
#X connect 41 0 39 1;
#X connect 42 0 40 0;
#X connect 43 0 34 0;
#X connect 44 0 38 0;
#X connect 45 0 42 0;
#X connect 47 0 46 0;
#X connect 48 0 22 0;
