#N canvas 444 61 1014 738 12;
#X obj 80 60 r playback1;
#X obj 80 387 throw~ out;
#X obj 131 451 catch~ out;
#X text 132 12 sample playback \, all samples will be played back from disk \, not RAM \, open file first \, then start;
#X obj 80 224 readsf~;
#X floatatom 36 499 5 0 0 0 - - - 0;
#X obj 36 475 line;
#X obj 36 450 r bend-steps;
#X obj 36 665 s~ sampler;
#X obj 50 549 r~ pitchbending;
#X text 59 571 This comes from our pitchbending subpatch;
#X obj 80 361 *~;
#X obj 98 335 line~;
#X obj 98 264 r playback1-vol;
#X floatatom 98 288 5 0 0 0 - - - 0;
#X obj 644 445 loadbang;
#X obj 63 596 r~ synthbender;
#X text 118 617 This comes from our synthbender subpatch;
#X obj 98 311 pack 0 50;
#X obj 80 111 t b b;
#X obj 80 162 del 50;
#X msg 80 186 start;
#X msg 182 149 0 500;
#X obj 150 113 t b b;
#X obj 150 173 del 500;
#X msg 150 197 stop;
#X obj 240 387 throw~ out;
#X obj 240 224 readsf~;
#X obj 240 361 *~;
#X obj 258 335 line~;
#X floatatom 258 288 5 0 0 0 - - - 0;
#X obj 258 311 pack 0 50;
#X obj 240 111 t b b;
#X obj 240 162 del 50;
#X msg 240 186 start;
#X msg 342 149 0 500;
#X obj 310 113 t b b;
#X obj 310 173 del 500;
#X msg 310 197 stop;
#X obj 240 89 route start stop;
#X obj 240 60 r playback2;
#X obj 258 264 r playback2-vol;
#X obj 419 387 throw~ out;
#X obj 419 224 readsf~;
#X obj 419 361 *~;
#X obj 437 335 line~;
#X floatatom 437 288 5 0 0 0 - - - 0;
#X obj 437 311 pack 0 50;
#X obj 419 111 t b b;
#X obj 419 162 del 50;
#X msg 419 186 start;
#X msg 521 149 0 500;
#X obj 489 113 t b b;
#X obj 489 173 del 500;
#X msg 489 197 stop;
#X obj 419 89 route start stop;
#X obj 419 60 r playback3;
#X obj 437 264 r playback3-vol;
#X obj 127 643 r~ playback-ssb;
#X text 155 665 This comes from our reverb/ssb subpatch;
#X obj 244 488 s~ to-ssb;
#X obj 825 443 r playback-reset;
#X obj 593 225 readsf~;
#X obj 593 362 *~;
#X obj 611 336 line~;
#X floatatom 611 289 5 0 0 0 - - - 0;
#X obj 611 312 pack 0 50;
#X obj 593 112 t b b;
#X obj 593 163 del 50;
#X msg 593 187 start;
#X msg 695 150 0 500;
#X obj 663 114 t b b;
#X obj 663 174 del 500;
#X msg 663 198 stop;
#X obj 593 90 route start stop;
#X obj 611 265 r playback3-vol;
#X obj 593 61 r playback4;
#X obj 593 388 throw~ out-ssb;
#X obj 244 455 catch~ out-ssb;
#X obj 426 599 dac~ 1 2;
#X obj 444 481 r output-all-stereo;
#X obj 426 571 *~;
#X obj 444 549 line~;
#X msg 444 525 \$1 50;
#X text 464 621 We'll add a little of everything in chs 1 & 2;
#X floatatom 444 505 5 0 0 0 - - - 0;
#X obj 80 89 route start stop;
#N canvas 63 102 1019 747 plackback-extended 0;
#X obj 64 394 throw~ out;
#X obj 64 231 readsf~;
#X obj 64 368 *~;
#X obj 82 342 line~;
#X floatatom 82 295 5 0 0 0 - - - 0;
#X obj 82 318 pack 0 50;
#X obj 64 118 t b b;
#X obj 64 169 del 50;
#X msg 64 193 start;
#X msg 166 156 0 500;
#X obj 134 120 t b b;
#X obj 134 180 del 500;
#X msg 134 204 stop;
#X obj 64 96 route start stop;
#X obj 234 394 throw~ out;
#X obj 234 231 readsf~;
#X obj 234 368 *~;
#X obj 252 342 line~;
#X floatatom 252 295 5 0 0 0 - - - 0;
#X obj 252 318 pack 0 50;
#X obj 234 118 t b b;
#X obj 234 169 del 50;
#X msg 234 193 start;
#X msg 336 156 0 500;
#X obj 304 120 t b b;
#X obj 304 180 del 500;
#X msg 304 204 stop;
#X obj 234 96 route start stop;
#X obj 394 394 throw~ out;
#X obj 394 231 readsf~;
#X obj 394 368 *~;
#X obj 412 342 line~;
#X floatatom 412 295 5 0 0 0 - - - 0;
#X obj 412 318 pack 0 50;
#X obj 394 118 t b b;
#X obj 394 169 del 50;
#X msg 394 193 start;
#X msg 496 156 0 500;
#X obj 464 120 t b b;
#X obj 464 180 del 500;
#X msg 464 204 stop;
#X obj 394 96 route start stop;
#X obj 64 67 r playback1a;
#X obj 234 67 r playback2a;
#X obj 394 67 r playback3a;
#X obj 776 223 r playback-reset;
#X msg 776 247 \; playback1a stop \; playback2a stop \; playback3a stop \; playback1a-vol 1 \; playback2a-vol 1 \; playback3a-vol 1 \;;
#X obj 82 271 r playback1a-vol;
#X obj 252 271 r playback2a-vol;
#X obj 412 271 r playback3a-vol;
#X text 52 431 I am adding these so that I don't have to worry about having too many audio files playing at once. There are times where some audio files play for quite a long time \, and if you open a new audio file with the same readsf~ it will click or pop. So adding more playback engines doesn't bother me \, hearing clicks and pops does bother me. : );
#X msg 96 143 0.9;
#X msg 266 143 0.9;
#X msg 426 143 0.9;
#X connect 1 0 2 0;
#X connect 2 0 0 0;
#X connect 3 0 2 1;
#X connect 4 0 5 0;
#X connect 5 0 3 0;
#X connect 6 0 7 0;
#X connect 6 1 51 0;
#X connect 7 0 8 0;
#X connect 8 0 1 0;
#X connect 9 0 3 0;
#X connect 10 0 11 0;
#X connect 10 1 9 0;
#X connect 11 0 12 0;
#X connect 12 0 1 0;
#X connect 13 0 6 0;
#X connect 13 1 10 0;
#X connect 13 2 1 0;
#X connect 15 0 16 0;
#X connect 16 0 14 0;
#X connect 17 0 16 1;
#X connect 18 0 19 0;
#X connect 19 0 17 0;
#X connect 20 0 21 0;
#X connect 20 1 52 0;
#X connect 21 0 22 0;
#X connect 22 0 15 0;
#X connect 23 0 17 0;
#X connect 24 0 25 0;
#X connect 24 1 23 0;
#X connect 25 0 26 0;
#X connect 26 0 15 0;
#X connect 27 0 20 0;
#X connect 27 1 24 0;
#X connect 27 2 15 0;
#X connect 29 0 30 0;
#X connect 30 0 28 0;
#X connect 31 0 30 1;
#X connect 32 0 33 0;
#X connect 33 0 31 0;
#X connect 34 0 35 0;
#X connect 34 1 53 0;
#X connect 35 0 36 0;
#X connect 36 0 29 0;
#X connect 37 0 31 0;
#X connect 38 0 39 0;
#X connect 38 1 37 0;
#X connect 39 0 40 0;
#X connect 40 0 29 0;
#X connect 41 0 34 0;
#X connect 41 1 38 0;
#X connect 41 2 29 0;
#X connect 42 0 13 0;
#X connect 43 0 27 0;
#X connect 44 0 41 0;
#X connect 45 0 46 0;
#X connect 47 0 4 0;
#X connect 48 0 18 0;
#X connect 49 0 32 0;
#X connect 51 0 4 0;
#X connect 52 0 18 0;
#X connect 53 0 32 0;
#X restore 766 106 pd plackback-extended;
#X msg 825 471 \; playback1 stop \; playback2 stop \; playback3 stop \; playback4 stop \; bend-steps 0 \; playback1-vol 1 \; playback2-vol 1 \; playback3-vol 1 \;;
#X msg 644 472 \; playback1-vol 1 \; playback2-vol 1 \; playback3-vol 1 \; playback1a-vol 1 \; playback2a-vol 1 \; playback3a-vol 1 \; output-all-stereo 0.45 \;;
#X obj 426 428 r~ synthbender;
#X obj 442 452 r~ pitchbending;
#X obj 36 522 pitchbend-tape-playback;
#X msg 112 136 0.9;
#X msg 272 136 0.9;
#X msg 451 136 0.9;
#X msg 625 137 0.9;
#X connect 0 0 86 0;
#X connect 2 0 92 1;
#X connect 4 0 11 0;
#X connect 5 0 92 0;
#X connect 6 0 5 0;
#X connect 7 0 6 0;
#X connect 9 0 8 0;
#X connect 11 0 1 0;
#X connect 12 0 11 1;
#X connect 13 0 14 0;
#X connect 14 0 18 0;
#X connect 15 0 89 0;
#X connect 16 0 8 0;
#X connect 18 0 12 0;
#X connect 19 0 20 0;
#X connect 19 1 93 0;
#X connect 20 0 21 0;
#X connect 21 0 4 0;
#X connect 22 0 12 0;
#X connect 23 0 24 0;
#X connect 23 1 22 0;
#X connect 24 0 25 0;
#X connect 25 0 4 0;
#X connect 27 0 28 0;
#X connect 28 0 26 0;
#X connect 29 0 28 1;
#X connect 30 0 31 0;
#X connect 31 0 29 0;
#X connect 32 0 33 0;
#X connect 32 1 94 0;
#X connect 33 0 34 0;
#X connect 34 0 27 0;
#X connect 35 0 29 0;
#X connect 36 0 37 0;
#X connect 36 1 35 0;
#X connect 37 0 38 0;
#X connect 38 0 27 0;
#X connect 39 0 32 0;
#X connect 39 1 36 0;
#X connect 39 2 27 0;
#X connect 40 0 39 0;
#X connect 41 0 30 0;
#X connect 43 0 44 0;
#X connect 44 0 42 0;
#X connect 45 0 44 1;
#X connect 46 0 47 0;
#X connect 47 0 45 0;
#X connect 48 0 49 0;
#X connect 48 1 95 0;
#X connect 49 0 50 0;
#X connect 50 0 43 0;
#X connect 51 0 45 0;
#X connect 52 0 53 0;
#X connect 52 1 51 0;
#X connect 53 0 54 0;
#X connect 54 0 43 0;
#X connect 55 0 48 0;
#X connect 55 1 52 0;
#X connect 55 2 43 0;
#X connect 56 0 55 0;
#X connect 57 0 46 0;
#X connect 58 0 8 0;
#X connect 61 0 88 0;
#X connect 62 0 63 0;
#X connect 63 0 77 0;
#X connect 64 0 63 1;
#X connect 65 0 66 0;
#X connect 66 0 64 0;
#X connect 67 0 68 0;
#X connect 67 1 96 0;
#X connect 68 0 69 0;
#X connect 69 0 62 0;
#X connect 70 0 64 0;
#X connect 71 0 72 0;
#X connect 71 1 70 0;
#X connect 72 0 73 0;
#X connect 73 0 62 0;
#X connect 74 0 67 0;
#X connect 74 1 71 0;
#X connect 74 2 62 0;
#X connect 75 0 65 0;
#X connect 76 0 74 0;
#X connect 78 0 60 0;
#X connect 80 0 85 0;
#X connect 81 0 79 0;
#X connect 81 0 79 1;
#X connect 82 0 81 1;
#X connect 83 0 82 0;
#X connect 85 0 83 0;
#X connect 86 0 19 0;
#X connect 86 1 23 0;
#X connect 86 2 4 0;
#X connect 90 0 81 0;
#X connect 91 0 81 0;
#X connect 92 0 8 0;
#X connect 93 0 14 0;
#X connect 94 0 30 0;
#X connect 95 0 46 0;
#X connect 96 0 65 0;
