#N canvas 444 61 1014 692 12;
#X obj 80 60 r playback1;
#X obj 80 387 throw~ out;
#X obj 131 451 catch~ out;
#X text 132 12 sample playback \, all samples will be played back from disk \, not RAM \, open file first \, then start;
#X obj 376 502 output~;
#X obj 80 224 readsf~;
#X obj 36 522 pitchbend-tape;
#X floatatom 36 499 5 0 0 0 - - - 0;
#X obj 36 475 line;
#X obj 36 450 r bend-steps;
#X obj 36 665 s~ sampler;
#X obj 376 455 r~ sampler;
#X obj 50 549 r~ pitchbending;
#X text 59 571 This comes from our pitchbending subpatch;
#X obj 80 361 *~;
#X obj 98 335 line~;
#X obj 98 264 r playback1-vol;
#X floatatom 98 288 5 0 0 0 - - - 0;
#X obj 504 455 loadbang;
#X obj 63 596 r~ synthbender;
#X text 118 617 This comes from our synthbender subpatch;
#X obj 98 311 pack 0 50;
#X msg 112 136 1;
#X obj 80 111 t b b;
#X obj 80 162 del 50;
#X msg 80 186 start;
#X msg 182 149 0 500;
#X obj 150 113 t b b;
#X obj 150 173 del 500;
#X msg 150 197 stop;
#X obj 80 89 route start stop;
#X obj 250 387 throw~ out;
#X obj 250 224 readsf~;
#X obj 250 361 *~;
#X obj 268 335 line~;
#X floatatom 268 288 5 0 0 0 - - - 0;
#X obj 268 311 pack 0 50;
#X msg 282 136 1;
#X obj 250 111 t b b;
#X obj 250 162 del 50;
#X msg 250 186 start;
#X msg 352 149 0 500;
#X obj 320 113 t b b;
#X obj 320 173 del 500;
#X msg 320 197 stop;
#X obj 250 89 route start stop;
#X obj 250 60 r playback2;
#X obj 268 264 r playback2-vol;
#X obj 429 387 throw~ out;
#X obj 429 224 readsf~;
#X obj 429 361 *~;
#X obj 447 335 line~;
#X floatatom 447 288 5 0 0 0 - - - 0;
#X obj 447 311 pack 0 50;
#X msg 461 136 1;
#X obj 429 111 t b b;
#X obj 429 162 del 50;
#X msg 429 186 start;
#X msg 531 149 0 500;
#X obj 499 113 t b b;
#X obj 499 173 del 500;
#X msg 499 197 stop;
#X obj 429 89 route start stop;
#X obj 429 60 r playback3;
#X obj 447 264 r playback3-vol;
#X msg 504 482 \; playback1-vol 1 \; playback2-vol 1 \; playback3-vol 1 \;;
#X obj 36 689;
#X obj 127 643 r~ playback-ssb;
#X text 155 665 This comes from our reverb/ssb subpatch;
#X obj 244 488 s~ to-ssb;
#X obj 645 453 r playback-reset;
#X obj 603 225 readsf~;
#X obj 603 362 *~;
#X obj 621 336 line~;
#X floatatom 621 289 5 0 0 0 - - - 0;
#X obj 621 312 pack 0 50;
#X msg 635 137 1;
#X obj 603 112 t b b;
#X obj 603 163 del 50;
#X msg 603 187 start;
#X msg 705 150 0 500;
#X obj 673 114 t b b;
#X obj 673 174 del 500;
#X msg 673 198 stop;
#X obj 603 90 route start stop;
#X obj 621 265 r playback3-vol;
#X obj 603 61 r playback4;
#X obj 603 388 throw~ out-ssb;
#X obj 244 455 catch~ out-ssb;
#X msg 645 481 \; playback1 stop \; playback2 stop \; playback3 stop \; bend-steps 0 \; playback1-vol 1 \; playback2-vol 1 \; playback3-vol 1 \;;
#X connect 0 0 30 0;
#X connect 2 0 6 1;
#X connect 5 0 14 0;
#X connect 6 0 10 0;
#X connect 7 0 6 0;
#X connect 8 0 7 0;
#X connect 9 0 8 0;
#X connect 11 0 4 0;
#X connect 11 0 4 1;
#X connect 12 0 10 0;
#X connect 14 0 1 0;
#X connect 15 0 14 1;
#X connect 16 0 17 0;
#X connect 17 0 21 0;
#X connect 18 0 65 0;
#X connect 19 0 10 0;
#X connect 21 0 15 0;
#X connect 22 0 17 0;
#X connect 23 0 24 0;
#X connect 23 1 22 0;
#X connect 24 0 25 0;
#X connect 25 0 5 0;
#X connect 26 0 15 0;
#X connect 27 0 28 0;
#X connect 27 1 26 0;
#X connect 28 0 29 0;
#X connect 29 0 5 0;
#X connect 30 0 23 0;
#X connect 30 1 27 0;
#X connect 30 2 5 0;
#X connect 32 0 33 0;
#X connect 33 0 31 0;
#X connect 34 0 33 1;
#X connect 35 0 36 0;
#X connect 36 0 34 0;
#X connect 37 0 35 0;
#X connect 38 0 39 0;
#X connect 38 1 37 0;
#X connect 39 0 40 0;
#X connect 40 0 32 0;
#X connect 41 0 34 0;
#X connect 42 0 43 0;
#X connect 42 1 41 0;
#X connect 43 0 44 0;
#X connect 44 0 32 0;
#X connect 45 0 38 0;
#X connect 45 1 42 0;
#X connect 45 2 32 0;
#X connect 46 0 45 0;
#X connect 47 0 35 0;
#X connect 49 0 50 0;
#X connect 50 0 48 0;
#X connect 51 0 50 1;
#X connect 52 0 53 0;
#X connect 53 0 51 0;
#X connect 54 0 52 0;
#X connect 55 0 56 0;
#X connect 55 1 54 0;
#X connect 56 0 57 0;
#X connect 57 0 49 0;
#X connect 58 0 51 0;
#X connect 59 0 60 0;
#X connect 59 1 58 0;
#X connect 60 0 61 0;
#X connect 61 0 49 0;
#X connect 62 0 55 0;
#X connect 62 1 59 0;
#X connect 62 2 49 0;
#X connect 63 0 62 0;
#X connect 64 0 52 0;
#X connect 67 0 10 0;
#X connect 70 0 89 0;
#X connect 71 0 72 0;
#X connect 72 0 87 0;
#X connect 73 0 72 1;
#X connect 74 0 75 0;
#X connect 75 0 73 0;
#X connect 76 0 74 0;
#X connect 77 0 78 0;
#X connect 77 1 76 0;
#X connect 78 0 79 0;
#X connect 79 0 71 0;
#X connect 80 0 73 0;
#X connect 81 0 82 0;
#X connect 81 1 80 0;
#X connect 82 0 83 0;
#X connect 83 0 71 0;
#X connect 84 0 77 0;
#X connect 84 1 81 0;
#X connect 84 2 71 0;
#X connect 85 0 74 0;
#X connect 86 0 84 0;
#X connect 88 0 69 0;
