#N canvas 253 101 685 508 12;
#X obj 130 149 r playback1;
#X obj 130 217 throw~ out;
#X obj 131 307 catch~ out;
#X obj 233 217 throw~ out;
#X obj 331 217 throw~ out;
#X obj 233 149 r playback2;
#X obj 429 217 throw~ out;
#X obj 331 149 r playback3;
#X obj 429 149 r playback4;
#X text 122 91 sample playback \, all samples will be played back from disk \, not RAM \, open file first \, then start;
#X obj 286 366 output~;
#X msg 421 409 \; playback1 stop \;;
#X text 419 330 test;
#X obj 233 193 readsf~;
#X obj 130 193 readsf~;
#X obj 331 193 readsf~;
#X obj 429 193 readsf~;
#X msg 421 356 \; playback1 open ../test/Bach.wav \; playback1 start \;;
#X obj 36 372 pitchbend-tape;
#X floatatom 35 342 5 0 0 0 - - - 0;
#X obj 35 314 line;
#X obj 35 270 r bend-steps;
#X obj 36 405 s~ sampler;
#X connect 0 0 14 0;
#X connect 2 0 10 0;
#X connect 2 0 10 1;
#X connect 2 0 18 1;
#X connect 5 0 13 0;
#X connect 7 0 15 0;
#X connect 8 0 16 0;
#X connect 13 0 3 0;
#X connect 14 0 1 0;
#X connect 15 0 4 0;
#X connect 16 0 6 0;
#X connect 18 0 22 0;
#X connect 19 0 18 0;
#X connect 20 0 19 0;
#X connect 21 0 20 0;
