#N canvas 253 101 660 478 12;
#X obj 130 149 r playback1;
#X obj 130 217 throw~ out;
#X obj 161 347 catch~ out;
#X obj 233 217 throw~ out;
#X obj 331 217 throw~ out;
#X obj 233 149 r playback2;
#X obj 429 217 throw~ out;
#X obj 331 149 r playback3;
#X obj 429 149 r playback4;
#X obj 161 371 outlet~;
#X text 122 91 sample playback \, all samples will be played back from disk \, not RAM \, open file first \, then start;
#X obj 282 400 output~;
#X msg 421 356 \; playback1 open ../Bach.wav \; playback1 start \;;
#X msg 421 409 \; playback1 stop \;;
#X text 419 330 test;
#X obj 233 193 readsf~;
#X obj 130 193 readsf~;
#X obj 331 193 readsf~;
#X obj 429 193 readsf~;
#X connect 0 0 16 0;
#X connect 2 0 9 0;
#X connect 2 0 11 0;
#X connect 2 0 11 1;
#X connect 5 0 15 0;
#X connect 7 0 17 0;
#X connect 8 0 18 0;
#X connect 15 0 3 0;
#X connect 16 0 1 0;
#X connect 17 0 4 0;
#X connect 18 0 6 0;
