#N canvas 253 101 1014 692 12;
#X obj 80 60 r playback1;
#X obj 80 387 throw~ out;
#X obj 131 451 catch~ out;
#X text 132 12 sample playback \, all samples will be played back from disk \, not RAM \, open file first \, then start;
#X obj 220 499 output~;
#X msg 351 531 \; playback1 stop \;;
#X text 349 452 test;
#X obj 80 224 readsf~;
#X msg 351 478 \; playback1 open ../test/Bach.wav \; playback1 start \;;
#X obj 36 522 pitchbend-tape;
#X floatatom 36 499 5 0 0 0 - - - 0;
#X obj 36 475 line;
#X obj 36 450 r bend-steps;
#X obj 36 625 s~ sampler;
#X obj 220 452 r~ sampler;
#X obj 50 549 r~ pitchbending;
#X text 59 571 This comes from our pitchbending subpatch;
#X obj 80 361 *~;
#X obj 98 335 line~;
#X obj 98 264 r playback1-vol;
#X floatatom 98 288 5 0 0 0 - - - 0;
#X obj 610 461 loadbang;
#X obj 63 596 r~ synthbender;
#X text 118 617 This comes from our synthbender subpatch;
#X obj 98 311 pack 0 50;
#X msg 112 136 1;
#X obj 80 111 t b b;
#X obj 80 162 del 50;
#X msg 80 186 start;
#X msg 182 149 0 500;
#X obj 150 113 t b b;
#X obj 150 173 del 500;
#X msg 150 197 stop;
#X obj 80 89 route start stop;
#X obj 250 387 throw~ out;
#X obj 250 224 readsf~;
#X obj 250 361 *~;
#X obj 268 335 line~;
#X floatatom 268 288 5 0 0 0 - - - 0;
#X obj 268 311 pack 0 50;
#X msg 282 136 1;
#X obj 250 111 t b b;
#X obj 250 162 del 50;
#X msg 250 186 start;
#X msg 352 149 0 500;
#X obj 320 113 t b b;
#X obj 320 173 del 500;
#X msg 320 197 stop;
#X obj 250 89 route start stop;
#X obj 250 60 r playback2;
#X obj 268 264 r playback2-vol;
#X msg 611 485 \; playback1-vol 1 \; playback2-vol 1 \;;
#X connect 0 0 33 0;
#X connect 2 0 9 1;
#X connect 7 0 17 0;
#X connect 9 0 13 0;
#X connect 10 0 9 0;
#X connect 11 0 10 0;
#X connect 12 0 11 0;
#X connect 14 0 4 0;
#X connect 14 0 4 1;
#X connect 15 0 13 0;
#X connect 17 0 1 0;
#X connect 18 0 17 1;
#X connect 19 0 20 0;
#X connect 20 0 24 0;
#X connect 21 0 51 0;
#X connect 22 0 13 0;
#X connect 24 0 18 0;
#X connect 25 0 20 0;
#X connect 26 0 27 0;
#X connect 26 1 25 0;
#X connect 27 0 28 0;
#X connect 28 0 7 0;
#X connect 29 0 18 0;
#X connect 30 0 31 0;
#X connect 30 1 29 0;
#X connect 31 0 32 0;
#X connect 32 0 7 0;
#X connect 33 0 26 0;
#X connect 33 1 30 0;
#X connect 33 2 7 0;
#X connect 35 0 36 0;
#X connect 36 0 34 0;
#X connect 37 0 36 1;
#X connect 38 0 39 0;
#X connect 39 0 37 0;
#X connect 40 0 38 0;
#X connect 41 0 42 0;
#X connect 41 1 40 0;
#X connect 42 0 43 0;
#X connect 43 0 35 0;
#X connect 44 0 37 0;
#X connect 45 0 46 0;
#X connect 45 1 44 0;
#X connect 46 0 47 0;
#X connect 47 0 35 0;
#X connect 48 0 41 0;
#X connect 48 1 45 0;
#X connect 48 2 35 0;
#X connect 49 0 48 0;
#X connect 50 0 38 0;
