#N canvas 663 25 820 477 12;
#N canvas 0 22 450 278 (subpatch) 0;
#X array sample 69868 float 2;
#X coords 0 1 69868 -1 200 140 1;
#X restore 560 235 graph;
#X obj 558 119 soundfiler;
#X floatatom 558 143 5 0 0 0 - - - 0;
#X obj 558 166 s size;
#X obj 59 156 synthbender;
#X obj 143 100 tabplay~ sample;
#X obj 143 74 bng 19 250 50 0 empty empty empty 0 -10 0 12 #fcfcfc #000000 #000000;
#X obj 143 204 output~;
#X obj 143 134 *~ 0.25;
#X text 195 394 Testing the combination of an acoustic marimba note and the synth bender. So far this sounds ok. Now have to test it with an actual marimba \, live.;
#X text 551 22 Try with different pitches;
#X obj 259 75 bng 19 250 50 0 empty empty empty 0 -10 0 12 #fcfcfc #000000 #000000;
#X text 274 183 bend up D#4;
#X text 411 181 bend down A#2;
#X msg 541 54 read -resize ../A#2.aiff sample;
#X msg 558 89 read -resize ../D#4.aiff sample;
#X obj 59 131 tgl 19 0 empty empty empty 0 -10 0 12 #fcfcfc #000000 #000000 0 1;
#X msg 262 206 \; bend 1.4 \; detectFreq 63 \; thresh 40 \; freqTime 1000 \; sustainTime 150 \; releaseTime 800 \; attack 0.9 \; attackTime 25 \;;
#X msg 394 206 \; bend 0.75 \; detectFreq 46 \; thresh 30 \; freqTime 2000 \; sustainTime 500 \; releaseTime 2000 \; attack 0.9 \; attackTime 25 \;;
#X connect 1 0 2 0;
#X connect 2 0 3 0;
#X connect 4 0 7 0;
#X connect 4 0 7 1;
#X connect 5 0 8 0;
#X connect 5 0 4 1;
#X connect 6 0 5 0;
#X connect 6 0 17 0;
#X connect 8 0 7 0;
#X connect 8 0 7 1;
#X connect 11 0 5 0;
#X connect 11 0 18 0;
#X connect 14 0 1 0;
#X connect 15 0 1 0;
#X connect 16 0 4 0;
