#N canvas 192 251 1038 593 12;
#X declare -path ./abstractions;
#X text 526 68 Much of the older sampler's used variable speed plaback to execute pitch bending. But since the essense of a marimba tone is sinusoidal \, I'm experimenting with using a simple synth to create a pitch bend. This could create the same effect when combined with sigmund~ and the acoustic sound of a marimba. This could be adapted for multiple pitches too \, but right now this would be used for single pitches.;
#X obj 526 29 declare -path ./abstractions;
#X obj 32 63 tgl 19 0 empty empty empty 0 -10 0 12 #fcfcfc #000000 #000000 0 1;
#X obj 183 36 inlet~;
#X obj 32 34 inlet;
#X obj 32 98 pitchdetection-multi, f 22;
#X obj 32 122 bng 19 250 50 0 empty empty empty 0 -10 0 12 #fcfcfc #000000 #000000;
#X obj 33 403 outlet~;
#X obj 523 262 r synthbender-reset;
#X msg 785 262 \; sustainTime 150 \; releaseTime 800 \; attack 0.9 \; attackTime 25 \;;
#N canvas 121 146 498 452 params 0;
#X obj 42 148 r freq;
#X obj 42 172 unpack 0 0 0 0 0 0, f 41;
#X obj 42 234 s freq1;
#X obj 100 234 s freq2;
#X obj 157 234 s freq3;
#X obj 215 234 s freq4;
#X obj 273 234 s freq5;
#X obj 331 234 s freq6;
#X floatatom 42 204 5 0 0 0 - - - 0;
#X floatatom 100 204 5 0 0 0 - - - 0;
#X floatatom 157 204 5 0 0 0 - - - 0;
#X floatatom 215 204 5 0 0 0 - - - 0;
#X floatatom 273 204 5 0 0 0 - - - 0;
#X floatatom 331 204 5 0 0 0 - - - 0;
#X obj 43 56 unpack 0 0 0 0 0 0, f 41;
#X floatatom 43 88 5 0 0 0 - - - 0;
#X floatatom 101 88 5 0 0 0 - - - 0;
#X floatatom 158 88 5 0 0 0 - - - 0;
#X floatatom 216 88 5 0 0 0 - - - 0;
#X floatatom 274 88 5 0 0 0 - - - 0;
#X floatatom 332 88 5 0 0 0 - - - 0;
#X obj 43 118 s bend1;
#X obj 101 118 s bend2;
#X obj 158 118 s bend3;
#X obj 216 118 s bend4;
#X obj 274 118 s bend5;
#X obj 332 118 s bend6;
#X obj 43 30 r bend;
#X obj 42 260 r freq;
#X msg 42 288 \; pitchdetection-list \$1 \$2 \$3 \$4 \$5 \$6 \;;
#X connect 0 0 1 0;
#X connect 1 0 8 0;
#X connect 1 1 9 0;
#X connect 1 2 10 0;
#X connect 1 3 11 0;
#X connect 1 4 12 0;
#X connect 1 5 13 0;
#X connect 8 0 2 0;
#X connect 9 0 3 0;
#X connect 10 0 4 0;
#X connect 11 0 5 0;
#X connect 12 0 6 0;
#X connect 13 0 7 0;
#X connect 14 0 15 0;
#X connect 14 1 16 0;
#X connect 14 2 17 0;
#X connect 14 3 18 0;
#X connect 14 4 19 0;
#X connect 14 5 20 0;
#X connect 15 0 21 0;
#X connect 16 0 22 0;
#X connect 17 0 23 0;
#X connect 18 0 24 0;
#X connect 19 0 25 0;
#X connect 20 0 26 0;
#X connect 27 0 14 0;
#X connect 28 0 29 0;
#X restore 523 237 pd params;
#N canvas 150 175 450 300 debounce 0;
#X obj 94 190 spigot;
#X obj 133 168 tgl 19 0 empty empty empty 0 -10 0 12 #fcfcfc #000000 #000000 0 1;
#X msg 133 145 0;
#X obj 167 122 del 800;
#X obj 94 118 t b b b;
#X msg 167 146 1;
#X obj 224 121 loadbang;
#X obj 213 87 r debounceTime;
#X obj 94 73 inlet;
#X obj 94 214 outlet;
#X connect 0 0 9 0;
#X connect 1 0 0 1;
#X connect 2 0 1 0;
#X connect 3 0 5 0;
#X connect 4 0 2 0;
#X connect 4 1 0 0;
#X connect 4 2 3 0;
#X connect 5 0 1 0;
#X connect 6 0 5 0;
#X connect 7 0 3 1;
#X connect 8 0 4 0;
#X restore 32 144 pd debounce;
#X obj 32 168 s go1;
#X obj 62 192 bng 19 250 50 0 empty empty empty 0 -10 0 12 #fcfcfc #000000 #000000;
#N canvas 150 175 450 300 debounce 0;
#X obj 94 190 spigot;
#X obj 133 168 tgl 19 0 empty empty empty 0 -10 0 12 #fcfcfc #000000 #000000 0 1;
#X msg 133 145 0;
#X obj 167 122 del 800;
#X obj 94 118 t b b b;
#X msg 167 146 1;
#X obj 224 121 loadbang;
#X obj 213 87 r debounceTime;
#X obj 94 73 inlet;
#X obj 94 214 outlet;
#X connect 0 0 9 0;
#X connect 1 0 0 1;
#X connect 2 0 1 0;
#X connect 3 0 5 0;
#X connect 4 0 2 0;
#X connect 4 1 0 0;
#X connect 4 2 3 0;
#X connect 5 0 1 0;
#X connect 6 0 5 0;
#X connect 7 0 3 1;
#X connect 8 0 4 0;
#X restore 62 217 pd debounce;
#X obj 62 241 s go2;
#X obj 92 269 bng 19 250 50 0 empty empty empty 0 -10 0 12 #fcfcfc #000000 #000000;
#N canvas 150 175 450 300 debounce 0;
#X obj 94 190 spigot;
#X obj 133 168 tgl 19 0 empty empty empty 0 -10 0 12 #fcfcfc #000000 #000000 0 1;
#X msg 133 145 0;
#X obj 167 122 del 800;
#X obj 94 118 t b b b;
#X msg 167 146 1;
#X obj 224 121 loadbang;
#X obj 213 87 r debounceTime;
#X obj 94 73 inlet;
#X obj 94 214 outlet;
#X connect 0 0 9 0;
#X connect 1 0 0 1;
#X connect 2 0 1 0;
#X connect 3 0 5 0;
#X connect 4 0 2 0;
#X connect 4 1 0 0;
#X connect 4 2 3 0;
#X connect 5 0 1 0;
#X connect 6 0 5 0;
#X connect 7 0 3 1;
#X connect 8 0 4 0;
#X restore 92 294 pd debounce;
#X obj 92 318 s go3;
#X obj 122 122 bng 19 250 50 0 empty empty empty 0 -10 0 12 #fcfcfc #000000 #000000;
#N canvas 150 175 450 300 debounce 0;
#X obj 94 190 spigot;
#X obj 133 168 tgl 19 0 empty empty empty 0 -10 0 12 #fcfcfc #000000 #000000 0 1;
#X msg 133 145 0;
#X obj 167 122 del 800;
#X obj 94 118 t b b b;
#X msg 167 146 1;
#X obj 224 121 loadbang;
#X obj 213 87 r debounceTime;
#X obj 94 73 inlet;
#X obj 94 214 outlet;
#X connect 0 0 9 0;
#X connect 1 0 0 1;
#X connect 2 0 1 0;
#X connect 3 0 5 0;
#X connect 4 0 2 0;
#X connect 4 1 0 0;
#X connect 4 2 3 0;
#X connect 5 0 1 0;
#X connect 6 0 5 0;
#X connect 7 0 3 1;
#X connect 8 0 4 0;
#X restore 122 144 pd debounce;
#X obj 152 192 bng 19 250 50 0 empty empty empty 0 -10 0 12 #fcfcfc #000000 #000000;
#N canvas 150 175 450 300 debounce 0;
#X obj 94 190 spigot;
#X obj 133 168 tgl 19 0 empty empty empty 0 -10 0 12 #fcfcfc #000000 #000000 0 1;
#X msg 133 145 0;
#X obj 167 122 del 800;
#X obj 94 118 t b b b;
#X msg 167 146 1;
#X obj 224 121 loadbang;
#X obj 213 87 r debounceTime;
#X obj 94 73 inlet;
#X obj 94 214 outlet;
#X connect 0 0 9 0;
#X connect 1 0 0 1;
#X connect 2 0 1 0;
#X connect 3 0 5 0;
#X connect 4 0 2 0;
#X connect 4 1 0 0;
#X connect 4 2 3 0;
#X connect 5 0 1 0;
#X connect 6 0 5 0;
#X connect 7 0 3 1;
#X connect 8 0 4 0;
#X restore 152 217 pd debounce;
#X obj 183 269 bng 19 250 50 0 empty empty empty 0 -10 0 12 #fcfcfc #000000 #000000;
#N canvas 150 175 450 300 debounce 0;
#X obj 94 190 spigot;
#X obj 133 168 tgl 19 0 empty empty empty 0 -10 0 12 #fcfcfc #000000 #000000 0 1;
#X msg 133 145 0;
#X obj 167 122 del 800;
#X obj 94 118 t b b b;
#X msg 167 146 1;
#X obj 224 121 loadbang;
#X obj 213 87 r debounceTime;
#X obj 94 73 inlet;
#X obj 94 214 outlet;
#X connect 0 0 9 0;
#X connect 1 0 0 1;
#X connect 2 0 1 0;
#X connect 3 0 5 0;
#X connect 4 0 2 0;
#X connect 4 1 0 0;
#X connect 4 2 3 0;
#X connect 5 0 1 0;
#X connect 6 0 5 0;
#X connect 7 0 3 1;
#X connect 8 0 4 0;
#X restore 183 294 pd debounce;
#X obj 122 168 s go4;
#X obj 152 241 s go5;
#X obj 183 318 s go6;
#N canvas 617 253 961 611 all-pitches 0;
#X obj 98 18 inlet~;
#X obj 153 18 inlet;
#X obj 47 533 outlet;
#X floatatom 98 146 8 0 0 0 - - - 0;
#X floatatom 202 146 7 0 0 0 - - - 0;
#X text 45 147 (MIDI);
#X text 163 145 (db);
#X obj 98 118 sigmund~ -hop 4096 pitch env evenness quality;
#X obj 98 89 *~;
#X obj 153 63 line~;
#X msg 153 41 \$1 50;
#X obj 98 199 + 0.5;
#X obj 98 223 i;
#X obj 202 209 dbtorms;
#X obj 29 294 i;
#X obj 60 294 + 1;
#X obj 91 294 % 6;
#X floatatom 29 318 5 0 0 0 - - - 0;
#X obj 65 357 pack 0 0 0;
#X obj 29 271 t b;
#X obj 29 248 change;
#X obj 65 412 unpack 0 0;
#X floatatom 65 435 5 0 0 0 - - - 0;
#X floatatom 132 434 5 0 0 0 - - - 0;
#X obj 65 456 s freq1;
#X obj 65 384 route 0 1 2 3 4 5;
#X floatatom 202 233 5 0 0 0 - - - 0;
#X obj 132 456 s attack;
#X obj 47 485 t b;
#X obj 98 169 moses 0;
#X obj 204 412 unpack 0 0;
#X floatatom 204 435 5 0 0 0 - - - 0;
#X floatatom 271 434 5 0 0 0 - - - 0;
#X obj 271 456 s attack;
#X obj 204 456 s freq2;
#X obj 195 532 outlet;
#X obj 195 484 t b;
#X obj 344 412 unpack 0 0;
#X floatatom 344 435 5 0 0 0 - - - 0;
#X floatatom 411 434 5 0 0 0 - - - 0;
#X obj 411 456 s attack;
#X obj 483 412 unpack 0 0;
#X floatatom 483 435 5 0 0 0 - - - 0;
#X floatatom 550 434 5 0 0 0 - - - 0;
#X obj 550 456 s attack;
#X obj 344 456 s freq3;
#X obj 483 457 s freq4;
#X obj 335 532 outlet;
#X obj 335 484 t b;
#X obj 475 532 outlet;
#X obj 475 484 t b;
#X obj 624 412 unpack 0 0;
#X floatatom 624 435 5 0 0 0 - - - 0;
#X floatatom 691 434 5 0 0 0 - - - 0;
#X obj 691 456 s attack;
#X obj 763 412 unpack 0 0;
#X floatatom 763 435 5 0 0 0 - - - 0;
#X floatatom 830 434 5 0 0 0 - - - 0;
#X obj 830 456 s attack;
#X obj 624 456 s freq5;
#X obj 763 457 s freq6;
#X obj 615 532 outlet;
#X obj 615 484 t b;
#X obj 755 532 outlet;
#X obj 755 484 t b;
#X obj 202 179 moses 50;
#X obj 255 154 r synthbender-threshold;
#X connect 0 0 8 0;
#X connect 1 0 10 0;
#X connect 3 0 29 0;
#X connect 4 0 65 0;
#X connect 7 0 3 0;
#X connect 7 1 4 0;
#X connect 8 0 7 0;
#X connect 9 0 8 1;
#X connect 10 0 9 0;
#X connect 11 0 12 0;
#X connect 12 0 18 1;
#X connect 12 0 20 0;
#X connect 13 0 26 0;
#X connect 14 0 15 0;
#X connect 14 0 17 0;
#X connect 15 0 16 0;
#X connect 16 0 14 1;
#X connect 17 0 18 0;
#X connect 18 0 25 0;
#X connect 19 0 14 0;
#X connect 20 0 19 0;
#X connect 21 0 22 0;
#X connect 21 1 23 0;
#X connect 22 0 24 0;
#X connect 22 0 28 0;
#X connect 23 0 27 0;
#X connect 25 0 21 0;
#X connect 25 1 30 0;
#X connect 25 2 37 0;
#X connect 25 3 41 0;
#X connect 25 4 51 0;
#X connect 25 5 55 0;
#X connect 26 0 18 2;
#X connect 28 0 2 0;
#X connect 29 1 11 0;
#X connect 30 0 31 0;
#X connect 30 1 32 0;
#X connect 31 0 34 0;
#X connect 31 0 36 0;
#X connect 32 0 33 0;
#X connect 36 0 35 0;
#X connect 37 0 38 0;
#X connect 37 1 39 0;
#X connect 38 0 45 0;
#X connect 38 0 48 0;
#X connect 39 0 40 0;
#X connect 41 0 42 0;
#X connect 41 1 43 0;
#X connect 42 0 46 0;
#X connect 42 0 50 0;
#X connect 43 0 44 0;
#X connect 48 0 47 0;
#X connect 50 0 49 0;
#X connect 51 0 52 0;
#X connect 51 1 53 0;
#X connect 52 0 59 0;
#X connect 52 0 62 0;
#X connect 53 0 54 0;
#X connect 55 0 56 0;
#X connect 55 1 57 0;
#X connect 56 0 60 0;
#X connect 56 0 64 0;
#X connect 57 0 58 0;
#X connect 62 0 61 0;
#X connect 64 0 63 0;
#X connect 65 1 13 0;
#X connect 66 0 65 1;
#X restore 276 98 pd all-pitches;
#X f 22;
#X obj 427 63 tgl 19 0 empty empty empty 0 -10 0 12 #fcfcfc #000000 #000000 0 1;
#X obj 427 34 inlet;
#X obj 276 124 bng 19 250 50 0 empty empty empty 0 -10 0 12 #fcfcfc #000000 #000000;
#N canvas 150 175 450 300 debounce 0;
#X obj 94 190 spigot;
#X obj 133 168 tgl 19 0 empty empty empty 0 -10 0 12 #fcfcfc #000000 #000000 0 1;
#X msg 133 145 0;
#X obj 167 122 del 800;
#X obj 94 118 t b b b;
#X msg 167 146 1;
#X obj 224 121 loadbang;
#X obj 213 87 r debounceTime;
#X obj 94 73 inlet;
#X obj 94 214 outlet;
#X connect 0 0 9 0;
#X connect 1 0 0 1;
#X connect 2 0 1 0;
#X connect 3 0 5 0;
#X connect 4 0 2 0;
#X connect 4 1 0 0;
#X connect 4 2 3 0;
#X connect 5 0 1 0;
#X connect 6 0 5 0;
#X connect 7 0 3 1;
#X connect 8 0 4 0;
#X restore 276 146 pd debounce;
#X obj 276 170 s go1;
#X obj 306 194 bng 19 250 50 0 empty empty empty 0 -10 0 12 #fcfcfc #000000 #000000;
#N canvas 150 175 450 300 debounce 0;
#X obj 94 190 spigot;
#X obj 133 168 tgl 19 0 empty empty empty 0 -10 0 12 #fcfcfc #000000 #000000 0 1;
#X msg 133 145 0;
#X obj 167 122 del 800;
#X obj 94 118 t b b b;
#X msg 167 146 1;
#X obj 224 121 loadbang;
#X obj 213 87 r debounceTime;
#X obj 94 73 inlet;
#X obj 94 214 outlet;
#X connect 0 0 9 0;
#X connect 1 0 0 1;
#X connect 2 0 1 0;
#X connect 3 0 5 0;
#X connect 4 0 2 0;
#X connect 4 1 0 0;
#X connect 4 2 3 0;
#X connect 5 0 1 0;
#X connect 6 0 5 0;
#X connect 7 0 3 1;
#X connect 8 0 4 0;
#X restore 306 219 pd debounce;
#X obj 306 243 s go2;
#X obj 336 271 bng 19 250 50 0 empty empty empty 0 -10 0 12 #fcfcfc #000000 #000000;
#N canvas 150 175 450 300 debounce 0;
#X obj 94 190 spigot;
#X obj 133 168 tgl 19 0 empty empty empty 0 -10 0 12 #fcfcfc #000000 #000000 0 1;
#X msg 133 145 0;
#X obj 167 122 del 800;
#X obj 94 118 t b b b;
#X msg 167 146 1;
#X obj 224 121 loadbang;
#X obj 213 87 r debounceTime;
#X obj 94 73 inlet;
#X obj 94 214 outlet;
#X connect 0 0 9 0;
#X connect 1 0 0 1;
#X connect 2 0 1 0;
#X connect 3 0 5 0;
#X connect 4 0 2 0;
#X connect 4 1 0 0;
#X connect 4 2 3 0;
#X connect 5 0 1 0;
#X connect 6 0 5 0;
#X connect 7 0 3 1;
#X connect 8 0 4 0;
#X restore 336 296 pd debounce;
#X obj 336 320 s go3;
#X obj 366 124 bng 19 250 50 0 empty empty empty 0 -10 0 12 #fcfcfc #000000 #000000;
#N canvas 150 175 450 300 debounce 0;
#X obj 94 190 spigot;
#X obj 133 168 tgl 19 0 empty empty empty 0 -10 0 12 #fcfcfc #000000 #000000 0 1;
#X msg 133 145 0;
#X obj 167 122 del 800;
#X obj 94 118 t b b b;
#X msg 167 146 1;
#X obj 224 121 loadbang;
#X obj 213 87 r debounceTime;
#X obj 94 73 inlet;
#X obj 94 214 outlet;
#X connect 0 0 9 0;
#X connect 1 0 0 1;
#X connect 2 0 1 0;
#X connect 3 0 5 0;
#X connect 4 0 2 0;
#X connect 4 1 0 0;
#X connect 4 2 3 0;
#X connect 5 0 1 0;
#X connect 6 0 5 0;
#X connect 7 0 3 1;
#X connect 8 0 4 0;
#X restore 366 146 pd debounce;
#X obj 396 194 bng 19 250 50 0 empty empty empty 0 -10 0 12 #fcfcfc #000000 #000000;
#N canvas 150 175 450 300 debounce 0;
#X obj 94 190 spigot;
#X obj 133 168 tgl 19 0 empty empty empty 0 -10 0 12 #fcfcfc #000000 #000000 0 1;
#X msg 133 145 0;
#X obj 167 122 del 800;
#X obj 94 118 t b b b;
#X msg 167 146 1;
#X obj 224 121 loadbang;
#X obj 213 87 r debounceTime;
#X obj 94 73 inlet;
#X obj 94 214 outlet;
#X connect 0 0 9 0;
#X connect 1 0 0 1;
#X connect 2 0 1 0;
#X connect 3 0 5 0;
#X connect 4 0 2 0;
#X connect 4 1 0 0;
#X connect 4 2 3 0;
#X connect 5 0 1 0;
#X connect 6 0 5 0;
#X connect 7 0 3 1;
#X connect 8 0 4 0;
#X restore 396 219 pd debounce;
#X obj 427 271 bng 19 250 50 0 empty empty empty 0 -10 0 12 #fcfcfc #000000 #000000;
#N canvas 150 175 450 300 debounce 0;
#X obj 94 190 spigot;
#X obj 133 168 tgl 19 0 empty empty empty 0 -10 0 12 #fcfcfc #000000 #000000 0 1;
#X msg 133 145 0;
#X obj 167 122 del 800;
#X obj 94 118 t b b b;
#X msg 167 146 1;
#X obj 224 121 loadbang;
#X obj 213 87 r debounceTime;
#X obj 94 73 inlet;
#X obj 94 214 outlet;
#X connect 0 0 9 0;
#X connect 1 0 0 1;
#X connect 2 0 1 0;
#X connect 3 0 5 0;
#X connect 4 0 2 0;
#X connect 4 1 0 0;
#X connect 4 2 3 0;
#X connect 5 0 1 0;
#X connect 6 0 5 0;
#X connect 7 0 3 1;
#X connect 8 0 4 0;
#X restore 427 296 pd debounce;
#X obj 366 170 s go4;
#X obj 396 243 s go5;
#X obj 427 320 s go6;
#X obj 785 237 loadbang;
#N canvas 150 175 1427 335 synths 0;
#X obj 47 187 vox~, f 17;
#X obj 47 9 r go1;
#X obj 85 56 r bend1;
#X obj 66 32 r freq1;
#X obj 105 81 r attack;
#X obj 124 106 r attackTime;
#X obj 143 131 r sustainTime;
#X obj 163 157 r releaseTime;
#X obj 267 187 vox~, f 17;
#X obj 325 81 r attack;
#X obj 344 106 r attackTime;
#X obj 363 131 r sustainTime;
#X obj 383 157 r releaseTime;
#X obj 267 9 r go2;
#X obj 286 32 r freq2;
#X obj 305 56 r bend2;
#X obj 497 187 vox~, f 17;
#X obj 555 81 r attack;
#X obj 574 106 r attackTime;
#X obj 593 131 r sustainTime;
#X obj 613 157 r releaseTime;
#X obj 717 187 vox~, f 17;
#X obj 775 81 r attack;
#X obj 794 106 r attackTime;
#X obj 813 131 r sustainTime;
#X obj 833 157 r releaseTime;
#X obj 497 9 r go3;
#X obj 516 32 r freq3;
#X obj 535 56 r bend3;
#X obj 717 9 r go4;
#X obj 736 32 r freq4;
#X obj 755 56 r bend4;
#X obj 937 187 vox~, f 17;
#X obj 995 81 r attack;
#X obj 1014 106 r attackTime;
#X obj 1033 131 r sustainTime;
#X obj 1053 157 r releaseTime;
#X obj 1157 187 vox~, f 17;
#X obj 1215 81 r attack;
#X obj 1234 106 r attackTime;
#X obj 1253 131 r sustainTime;
#X obj 1273 157 r releaseTime;
#X obj 937 9 r go5;
#X obj 956 32 r freq5;
#X obj 975 56 r bend5;
#X obj 1157 9 r go6;
#X obj 1176 32 r freq6;
#X obj 1195 56 r bend6;
#X obj 47 285 outlet~;
#X obj 47 211 throw~ synth;
#X obj 47 263 catch~ synth;
#X obj 267 211 throw~ synth;
#X obj 497 211 throw~ synth;
#X obj 717 211 throw~ synth;
#X obj 937 211 throw~ synth;
#X obj 1157 211 throw~ synth;
#X connect 0 0 49 0;
#X connect 1 0 0 0;
#X connect 2 0 0 2;
#X connect 3 0 0 1;
#X connect 4 0 0 3;
#X connect 5 0 0 4;
#X connect 6 0 0 5;
#X connect 7 0 0 6;
#X connect 8 0 51 0;
#X connect 9 0 8 3;
#X connect 10 0 8 4;
#X connect 11 0 8 5;
#X connect 12 0 8 6;
#X connect 13 0 8 0;
#X connect 14 0 8 1;
#X connect 15 0 8 2;
#X connect 16 0 52 0;
#X connect 17 0 16 3;
#X connect 18 0 16 4;
#X connect 19 0 16 5;
#X connect 20 0 16 6;
#X connect 21 0 53 0;
#X connect 22 0 21 3;
#X connect 23 0 21 4;
#X connect 24 0 21 5;
#X connect 25 0 21 6;
#X connect 26 0 16 0;
#X connect 27 0 16 1;
#X connect 28 0 16 2;
#X connect 29 0 21 0;
#X connect 30 0 21 1;
#X connect 31 0 21 2;
#X connect 32 0 54 0;
#X connect 33 0 32 3;
#X connect 34 0 32 4;
#X connect 35 0 32 5;
#X connect 36 0 32 6;
#X connect 37 0 55 0;
#X connect 38 0 37 3;
#X connect 39 0 37 4;
#X connect 40 0 37 5;
#X connect 41 0 37 6;
#X connect 42 0 32 0;
#X connect 43 0 32 1;
#X connect 44 0 32 2;
#X connect 45 0 37 0;
#X connect 46 0 37 1;
#X connect 47 0 37 2;
#X connect 50 0 48 0;
#X restore 33 376 pd synths;
#X msg 522 409 \; freq 60 63 67 72 75 79 \; bend 1.2 1.2 1.2 1.2 1.2 1.2 \; sustainTime 150 \; releaseTime 800 \; attack 0.9 \; attackTime 25 \;;
#N canvas 499 213 1047 565 extra 0;
#X obj 34 30 r go1;
#X obj 76 31 r synthbender-extra1;
#X msg 76 55 \;;
#X msg 613 112 set;
#X msg 646 112 addsemi;
#X obj 613 139 s synthbender-extra1;
#X msg 75 159 \;;
#X obj 75 135 r synthbender-extra2;
#X obj 33 134 r go2;
#X msg 74 270 \;;
#X msg 296 272 \;;
#X obj 74 246 r synthbender-extra3;
#X obj 32 245 r go3;
#X obj 254 247 r go4;
#X obj 620 170 s synthbender-extra2;
#X obj 637 202 s synthbender-extra3;
#X obj 644 233 s synthbender-extra4;
#X obj 657 262 s synthbender-extra5;
#X obj 664 293 s synthbender-extra6;
#X obj 613 82 bng 19 250 50 0 empty empty empty 0 -10 0 12 #fcfcfc #000000 #000000;
#X obj 613 45 r reset-synthbender-extra;
#X msg 293 56 \;;
#X msg 292 160 \;;
#X obj 251 31 r go3;
#X obj 250 135 r go4;
#X obj 293 32 r synthbender-extra4;
#X obj 292 136 r synthbender-extra5;
#X obj 296 248 r synthbender-extra6;
#X connect 0 0 2 0;
#X connect 1 0 2 0;
#X connect 3 0 5 0;
#X connect 3 0 14 0;
#X connect 3 0 15 0;
#X connect 3 0 16 0;
#X connect 3 0 17 0;
#X connect 3 0 18 0;
#X connect 4 0 5 0;
#X connect 4 0 14 0;
#X connect 4 0 15 0;
#X connect 4 0 16 0;
#X connect 4 0 17 0;
#X connect 4 0 18 0;
#X connect 7 0 6 0;
#X connect 8 0 6 0;
#X connect 11 0 9 0;
#X connect 12 0 9 0;
#X connect 13 0 10 0;
#X connect 19 0 3 0;
#X connect 19 0 4 0;
#X connect 20 0 19 0;
#X connect 23 0 21 0;
#X connect 24 0 22 0;
#X connect 25 0 21 0;
#X connect 26 0 22 0;
#X connect 27 0 10 0;
#X restore 523 209 pd extra;
#X msg 523 294 \; freq 0 0 0 0 0 0 \; bend 1 1 1 1 1 1 \; synthbender-pitchdetection-on 0 \; synthbender-all-on 0 \; pitchdetection-thresh 40 \; reset-synthbender-extra bang \;;
#X connect 2 0 5 0;
#X connect 3 0 5 1;
#X connect 3 0 28 0;
#X connect 4 0 2 0;
#X connect 5 0 6 0;
#X connect 5 1 13 0;
#X connect 5 2 16 0;
#X connect 5 3 19 0;
#X connect 5 4 21 0;
#X connect 5 5 23 0;
#X connect 6 0 11 0;
#X connect 8 0 53 0;
#X connect 11 0 12 0;
#X connect 13 0 14 0;
#X connect 14 0 15 0;
#X connect 16 0 17 0;
#X connect 17 0 18 0;
#X connect 19 0 20 0;
#X connect 20 0 25 0;
#X connect 21 0 22 0;
#X connect 22 0 26 0;
#X connect 23 0 24 0;
#X connect 24 0 27 0;
#X connect 28 0 31 0;
#X connect 28 1 34 0;
#X connect 28 2 37 0;
#X connect 28 3 40 0;
#X connect 28 4 42 0;
#X connect 28 5 44 0;
#X connect 29 0 28 1;
#X connect 30 0 29 0;
#X connect 31 0 32 0;
#X connect 32 0 33 0;
#X connect 34 0 35 0;
#X connect 35 0 36 0;
#X connect 37 0 38 0;
#X connect 38 0 39 0;
#X connect 40 0 41 0;
#X connect 41 0 46 0;
#X connect 42 0 43 0;
#X connect 43 0 47 0;
#X connect 44 0 45 0;
#X connect 45 0 48 0;
#X connect 49 0 9 0;
#X connect 50 0 7 0;
