#N canvas 31 452 1038 547 12;
#X declare -path ./abstractions;
#X obj 135 360 osc~;
#X obj 135 386 *~;
#X obj 284 90 t b;
#X obj 227 315 line~;
#X obj 284 65 bng 19 250 50 0 empty empty empty 0 -10 0 12 #fcfcfc #000000 #000000;
#X obj 135 292 line~;
#X obj 284 113 del 150;
#X obj 136 132 * 1.2;
#X obj 153 234 r freq;
#X obj 168 104 r bend;
#X obj 206 233 r freqTime;
#X obj 136 78 r detectFreq;
#X obj 136 163 s freq;
#X obj 348 156 f;
#X obj 284 137 t b b;
#X msg 284 161 0;
#X obj 227 267 r attack;
#X obj 284 183 s attack;
#X obj 259 291 r attackTime;
#X obj 348 183 s attackTime;
#X obj 330 90 r sustainTime;
#X obj 366 132 r releaseTime;
#X obj 25 245 r detectFreq;
#X obj 135 260 f;
#X obj 188 260 f;
#X obj 135 212 t b b;
#X text 526 68 Much of the older sampler's used variable speed plaback to execute pitch bending. But since the essense of a marimba tone is sinusoidal \, I'm experimenting with using a simple synth to create a pitch bend. This could create the same effect when combined with sigmund~ and the acoustic sound of a marimba. This could be adapted for multiple pitches too \, but right now this would be used for single pitches.;
#X obj 135 409 outlet~;
#X obj 526 29 declare -path ./abstractions;
#X obj 409 324 pitchdetection, f 22;
#X obj 409 289 tgl 19 0 empty empty empty 0 -10 0 12 #fcfcfc #000000 #000000 0 1;
#X floatatom 560 302 5 0 0 0 - - - 0;
#X text 602 302 dB threshold;
#X floatatom 409 348 5 0 0 0 - - - 0;
#X obj 459 216 inlet~;
#X obj 284 37 r go;
#X obj 135 190 r go;
#X obj 409 370 sel 0;
#X obj 441 491 bng 19 250 50 0 empty empty empty 0 -10 0 12 #fcfcfc #000000 #000000;
#X obj 441 515 s go;
#X obj 509 239 r detectFreq;
#X obj 560 279 r thresh;
#X floatatom 509 261 5 0 0 0 - - - 0;
#X obj 136 104 mtof;
#X obj 25 269 mtof;
#X obj 441 467 spigot;
#X obj 480 445 tgl 19 0 empty empty empty 0 -10 0 12 #fcfcfc #000000 #000000 0 1;
#X msg 480 422 0;
#X obj 514 399 del 800;
#X obj 441 395 t b b b;
#X msg 514 423 1;
#X obj 571 398 loadbang;
#X obj 560 364 r debounceTime;
#X obj 409 260 inlet;
#X connect 0 0 1 0;
#X connect 1 0 27 0;
#X connect 2 0 6 0;
#X connect 3 0 1 1;
#X connect 4 0 2 0;
#X connect 5 0 0 0;
#X connect 6 0 14 0;
#X connect 7 0 12 0;
#X connect 8 0 23 1;
#X connect 9 0 7 1;
#X connect 10 0 24 1;
#X connect 11 0 43 0;
#X connect 13 0 19 0;
#X connect 14 0 15 0;
#X connect 14 1 13 0;
#X connect 15 0 17 0;
#X connect 16 0 3 0;
#X connect 18 0 3 1;
#X connect 20 0 6 1;
#X connect 21 0 13 1;
#X connect 22 0 44 0;
#X connect 23 0 5 0;
#X connect 24 0 5 1;
#X connect 25 0 23 0;
#X connect 25 1 24 0;
#X connect 29 0 33 0;
#X connect 30 0 29 0;
#X connect 31 0 29 3;
#X connect 33 0 37 0;
#X connect 34 0 29 1;
#X connect 35 0 4 0;
#X connect 36 0 25 0;
#X connect 37 1 49 0;
#X connect 38 0 39 0;
#X connect 40 0 42 0;
#X connect 41 0 31 0;
#X connect 42 0 29 2;
#X connect 43 0 7 0;
#X connect 44 0 5 0;
#X connect 45 0 38 0;
#X connect 46 0 45 1;
#X connect 47 0 46 0;
#X connect 48 0 50 0;
#X connect 49 0 47 0;
#X connect 49 1 45 0;
#X connect 49 2 48 0;
#X connect 50 0 46 0;
#X connect 51 0 50 0;
#X connect 52 0 48 1;
#X connect 53 0 30 0;
