#N canvas 524 372 1038 593 12;
#X declare -path ./abstractions;
#X text 526 68 Much of the older sampler's used variable speed plaback to execute pitch bending. But since the essense of a marimba tone is sinusoidal \, I'm experimenting with using a simple synth to create a pitch bend. This could create the same effect when combined with sigmund~ and the acoustic sound of a marimba. This could be adapted for multiple pitches too \, but right now this would be used for single pitches.;
#X obj 526 29 declare -path ./abstractions;
#X obj 32 63 tgl 19 0 empty empty empty 0 -10 0 12 #fcfcfc #000000 #000000 0 1;
#X obj 183 36 inlet~;
#X obj 32 34 inlet;
#X obj 32 98 pitchdetection-multi, f 22;
#X obj 32 122 bng 19 250 50 0 empty empty empty 0 -10 0 12 #fcfcfc #000000 #000000;
#N canvas 85 63 685 313 vox1 0;
#X obj 180 220 osc~;
#X obj 180 246 *~;
#X obj 272 175 line~;
#X obj 180 152 line~;
#X obj 254 94 r freqTime;
#X obj 272 127 r attack;
#X obj 304 151 r attackTime;
#X obj 180 120 f;
#X obj 236 121 f;
#X obj 180 72 t b b;
#X obj 180 269 outlet~;
#X obj 441 168 bng 19 250 50 0 empty empty empty 0 -10 0 12 #fcfcfc #000000 #000000;
#X obj 441 192 del 150;
#X obj 505 235 f;
#X obj 441 216 t b b;
#X msg 441 240 0;
#X obj 441 262 s attack;
#X obj 505 262 s attackTime;
#X obj 487 169 r sustainTime;
#X obj 523 211 r releaseTime;
#X obj 180 50 r go1;
#X obj 441 140 r go1;
#X obj 250 66 * 1.2, f 6;
#X obj 250 38 mtof;
#X obj 289 38 r bend1;
#X obj 250 12 r freq1;
#X obj 112 72 r freq1;
#X obj 112 96 mtof;
#X obj 515 36 r sustainTime;
#X obj 530 59 r releaseTime;
#X obj 500 13 r attackTime;
#X obj 500 85 +;
#X floatatom 500 109 5 0 0 0 - - - 0;
#X obj 500 132 s freqTime;
#X connect 0 0 1 0;
#X connect 1 0 10 0;
#X connect 2 0 1 1;
#X connect 3 0 0 0;
#X connect 4 0 8 1;
#X connect 5 0 2 0;
#X connect 6 0 2 1;
#X connect 7 0 3 0;
#X connect 8 0 3 1;
#X connect 9 0 7 0;
#X connect 9 1 8 0;
#X connect 11 0 12 0;
#X connect 12 0 14 0;
#X connect 13 0 17 0;
#X connect 14 0 15 0;
#X connect 14 1 13 0;
#X connect 15 0 16 0;
#X connect 18 0 12 1;
#X connect 19 0 13 1;
#X connect 20 0 9 0;
#X connect 21 0 11 0;
#X connect 22 0 7 1;
#X connect 23 0 22 0;
#X connect 24 0 22 1;
#X connect 25 0 23 0;
#X connect 26 0 27 0;
#X connect 27 0 3 0;
#X connect 28 0 31 0;
#X connect 29 0 31 0;
#X connect 30 0 31 0;
#X connect 31 0 32 0;
#X connect 32 0 33 0;
#X restore 51 389 pd vox1;
#X obj 51 533 outlet~;
#X obj 523 262 r synthbender-reset;
#X msg 523 349 \; freq 60 63 67 72 75 79 \;;
#X msg 292 437 \; sustainTime 150 \; releaseTime 800 \; attack 0.9 \; attackTime 25 \;;
#N canvas 121 146 647 514 params 1;
#X obj 61 208 r freq;
#X obj 61 232 unpack 0 0 0 0 0 0, f 41;
#X obj 61 294 s freq1;
#X obj 119 294 s freq2;
#X obj 176 294 s freq3;
#X obj 234 294 s freq4;
#X obj 292 294 s freq5;
#X obj 350 294 s freq6;
#X floatatom 61 264 5 0 0 0 - - - 0;
#X floatatom 119 264 5 0 0 0 - - - 0;
#X floatatom 176 264 5 0 0 0 - - - 0;
#X floatatom 234 264 5 0 0 0 - - - 0;
#X floatatom 292 264 5 0 0 0 - - - 0;
#X floatatom 350 264 5 0 0 0 - - - 0;
#X obj 63 116 unpack 0 0 0 0 0 0, f 41;
#X floatatom 63 148 5 0 0 0 - - - 0;
#X floatatom 121 148 5 0 0 0 - - - 0;
#X floatatom 178 148 5 0 0 0 - - - 0;
#X floatatom 236 148 5 0 0 0 - - - 0;
#X floatatom 294 148 5 0 0 0 - - - 0;
#X floatatom 352 148 5 0 0 0 - - - 0;
#X obj 63 178 s bend1;
#X obj 121 178 s bend2;
#X obj 178 178 s bend3;
#X obj 236 178 s bend4;
#X obj 294 178 s bend5;
#X obj 352 178 s bend6;
#X obj 63 90 r bend;
#X connect 0 0 1 0;
#X connect 1 0 8 0;
#X connect 1 1 9 0;
#X connect 1 2 10 0;
#X connect 1 3 11 0;
#X connect 1 4 12 0;
#X connect 1 5 13 0;
#X connect 8 0 2 0;
#X connect 9 0 3 0;
#X connect 10 0 4 0;
#X connect 11 0 5 0;
#X connect 12 0 6 0;
#X connect 13 0 7 0;
#X connect 14 0 15 0;
#X connect 14 1 16 0;
#X connect 14 2 17 0;
#X connect 14 3 18 0;
#X connect 14 4 19 0;
#X connect 14 5 20 0;
#X connect 15 0 21 0;
#X connect 16 0 22 0;
#X connect 17 0 23 0;
#X connect 18 0 24 0;
#X connect 19 0 25 0;
#X connect 20 0 26 0;
#X connect 27 0 14 0;
#X restore 523 236 pd params;
#X msg 523 389 \; bend 1.2 1.2 1.2 1.2 1.2 1.2 \;;
#N canvas 150 175 450 300 debounce 0;
#X obj 94 190 spigot;
#X obj 133 168 tgl 19 0 empty empty empty 0 -10 0 12 #fcfcfc #000000 #000000 0 1;
#X msg 133 145 0;
#X obj 167 122 del 800;
#X obj 94 118 t b b b;
#X msg 167 146 1;
#X obj 224 121 loadbang;
#X obj 213 87 r debounceTime;
#X obj 94 73 inlet;
#X obj 94 214 outlet;
#X connect 0 0 9 0;
#X connect 1 0 0 1;
#X connect 2 0 1 0;
#X connect 3 0 5 0;
#X connect 4 0 2 0;
#X connect 4 1 0 0;
#X connect 4 2 3 0;
#X connect 5 0 1 0;
#X connect 6 0 5 0;
#X connect 7 0 3 1;
#X connect 8 0 4 0;
#X restore 32 144 pd debounce;
#X obj 32 168 s go1;
#X obj 62 192 bng 19 250 50 0 empty empty empty 0 -10 0 12 #fcfcfc #000000 #000000;
#N canvas 150 175 450 300 debounce 0;
#X obj 94 190 spigot;
#X obj 133 168 tgl 19 0 empty empty empty 0 -10 0 12 #fcfcfc #000000 #000000 0 1;
#X msg 133 145 0;
#X obj 167 122 del 800;
#X obj 94 118 t b b b;
#X msg 167 146 1;
#X obj 224 121 loadbang;
#X obj 213 87 r debounceTime;
#X obj 94 73 inlet;
#X obj 94 214 outlet;
#X connect 0 0 9 0;
#X connect 1 0 0 1;
#X connect 2 0 1 0;
#X connect 3 0 5 0;
#X connect 4 0 2 0;
#X connect 4 1 0 0;
#X connect 4 2 3 0;
#X connect 5 0 1 0;
#X connect 6 0 5 0;
#X connect 7 0 3 1;
#X connect 8 0 4 0;
#X restore 62 217 pd debounce;
#X obj 62 241 s go2;
#X obj 92 269 bng 19 250 50 0 empty empty empty 0 -10 0 12 #fcfcfc #000000 #000000;
#N canvas 150 175 450 300 debounce 0;
#X obj 94 190 spigot;
#X obj 133 168 tgl 19 0 empty empty empty 0 -10 0 12 #fcfcfc #000000 #000000 0 1;
#X msg 133 145 0;
#X obj 167 122 del 800;
#X obj 94 118 t b b b;
#X msg 167 146 1;
#X obj 224 121 loadbang;
#X obj 213 87 r debounceTime;
#X obj 94 73 inlet;
#X obj 94 214 outlet;
#X connect 0 0 9 0;
#X connect 1 0 0 1;
#X connect 2 0 1 0;
#X connect 3 0 5 0;
#X connect 4 0 2 0;
#X connect 4 1 0 0;
#X connect 4 2 3 0;
#X connect 5 0 1 0;
#X connect 6 0 5 0;
#X connect 7 0 3 1;
#X connect 8 0 4 0;
#X restore 92 294 pd debounce;
#X obj 92 318 s go3;
#X obj 122 122 bng 19 250 50 0 empty empty empty 0 -10 0 12 #fcfcfc #000000 #000000;
#N canvas 150 175 450 300 debounce 0;
#X obj 94 190 spigot;
#X obj 133 168 tgl 19 0 empty empty empty 0 -10 0 12 #fcfcfc #000000 #000000 0 1;
#X msg 133 145 0;
#X obj 167 122 del 800;
#X obj 94 118 t b b b;
#X msg 167 146 1;
#X obj 224 121 loadbang;
#X obj 213 87 r debounceTime;
#X obj 94 73 inlet;
#X obj 94 214 outlet;
#X connect 0 0 9 0;
#X connect 1 0 0 1;
#X connect 2 0 1 0;
#X connect 3 0 5 0;
#X connect 4 0 2 0;
#X connect 4 1 0 0;
#X connect 4 2 3 0;
#X connect 5 0 1 0;
#X connect 6 0 5 0;
#X connect 7 0 3 1;
#X connect 8 0 4 0;
#X restore 122 144 pd debounce;
#X obj 152 192 bng 19 250 50 0 empty empty empty 0 -10 0 12 #fcfcfc #000000 #000000;
#N canvas 150 175 450 300 debounce 0;
#X obj 94 190 spigot;
#X obj 133 168 tgl 19 0 empty empty empty 0 -10 0 12 #fcfcfc #000000 #000000 0 1;
#X msg 133 145 0;
#X obj 167 122 del 800;
#X obj 94 118 t b b b;
#X msg 167 146 1;
#X obj 224 121 loadbang;
#X obj 213 87 r debounceTime;
#X obj 94 73 inlet;
#X obj 94 214 outlet;
#X connect 0 0 9 0;
#X connect 1 0 0 1;
#X connect 2 0 1 0;
#X connect 3 0 5 0;
#X connect 4 0 2 0;
#X connect 4 1 0 0;
#X connect 4 2 3 0;
#X connect 5 0 1 0;
#X connect 6 0 5 0;
#X connect 7 0 3 1;
#X connect 8 0 4 0;
#X restore 152 217 pd debounce;
#X obj 183 269 bng 19 250 50 0 empty empty empty 0 -10 0 12 #fcfcfc #000000 #000000;
#N canvas 150 175 450 300 debounce 0;
#X obj 94 190 spigot;
#X obj 133 168 tgl 19 0 empty empty empty 0 -10 0 12 #fcfcfc #000000 #000000 0 1;
#X msg 133 145 0;
#X obj 167 122 del 800;
#X obj 94 118 t b b b;
#X msg 167 146 1;
#X obj 224 121 loadbang;
#X obj 213 87 r debounceTime;
#X obj 94 73 inlet;
#X obj 94 214 outlet;
#X connect 0 0 9 0;
#X connect 1 0 0 1;
#X connect 2 0 1 0;
#X connect 3 0 5 0;
#X connect 4 0 2 0;
#X connect 4 1 0 0;
#X connect 4 2 3 0;
#X connect 5 0 1 0;
#X connect 6 0 5 0;
#X connect 7 0 3 1;
#X connect 8 0 4 0;
#X restore 183 294 pd debounce;
#X obj 122 168 s go4;
#X obj 152 241 s go5;
#X obj 183 318 s go6;
#X msg 523 294 \; freq 0 0 0 0 0 0 \; bend 1 1 1 1 1 1 \;;
#N canvas 85 63 685 313 vox2 0;
#X obj 180 220 osc~;
#X obj 180 246 *~;
#X obj 272 175 line~;
#X obj 180 152 line~;
#X obj 254 94 r freqTime;
#X obj 272 127 r attack;
#X obj 304 151 r attackTime;
#X obj 180 120 f;
#X obj 236 121 f;
#X obj 180 72 t b b;
#X obj 180 269 outlet~;
#X obj 441 168 bng 19 250 50 0 empty empty empty 0 -10 0 12 #fcfcfc #000000 #000000;
#X obj 441 192 del 150;
#X obj 505 235 f;
#X obj 441 216 t b b;
#X msg 441 240 0;
#X obj 441 262 s attack;
#X obj 505 262 s attackTime;
#X obj 487 169 r sustainTime;
#X obj 523 211 r releaseTime;
#X obj 250 66 * 1.2, f 6;
#X obj 250 38 mtof;
#X obj 112 96 mtof;
#X obj 515 36 r sustainTime;
#X obj 530 59 r releaseTime;
#X obj 500 13 r attackTime;
#X obj 500 85 +;
#X floatatom 500 109 5 0 0 0 - - - 0;
#X obj 500 132 s freqTime;
#X obj 250 12 r freq2;
#X obj 180 50 r go2;
#X obj 112 72 r freq2;
#X obj 289 38 r bend2;
#X obj 441 140 r go2;
#X connect 0 0 1 0;
#X connect 1 0 10 0;
#X connect 2 0 1 1;
#X connect 3 0 0 0;
#X connect 4 0 8 1;
#X connect 5 0 2 0;
#X connect 6 0 2 1;
#X connect 7 0 3 0;
#X connect 8 0 3 1;
#X connect 9 0 7 0;
#X connect 9 1 8 0;
#X connect 11 0 12 0;
#X connect 12 0 14 0;
#X connect 13 0 17 0;
#X connect 14 0 15 0;
#X connect 14 1 13 0;
#X connect 15 0 16 0;
#X connect 18 0 12 1;
#X connect 19 0 13 1;
#X connect 20 0 7 1;
#X connect 21 0 20 0;
#X connect 22 0 3 0;
#X connect 23 0 26 0;
#X connect 24 0 26 0;
#X connect 25 0 26 0;
#X connect 26 0 27 0;
#X connect 27 0 28 0;
#X connect 29 0 21 0;
#X connect 30 0 9 0;
#X connect 31 0 22 0;
#X connect 32 0 20 1;
#X connect 33 0 11 0;
#X restore 61 411 pd vox2;
#N canvas 85 63 685 313 vox3 0;
#X obj 180 220 osc~;
#X obj 180 246 *~;
#X obj 272 175 line~;
#X obj 180 152 line~;
#X obj 254 94 r freqTime;
#X obj 272 127 r attack;
#X obj 304 151 r attackTime;
#X obj 180 120 f;
#X obj 236 121 f;
#X obj 180 72 t b b;
#X obj 180 269 outlet~;
#X obj 441 168 bng 19 250 50 0 empty empty empty 0 -10 0 12 #fcfcfc #000000 #000000;
#X obj 441 192 del 150;
#X obj 505 235 f;
#X obj 441 216 t b b;
#X msg 441 240 0;
#X obj 441 262 s attack;
#X obj 505 262 s attackTime;
#X obj 487 169 r sustainTime;
#X obj 523 211 r releaseTime;
#X obj 250 66 * 1.2, f 6;
#X obj 250 38 mtof;
#X obj 112 96 mtof;
#X obj 515 36 r sustainTime;
#X obj 530 59 r releaseTime;
#X obj 500 13 r attackTime;
#X obj 500 85 +;
#X floatatom 500 109 5 0 0 0 - - - 0;
#X obj 500 132 s freqTime;
#X obj 112 72 r freq3;
#X obj 180 50 r go3;
#X obj 250 12 r freq3;
#X obj 289 38 r bend3;
#X obj 441 140 r go3;
#X connect 0 0 1 0;
#X connect 1 0 10 0;
#X connect 2 0 1 1;
#X connect 3 0 0 0;
#X connect 4 0 8 1;
#X connect 5 0 2 0;
#X connect 6 0 2 1;
#X connect 7 0 3 0;
#X connect 8 0 3 1;
#X connect 9 0 7 0;
#X connect 9 1 8 0;
#X connect 11 0 12 0;
#X connect 12 0 14 0;
#X connect 13 0 17 0;
#X connect 14 0 15 0;
#X connect 14 1 13 0;
#X connect 15 0 16 0;
#X connect 18 0 12 1;
#X connect 19 0 13 1;
#X connect 20 0 7 1;
#X connect 21 0 20 0;
#X connect 22 0 3 0;
#X connect 23 0 26 0;
#X connect 24 0 26 0;
#X connect 25 0 26 0;
#X connect 26 0 27 0;
#X connect 27 0 28 0;
#X connect 29 0 22 0;
#X connect 30 0 9 0;
#X connect 31 0 21 0;
#X connect 32 0 20 1;
#X connect 33 0 11 0;
#X restore 69 434 pd vox3;
#N canvas 85 63 685 313 vox4 0;
#X obj 180 220 osc~;
#X obj 180 246 *~;
#X obj 272 175 line~;
#X obj 180 152 line~;
#X obj 254 94 r freqTime;
#X obj 272 127 r attack;
#X obj 304 151 r attackTime;
#X obj 180 120 f;
#X obj 236 121 f;
#X obj 180 72 t b b;
#X obj 180 269 outlet~;
#X obj 441 168 bng 19 250 50 0 empty empty empty 0 -10 0 12 #fcfcfc #000000 #000000;
#X obj 441 192 del 150;
#X obj 505 235 f;
#X obj 441 216 t b b;
#X msg 441 240 0;
#X obj 441 262 s attack;
#X obj 505 262 s attackTime;
#X obj 487 169 r sustainTime;
#X obj 523 211 r releaseTime;
#X obj 250 66 * 1.2, f 6;
#X obj 250 38 mtof;
#X obj 112 96 mtof;
#X obj 515 36 r sustainTime;
#X obj 530 59 r releaseTime;
#X obj 500 13 r attackTime;
#X obj 500 85 +;
#X floatatom 500 109 5 0 0 0 - - - 0;
#X obj 500 132 s freqTime;
#X obj 112 72 r freq4;
#X obj 180 50 r go4;
#X obj 250 12 r freq4;
#X obj 289 38 r bend4;
#X obj 441 140 r go4;
#X connect 0 0 1 0;
#X connect 1 0 10 0;
#X connect 2 0 1 1;
#X connect 3 0 0 0;
#X connect 4 0 8 1;
#X connect 5 0 2 0;
#X connect 6 0 2 1;
#X connect 7 0 3 0;
#X connect 8 0 3 1;
#X connect 9 0 7 0;
#X connect 9 1 8 0;
#X connect 11 0 12 0;
#X connect 12 0 14 0;
#X connect 13 0 17 0;
#X connect 14 0 15 0;
#X connect 14 1 13 0;
#X connect 15 0 16 0;
#X connect 18 0 12 1;
#X connect 19 0 13 1;
#X connect 20 0 7 1;
#X connect 21 0 20 0;
#X connect 22 0 3 0;
#X connect 23 0 26 0;
#X connect 24 0 26 0;
#X connect 25 0 26 0;
#X connect 26 0 27 0;
#X connect 27 0 28 0;
#X connect 29 0 22 0;
#X connect 30 0 9 0;
#X connect 31 0 21 0;
#X connect 32 0 20 1;
#X connect 33 0 11 0;
#X restore 79 456 pd vox4;
#N canvas 85 63 685 313 vox5 0;
#X obj 180 220 osc~;
#X obj 180 246 *~;
#X obj 272 175 line~;
#X obj 180 152 line~;
#X obj 254 94 r freqTime;
#X obj 272 127 r attack;
#X obj 304 151 r attackTime;
#X obj 180 120 f;
#X obj 236 121 f;
#X obj 180 72 t b b;
#X obj 180 269 outlet~;
#X obj 441 168 bng 19 250 50 0 empty empty empty 0 -10 0 12 #fcfcfc #000000 #000000;
#X obj 441 192 del 150;
#X obj 505 235 f;
#X obj 441 216 t b b;
#X msg 441 240 0;
#X obj 441 262 s attack;
#X obj 505 262 s attackTime;
#X obj 487 169 r sustainTime;
#X obj 523 211 r releaseTime;
#X obj 250 66 * 1.2, f 6;
#X obj 250 38 mtof;
#X obj 112 96 mtof;
#X obj 515 36 r sustainTime;
#X obj 530 59 r releaseTime;
#X obj 500 13 r attackTime;
#X obj 500 85 +;
#X floatatom 500 109 5 0 0 0 - - - 0;
#X obj 500 132 s freqTime;
#X obj 112 72 r freq5;
#X obj 180 50 r go5;
#X obj 250 12 r freq5;
#X obj 289 38 r bend5;
#X obj 441 140 r go5;
#X connect 0 0 1 0;
#X connect 1 0 10 0;
#X connect 2 0 1 1;
#X connect 3 0 0 0;
#X connect 4 0 8 1;
#X connect 5 0 2 0;
#X connect 6 0 2 1;
#X connect 7 0 3 0;
#X connect 8 0 3 1;
#X connect 9 0 7 0;
#X connect 9 1 8 0;
#X connect 11 0 12 0;
#X connect 12 0 14 0;
#X connect 13 0 17 0;
#X connect 14 0 15 0;
#X connect 14 1 13 0;
#X connect 15 0 16 0;
#X connect 18 0 12 1;
#X connect 19 0 13 1;
#X connect 20 0 7 1;
#X connect 21 0 20 0;
#X connect 22 0 3 0;
#X connect 23 0 26 0;
#X connect 24 0 26 0;
#X connect 25 0 26 0;
#X connect 26 0 27 0;
#X connect 27 0 28 0;
#X connect 29 0 22 0;
#X connect 30 0 9 0;
#X connect 31 0 21 0;
#X connect 32 0 20 1;
#X connect 33 0 11 0;
#X restore 89 479 pd vox5;
#N canvas 85 63 685 313 vox6 0;
#X obj 180 220 osc~;
#X obj 180 246 *~;
#X obj 272 175 line~;
#X obj 180 152 line~;
#X obj 254 94 r freqTime;
#X obj 272 127 r attack;
#X obj 304 151 r attackTime;
#X obj 180 120 f;
#X obj 236 121 f;
#X obj 180 72 t b b;
#X obj 180 269 outlet~;
#X obj 441 168 bng 19 250 50 0 empty empty empty 0 -10 0 12 #fcfcfc #000000 #000000;
#X obj 441 192 del 150;
#X obj 505 235 f;
#X obj 441 216 t b b;
#X msg 441 240 0;
#X obj 441 262 s attack;
#X obj 505 262 s attackTime;
#X obj 487 169 r sustainTime;
#X obj 523 211 r releaseTime;
#X obj 250 66 * 1.2, f 6;
#X obj 250 38 mtof;
#X obj 112 96 mtof;
#X obj 515 36 r sustainTime;
#X obj 530 59 r releaseTime;
#X obj 500 13 r attackTime;
#X obj 500 85 +;
#X floatatom 500 109 5 0 0 0 - - - 0;
#X obj 500 132 s freqTime;
#X obj 112 73 r freq6;
#X obj 180 50 r go6;
#X obj 250 12 r freq6;
#X obj 289 38 r bend6;
#X obj 441 140 r go6;
#X connect 0 0 1 0;
#X connect 1 0 10 0;
#X connect 2 0 1 1;
#X connect 3 0 0 0;
#X connect 4 0 8 1;
#X connect 5 0 2 0;
#X connect 6 0 2 1;
#X connect 7 0 3 0;
#X connect 8 0 3 1;
#X connect 9 0 7 0;
#X connect 9 1 8 0;
#X connect 11 0 12 0;
#X connect 12 0 14 0;
#X connect 13 0 17 0;
#X connect 14 0 15 0;
#X connect 14 1 13 0;
#X connect 15 0 16 0;
#X connect 18 0 12 1;
#X connect 19 0 13 1;
#X connect 20 0 7 1;
#X connect 21 0 20 0;
#X connect 22 0 3 0;
#X connect 23 0 26 0;
#X connect 24 0 26 0;
#X connect 25 0 26 0;
#X connect 26 0 27 0;
#X connect 27 0 28 0;
#X connect 29 0 22 0;
#X connect 30 0 9 0;
#X connect 31 0 21 0;
#X connect 32 0 20 1;
#X connect 33 0 11 0;
#X restore 99 501 pd vox6;
#N canvas 581 167 961 611 all-pitches 0;
#X obj 98 18 inlet~;
#X obj 153 18 inlet;
#X obj 47 533 outlet;
#X floatatom 98 146 8 0 0 0 - - - 0;
#X floatatom 202 146 7 0 0 0 - - - 0;
#X text 45 147 (MIDI);
#X text 163 145 (db);
#X obj 98 118 sigmund~ -hop 4096 pitch env evenness quality;
#X obj 98 89 *~;
#X obj 153 63 line~;
#X msg 153 41 \$1 50;
#X obj 98 199 + 0.5;
#X obj 98 223 i;
#X obj 202 169 dbtorms;
#X obj 29 294 i;
#X obj 60 294 + 1;
#X obj 91 294 % 6;
#X floatatom 29 318 5 0 0 0 - - - 0;
#X obj 65 357 pack 0 0 0;
#X obj 29 271 t b;
#X obj 29 248 change;
#X obj 65 412 unpack 0 0;
#X floatatom 65 435 5 0 0 0 - - - 0;
#X floatatom 132 434 5 0 0 0 - - - 0;
#X obj 65 456 s freq1;
#X obj 65 384 route 0 1 2 3 4 5;
#X floatatom 202 193 5 0 0 0 - - - 0;
#X obj 132 456 s attack;
#X obj 47 485 t b;
#X obj 98 169 moses 0;
#X obj 204 412 unpack 0 0;
#X floatatom 204 435 5 0 0 0 - - - 0;
#X floatatom 271 434 5 0 0 0 - - - 0;
#X obj 271 456 s attack;
#X obj 204 456 s freq2;
#X obj 195 532 outlet;
#X obj 195 484 t b;
#X obj 344 412 unpack 0 0;
#X floatatom 344 435 5 0 0 0 - - - 0;
#X floatatom 411 434 5 0 0 0 - - - 0;
#X obj 411 456 s attack;
#X obj 483 412 unpack 0 0;
#X floatatom 483 435 5 0 0 0 - - - 0;
#X floatatom 550 434 5 0 0 0 - - - 0;
#X obj 550 456 s attack;
#X obj 344 456 s freq3;
#X obj 483 457 s freq4;
#X obj 335 532 outlet;
#X obj 335 484 t b;
#X obj 475 532 outlet;
#X obj 475 484 t b;
#X obj 624 412 unpack 0 0;
#X floatatom 624 435 5 0 0 0 - - - 0;
#X floatatom 691 434 5 0 0 0 - - - 0;
#X obj 691 456 s attack;
#X obj 763 412 unpack 0 0;
#X floatatom 763 435 5 0 0 0 - - - 0;
#X floatatom 830 434 5 0 0 0 - - - 0;
#X obj 830 456 s attack;
#X obj 624 456 s freq5;
#X obj 763 457 s freq6;
#X obj 615 532 outlet;
#X obj 615 484 t b;
#X obj 755 532 outlet;
#X obj 755 484 t b;
#X connect 0 0 8 0;
#X connect 1 0 10 0;
#X connect 3 0 29 0;
#X connect 4 0 13 0;
#X connect 7 0 3 0;
#X connect 7 1 4 0;
#X connect 8 0 7 0;
#X connect 9 0 8 1;
#X connect 10 0 9 0;
#X connect 11 0 12 0;
#X connect 12 0 18 1;
#X connect 12 0 20 0;
#X connect 13 0 26 0;
#X connect 14 0 15 0;
#X connect 14 0 17 0;
#X connect 15 0 16 0;
#X connect 16 0 14 1;
#X connect 17 0 18 0;
#X connect 18 0 25 0;
#X connect 19 0 14 0;
#X connect 20 0 19 0;
#X connect 21 0 22 0;
#X connect 21 1 23 0;
#X connect 22 0 24 0;
#X connect 22 0 28 0;
#X connect 23 0 27 0;
#X connect 25 0 21 0;
#X connect 25 1 30 0;
#X connect 25 2 37 0;
#X connect 25 3 41 0;
#X connect 25 4 51 0;
#X connect 25 5 55 0;
#X connect 26 0 18 2;
#X connect 28 0 2 0;
#X connect 29 1 11 0;
#X connect 30 0 31 0;
#X connect 30 1 32 0;
#X connect 31 0 34 0;
#X connect 31 0 36 0;
#X connect 32 0 33 0;
#X connect 36 0 35 0;
#X connect 37 0 38 0;
#X connect 37 1 39 0;
#X connect 38 0 45 0;
#X connect 38 0 48 0;
#X connect 39 0 40 0;
#X connect 41 0 42 0;
#X connect 41 1 43 0;
#X connect 42 0 46 0;
#X connect 42 0 50 0;
#X connect 43 0 44 0;
#X connect 48 0 47 0;
#X connect 50 0 49 0;
#X connect 51 0 52 0;
#X connect 51 1 53 0;
#X connect 52 0 59 0;
#X connect 52 0 62 0;
#X connect 53 0 54 0;
#X connect 55 0 56 0;
#X connect 55 1 57 0;
#X connect 56 0 60 0;
#X connect 56 0 64 0;
#X connect 57 0 58 0;
#X connect 62 0 61 0;
#X connect 64 0 63 0;
#X restore 276 98 pd all-pitches;
#X f 22;
#X obj 427 63 tgl 19 0 empty empty empty 0 -10 0 12 #fcfcfc #000000 #000000 0 1;
#X obj 427 34 inlet;
#X obj 276 124 bng 19 250 50 0 empty empty empty 0 -10 0 12 #fcfcfc #000000 #000000;
#N canvas 150 175 450 300 debounce 0;
#X obj 94 190 spigot;
#X obj 133 168 tgl 19 0 empty empty empty 0 -10 0 12 #fcfcfc #000000 #000000 0 1;
#X msg 133 145 0;
#X obj 167 122 del 800;
#X obj 94 118 t b b b;
#X msg 167 146 1;
#X obj 224 121 loadbang;
#X obj 213 87 r debounceTime;
#X obj 94 73 inlet;
#X obj 94 214 outlet;
#X connect 0 0 9 0;
#X connect 1 0 0 1;
#X connect 2 0 1 0;
#X connect 3 0 5 0;
#X connect 4 0 2 0;
#X connect 4 1 0 0;
#X connect 4 2 3 0;
#X connect 5 0 1 0;
#X connect 6 0 5 0;
#X connect 7 0 3 1;
#X connect 8 0 4 0;
#X restore 276 146 pd debounce;
#X obj 276 170 s go1;
#X obj 306 194 bng 19 250 50 0 empty empty empty 0 -10 0 12 #fcfcfc #000000 #000000;
#N canvas 150 175 450 300 debounce 0;
#X obj 94 190 spigot;
#X obj 133 168 tgl 19 0 empty empty empty 0 -10 0 12 #fcfcfc #000000 #000000 0 1;
#X msg 133 145 0;
#X obj 167 122 del 800;
#X obj 94 118 t b b b;
#X msg 167 146 1;
#X obj 224 121 loadbang;
#X obj 213 87 r debounceTime;
#X obj 94 73 inlet;
#X obj 94 214 outlet;
#X connect 0 0 9 0;
#X connect 1 0 0 1;
#X connect 2 0 1 0;
#X connect 3 0 5 0;
#X connect 4 0 2 0;
#X connect 4 1 0 0;
#X connect 4 2 3 0;
#X connect 5 0 1 0;
#X connect 6 0 5 0;
#X connect 7 0 3 1;
#X connect 8 0 4 0;
#X restore 306 219 pd debounce;
#X obj 306 243 s go2;
#X obj 336 271 bng 19 250 50 0 empty empty empty 0 -10 0 12 #fcfcfc #000000 #000000;
#N canvas 150 175 450 300 debounce 0;
#X obj 94 190 spigot;
#X obj 133 168 tgl 19 0 empty empty empty 0 -10 0 12 #fcfcfc #000000 #000000 0 1;
#X msg 133 145 0;
#X obj 167 122 del 800;
#X obj 94 118 t b b b;
#X msg 167 146 1;
#X obj 224 121 loadbang;
#X obj 213 87 r debounceTime;
#X obj 94 73 inlet;
#X obj 94 214 outlet;
#X connect 0 0 9 0;
#X connect 1 0 0 1;
#X connect 2 0 1 0;
#X connect 3 0 5 0;
#X connect 4 0 2 0;
#X connect 4 1 0 0;
#X connect 4 2 3 0;
#X connect 5 0 1 0;
#X connect 6 0 5 0;
#X connect 7 0 3 1;
#X connect 8 0 4 0;
#X restore 336 296 pd debounce;
#X obj 336 320 s go3;
#X obj 366 124 bng 19 250 50 0 empty empty empty 0 -10 0 12 #fcfcfc #000000 #000000;
#N canvas 150 175 450 300 debounce 0;
#X obj 94 190 spigot;
#X obj 133 168 tgl 19 0 empty empty empty 0 -10 0 12 #fcfcfc #000000 #000000 0 1;
#X msg 133 145 0;
#X obj 167 122 del 800;
#X obj 94 118 t b b b;
#X msg 167 146 1;
#X obj 224 121 loadbang;
#X obj 213 87 r debounceTime;
#X obj 94 73 inlet;
#X obj 94 214 outlet;
#X connect 0 0 9 0;
#X connect 1 0 0 1;
#X connect 2 0 1 0;
#X connect 3 0 5 0;
#X connect 4 0 2 0;
#X connect 4 1 0 0;
#X connect 4 2 3 0;
#X connect 5 0 1 0;
#X connect 6 0 5 0;
#X connect 7 0 3 1;
#X connect 8 0 4 0;
#X restore 366 146 pd debounce;
#X obj 396 194 bng 19 250 50 0 empty empty empty 0 -10 0 12 #fcfcfc #000000 #000000;
#N canvas 150 175 450 300 debounce 0;
#X obj 94 190 spigot;
#X obj 133 168 tgl 19 0 empty empty empty 0 -10 0 12 #fcfcfc #000000 #000000 0 1;
#X msg 133 145 0;
#X obj 167 122 del 800;
#X obj 94 118 t b b b;
#X msg 167 146 1;
#X obj 224 121 loadbang;
#X obj 213 87 r debounceTime;
#X obj 94 73 inlet;
#X obj 94 214 outlet;
#X connect 0 0 9 0;
#X connect 1 0 0 1;
#X connect 2 0 1 0;
#X connect 3 0 5 0;
#X connect 4 0 2 0;
#X connect 4 1 0 0;
#X connect 4 2 3 0;
#X connect 5 0 1 0;
#X connect 6 0 5 0;
#X connect 7 0 3 1;
#X connect 8 0 4 0;
#X restore 396 219 pd debounce;
#X obj 427 271 bng 19 250 50 0 empty empty empty 0 -10 0 12 #fcfcfc #000000 #000000;
#N canvas 150 175 450 300 debounce 0;
#X obj 94 190 spigot;
#X obj 133 168 tgl 19 0 empty empty empty 0 -10 0 12 #fcfcfc #000000 #000000 0 1;
#X msg 133 145 0;
#X obj 167 122 del 800;
#X obj 94 118 t b b b;
#X msg 167 146 1;
#X obj 224 121 loadbang;
#X obj 213 87 r debounceTime;
#X obj 94 73 inlet;
#X obj 94 214 outlet;
#X connect 0 0 9 0;
#X connect 1 0 0 1;
#X connect 2 0 1 0;
#X connect 3 0 5 0;
#X connect 4 0 2 0;
#X connect 4 1 0 0;
#X connect 4 2 3 0;
#X connect 5 0 1 0;
#X connect 6 0 5 0;
#X connect 7 0 3 1;
#X connect 8 0 4 0;
#X restore 427 296 pd debounce;
#X obj 366 170 s go4;
#X obj 396 243 s go5;
#X obj 427 320 s go6;
#X connect 2 0 5 0;
#X connect 3 0 5 1;
#X connect 3 0 37 0;
#X connect 4 0 2 0;
#X connect 5 0 6 0;
#X connect 5 1 16 0;
#X connect 5 2 19 0;
#X connect 5 3 22 0;
#X connect 5 4 24 0;
#X connect 5 5 26 0;
#X connect 6 0 14 0;
#X connect 7 0 8 0;
#X connect 9 0 31 0;
#X connect 14 0 15 0;
#X connect 16 0 17 0;
#X connect 17 0 18 0;
#X connect 19 0 20 0;
#X connect 20 0 21 0;
#X connect 22 0 23 0;
#X connect 23 0 28 0;
#X connect 24 0 25 0;
#X connect 25 0 29 0;
#X connect 26 0 27 0;
#X connect 27 0 30 0;
#X connect 32 0 8 0;
#X connect 33 0 8 0;
#X connect 34 0 8 0;
#X connect 35 0 8 0;
#X connect 36 0 8 0;
#X connect 37 0 40 0;
#X connect 37 1 43 0;
#X connect 37 2 46 0;
#X connect 37 3 49 0;
#X connect 37 4 51 0;
#X connect 37 5 53 0;
#X connect 38 0 37 1;
#X connect 39 0 38 0;
#X connect 40 0 41 0;
#X connect 41 0 42 0;
#X connect 43 0 44 0;
#X connect 44 0 45 0;
#X connect 46 0 47 0;
#X connect 47 0 48 0;
#X connect 49 0 50 0;
#X connect 50 0 55 0;
#X connect 51 0 52 0;
#X connect 52 0 56 0;
#X connect 53 0 54 0;
#X connect 54 0 57 0;
