#N canvas 18 59 862 410 12;
#X obj 114 320 osc~;
#X obj 114 346 *~;
#X obj 206 315 line~, f 6;
#X obj 114 252 line~;
#X obj 114 220 f;
#X obj 170 221 f;
#X obj 114 172 t b b;
#X obj 114 369 outlet~;
#X obj 364 232 bng 19 250 50 0 empty empty empty 0 -10 0 12 #fcfcfc #000000 #000000;
#X obj 364 256 del 150;
#X obj 436 299 f;
#X obj 364 280 t b b;
#X msg 364 304 0;
#X obj 184 166 * 1.2, f 6;
#X obj 184 108 mtof;
#X obj 43 196 mtof;
#X floatatom 653 225 5 0 0 0 - - - 0;
#X obj 653 169 +;
#X obj 653 201 +;
#X obj 414 154 f;
#X obj 653 248 s \$0-freqTime;
#X obj 188 194 r \$0-freqTime;
#X obj 259 257 r \$0-t;
#X obj 436 326 s \$0-t;
#X obj 364 326 s \$0-a;
#X obj 206 257 r \$0-a;
#X obj 498 156 f;
#X obj 414 178 s \$0-a;
#X obj 497 178 s \$0-t;
#X obj 432 131 r \$0-attack;
#X obj 516 131 r \$0-attackTime;
#X obj 184 82 r \$0-freq;
#X obj 223 108 r \$0-bend;
#X obj 114 80 r \$0-go;
#X obj 43 172 r \$0-freq;
#X obj 364 85 r \$0-go;
#X obj 410 233 r \$0-sustainTime;
#X obj 454 275 r \$0-releaseTime;
#X obj 653 89 r \$0-attackTime;
#X obj 671 112 r \$0-sustainTime;
#X obj 684 137 r \$0-releaseTime;
#X obj 95 21 inlet;
#X obj 95 45 s \$0-go;
#X obj 154 21 inlet;
#X obj 154 45 s \$0-freq;
#X obj 300 20 inlet;
#X obj 300 44 s \$0-attack;
#X obj 387 20 inlet;
#X obj 387 44 s \$0-attackTime;
#X obj 228 20 inlet;
#X obj 228 44 s \$0-bend;
#X obj 501 20 inlet;
#X obj 501 44 s \$0-sustainTime;
#X obj 622 20 inlet;
#X obj 622 44 s \$0-releaseTime;
#X obj 25 220 f;
#X obj 114 104 t b b;
#X msg 146 288 0.25;
#X obj 223 131 t b f;
#X obj 206 288 pack 0 0;
#X connect 0 0 1 0;
#X connect 1 0 7 0;
#X connect 2 0 1 1;
#X connect 3 0 0 0;
#X connect 4 0 3 0;
#X connect 5 0 3 1;
#X connect 6 0 4 0;
#X connect 6 1 5 0;
#X connect 8 0 9 0;
#X connect 9 0 11 0;
#X connect 10 0 23 0;
#X connect 11 0 12 0;
#X connect 11 1 10 0;
#X connect 12 0 24 0;
#X connect 13 0 4 1;
#X connect 14 0 13 0;
#X connect 15 0 55 1;
#X connect 16 0 20 0;
#X connect 17 0 18 0;
#X connect 18 0 16 0;
#X connect 19 0 27 0;
#X connect 21 0 5 1;
#X connect 22 0 59 1;
#X connect 25 0 59 0;
#X connect 26 0 28 0;
#X connect 29 0 19 1;
#X connect 30 0 26 1;
#X connect 31 0 14 0;
#X connect 32 0 58 0;
#X connect 33 0 56 0;
#X connect 34 0 15 0;
#X connect 35 0 26 0;
#X connect 35 0 8 0;
#X connect 35 0 19 0;
#X connect 36 0 9 1;
#X connect 37 0 10 1;
#X connect 38 0 17 0;
#X connect 39 0 17 1;
#X connect 40 0 18 1;
#X connect 41 0 42 0;
#X connect 43 0 44 0;
#X connect 45 0 46 0;
#X connect 47 0 48 0;
#X connect 49 0 50 0;
#X connect 51 0 52 0;
#X connect 53 0 54 0;
#X connect 55 0 3 0;
#X connect 56 0 6 0;
#X connect 56 1 55 0;
#X connect 56 1 57 0;
#X connect 57 0 0 1;
#X connect 58 0 13 0;
#X connect 58 1 13 1;
#X connect 59 0 2 0;
