#N canvas 536 61 465 393 12;
#X declare -path ./abstractions;
#X declare -path ./spat;
#X floatatom 68 161 5 0 0 2 scene scene - 36;
#N canvas 1002 59 491 398 guts 1;
#X text 28 102 Initial testing phase of master patch.;
#X obj 27 52 declare -path ./abstractions;
#X obj 28 76 declare -path ./spat;
#X obj 29 143 spat;
#N canvas 535 110 740 546 qlist 0;
#X obj 48 79 text define -k qlist;
#A set 1 \; playback1 open ../audio/a1.wav \; playback1 start \; spatpgm 1 \; spatpgm-go bang \; // play a1.wav and start spat pgm 1 \; 2 \; playback1 stop \; 3 \; playback1 open ../audio/a2.wav \; playback1 start \; // play a2.wav \; 4 \; playback1 stop \; 5 \; playback1 open ../audio/a3.wav \; playback1 start \; 6 \; playback2 open ../audio/a4.wav \; playback1 stop \; playback2 start \; // this will be the order we start/stop \; 7 \; playback1 open ../audio/a5.wav \; playback2 stop \; playback1 start \; 8 \; playback2 open ../audio/a6.wav \; playback1 stop \; playback2 start \; 9 \; playback1 open ../audio/a7.wav \; playback2 stop \; playback1 start \; 10 \; playback2 open ../audio/a8.wav \; playback1 stop \; playback2 start \; 11 \; playback1 open ../audio/a9.wav \; playback2 stop \; playback1 start \; 12 \; playback2 open ../audio/a10.wav \; playback1 stop \; playback2 start \; 13 \; playback1 open ../audio/a11.wav \; playback2 stop \; playback1 start \; 14 \; playback2 open ../audio/a12.wav \; playback1 stop \; playback2 start \; 15 \; playback1 open ../audio/a13.wav \; playback2 stop \; playback1 start \; 16 \; playback2 open ../audio/a14.wav \; playback1 stop \; playback2 start \; 17 \; playback1 open ../audio/a15.wav \; playback2 stop \; playback1 start \; 18 \; playback1 stop \; // end of page 2 \; 19 \; spatpgm 2 \; spatpgm-go bang \; playback1 open ../audio/a19.wav \; 200 playback1 start \; 20 \; playback1 open ../audio/a20.wav \; 200 playback1 start \; 21 \; spatpgm 3 \; spatpgm-go bang \;;
#X msg 48 49 read qlist/daydreams.txt;
#X msg 136 265 step;
#X obj 111 265 bng 19 250 50 0 empty go empty 0 -10 0 12 #fcfcfc #000000 #000000;
#X floatatom 43 320 5 0 0 0 - - - 0;
#X obj 43 414 s scene;
#X obj 43 366 - 1;
#X obj 43 390 moses 0;
#X msg 43 265 line 1;
#X obj 43 236 r rewind;
#X obj 118 151 r goto;
#X msg 118 235 line \$1;
#X floatatom 118 203 5 0 0 0 - - - 0;
#X obj 118 179 text search qlist;
#X obj 48 22 loadbang;
#X text 248 43 our qlist logic \, qlist for this patch is located in ./qlist/daydreams.txt;
#X text 185 262 Everything can be controlled via the _MAIN patch.;
#X floatatom 125 377 5 0 0 0 - - - 0;
#X obj 125 421 del 500;
#X obj 125 399 t b f;
#X obj 125 445 s go;
#X obj 194 345 print done;
#X obj 194 321 bng 19 250 50 0 empty empty empty 0 -10 0 12 #fcfcfc #000000 #000000;
#X obj 43 296 text sequence qlist -g;
#X obj 43 343 moses 180;
#X text 195 406 This is how we'll handle delays to messages \, put a number larger than 180 (1-180 are reserved for scene #'s) in front of a message \, and that message will be delayed by that many ms (1/1000s of a sec). See scene 19 for the first example.;
#X connect 1 0 0 0;
#X connect 2 0 23 0;
#X connect 3 0 23 0;
#X connect 4 0 24 0;
#X connect 6 0 7 0;
#X connect 7 1 5 0;
#X connect 8 0 23 0;
#X connect 9 0 8 0;
#X connect 10 0 13 0;
#X connect 11 0 23 0;
#X connect 12 0 11 0;
#X connect 13 0 12 0;
#X connect 14 0 1 0;
#X connect 17 0 19 0;
#X connect 18 0 20 0;
#X connect 19 0 18 0;
#X connect 19 1 18 1;
#X connect 22 0 21 0;
#X connect 23 0 4 0;
#X connect 23 1 22 0;
#X connect 24 0 6 0;
#X connect 24 1 17 0;
#X restore 28 192 pd qlist;
#X obj 29 167 playback;
#N canvas 527 566 450 300 comments 0;
#X obj 82 91 r //;
#X text 49 29 We reserve this for single line comments in the qlist;
#X restore 28 218 pd comments;
#N canvas 677 380 450 366 input 0;
#X obj 179 65 adc~ 1 2;
#X text 55 24 This is where our microphone input will be handled;
#X obj 179 135 s~ inputL;
#X obj 232 100 s~ inputR;
#X text 21 249 use these sends~ (via [r~ ] ) to get input to your subpatch or abstraction;
#X connect 0 0 2 0;
#X connect 0 1 3 0;
#X restore 28 245 pd input;
#N canvas 664 187 1019 721 pitchbending 1;
#X obj 225 7 r~ inputL;
#X obj 300 7 r~ inputR;
#X obj 225 66 +~;
#X obj 225 152 *~;
#X obj 296 128 line~;
#X msg 296 105 \$1 35;
#X obj 87 189 pitchbend-tape;
#X obj 275 199 threshold~ 0.6 200 0.2 200;
#X obj 274 172 r threshold-detector;
#X obj 337 513 r bend-input-steps;
#X floatatom 87 167 5 0 0 0 - - - 0;
#X obj 87 146 line;
#X obj 88 406 tgl 19 0 empty empty empty 0 -10 0 12 #fcfcfc #000000 #000000 0 1;
#X obj 296 63 r bend-input-on;
#X obj 87 122 r \$0-pb;
#X obj 319 574 f;
#X obj 359 574 f;
#X floatatom 319 598 5 0 0 0 - - - 0;
#X floatatom 359 598 5 0 0 0 - - - 0;
#X obj 290 513 bng 19 250 50 0 empty empty empty 0 -10 0 12 #fcfcfc #000000 #000000;
#X obj 337 538 unpack 0 0;
#X obj 319 622 pack 0 0;
#X msg 319 649 \$1 \$2;
#X obj 290 539 t b b;
#X obj 319 682 s \$0-pb;
#X obj 296 84 tgl 19 0 empty empty empty 0 -10 0 12 #fcfcfc #000000 #000000 0 1;
#X obj 275 296 sel 1;
#X msg 275 250 1;
#X obj 275 273 *;
#X obj 311 254 tgl 19 0 empty empty empty 0 -10 0 12 #fcfcfc #000000 #000000 0 1;
#X obj 311 231 r threshold-detector-on;
#X obj 88 479 s \$0-begin;
#X obj 275 320 s \$0-begin;
#X obj 290 488 r \$0-begin;
#X obj 87 213 s~ pitchbending;
#X text 499 393 turn bend-input-on 1 \; set the detection parameters \; turn on your method of detection \; set the input steps \, 2 = whole step up \, -2 = whole step down \, etc. 2500 = time period \;;
#X msg 501 210 \; bend-input-on 1 \; bend-input-steps 2 2500 \; pitch-detection-note 60 \; pitch-detection-thresh 40 \; pitch-detection-on 1 \;;
#X obj 715 178 r pitchbending-reset;
#X msg 501 304 \; bend-input-on 1 \; bend-input-steps 2 2500 \; threshold-detector-on 1 \;;
#X obj 251 227 bng 19 250 50 0 empty empty empty 0 -10 0 12 #fcfcfc #000000 #000000;
#X obj 36 281 output~;
#N canvas 78 357 647 381 del 0;
#X obj 162 37 inlet~;
#X obj 162 254 outlet~;
#X obj 76 110 vd~ myDel;
#X obj 76 62 r delTime;
#X obj 76 86 line~;
#X obj 206 80 delwrite~ myDel 10;
#X obj 206 115 delwrite~ myDel2 10;
#X obj 473 122 vd~ myDel2;
#X obj 473 96 line~;
#X obj 473 72 r delTime2;
#X obj 378 151 pitchbend-tape;
#X obj 378 77 r myDel-pb;
#X obj 378 101 line;
#X floatatom 378 125 5 0 0 0 - - - 0;
#X obj 378 215 r mordent;
#X obj 378 241 sel 0;
#X obj 135 230 *~;
#X obj 243 229 *~;
#X obj 243 139 r myDel2-on;
#X obj 243 208 line~;
#X msg 243 183 \$1 50;
#X obj 243 161 tgl 19 0 empty empty empty 0 -10 0 12 #fcfcfc #000000 #000000 0 1;
#X obj 153 208 line~;
#X msg 153 183 \$1 50;
#X obj 153 161 tgl 19 0 empty empty empty 0 -10 0 12 #fcfcfc #000000 #000000 0 1;
#X obj 153 139 r myDel-on;
#X msg 378 267 \; myDel-on 0 \; myDel2-on 0 \; delTime 0 \; delTime2 0 \; myDel-pb 0 \;;
#X msg 478 267 \; myDel-on 1 \; myDel2-on 1 \; delTime 100 \; delTime2 50 \; myDel-pb 2 \;;
#X text 111 13 need to add a noise gate to this;
#X connect 0 0 1 0;
#X connect 0 0 5 0;
#X connect 0 0 6 0;
#X connect 2 0 16 0;
#X connect 3 0 4 0;
#X connect 4 0 2 0;
#X connect 7 0 10 1;
#X connect 8 0 7 0;
#X connect 9 0 8 0;
#X connect 10 0 17 1;
#X connect 11 0 12 0;
#X connect 12 0 13 0;
#X connect 13 0 10 0;
#X connect 14 0 15 0;
#X connect 15 0 26 0;
#X connect 15 1 27 0;
#X connect 16 0 1 0;
#X connect 17 0 1 0;
#X connect 18 0 21 0;
#X connect 19 0 17 0;
#X connect 20 0 19 0;
#X connect 21 0 20 0;
#X connect 22 0 16 1;
#X connect 23 0 22 0;
#X connect 24 0 23 0;
#X connect 25 0 24 0;
#X restore 225 123 pd del;
#X obj 287 623 f 0;
#N canvas 63 88 517 425 gate 0;
#X obj 155 13 inlet~;
#X obj 155 265 outlet~;
#X obj 173 81 env~ 8192 16384;
#X obj 155 240 *~;
#X obj 173 144 >;
#X floatatom 173 105 5 0 0 0 - - - 0;
#X obj 214 106 r pitchbending-gate-thresh;
#X obj 173 216 line~;
#X msg 173 192 \$1 50;
#X obj 173 167 tgl 19 0 empty empty empty 0 -10 0 12 #fcfcfc #000000 #000000 0 1;
#X obj 218 133 r pitchbending-gate-override;
#X obj 218 157 tgl 19 0 empty empty empty 0 -10 0 12 #fcfcfc #000000 #000000 0 1;
#X obj 253 223 loadbang;
#X msg 253 250 \; pitchbending-gate-override 1 \; pitchbending-gate-thresh 40 \;;
#X connect 0 0 2 0;
#X connect 0 0 3 0;
#X connect 2 0 5 0;
#X connect 3 0 1 0;
#X connect 4 0 9 0;
#X connect 5 0 4 0;
#X connect 6 0 4 1;
#X connect 7 0 3 1;
#X connect 8 0 7 0;
#X connect 9 0 8 0;
#X connect 10 0 11 0;
#X connect 11 0 8 0;
#X connect 12 0 13 0;
#X restore 225 93 pd gate;
#X obj 88 431 pitchdetection-multi;
#X obj 88 455 bng 19 250 50 0 empty empty empty 0 -10 0 12 #fcfcfc #000000 #000000;
#X obj 728 532 osc~;
#X floatatom 728 485 5 0 0 0 - - - 0;
#X obj 728 573 *~;
#X obj 770 556 line~;
#X obj 728 507 mtof;
#X msg 770 526 0.1 \, 0 400;
#X obj 88 381 r pitchdetection-on;
#X msg 715 211 \; bend-input-on 0 \; pitchdetection-on 0 \; threshold-detector-on 0 \; pitchdetection-reset bang \;;
#X text 827 563 This is used for testing;
#X connect 0 0 2 0;
#X connect 1 0 2 1;
#X connect 2 0 43 0;
#X connect 3 0 6 1;
#X connect 3 0 7 0;
#X connect 3 0 44 1;
#X connect 4 0 3 1;
#X connect 5 0 4 0;
#X connect 6 0 34 0;
#X connect 6 0 40 0;
#X connect 6 0 40 1;
#X connect 7 0 27 0;
#X connect 7 0 39 0;
#X connect 8 0 7 0;
#X connect 9 0 20 0;
#X connect 10 0 6 0;
#X connect 11 0 10 0;
#X connect 12 0 44 0;
#X connect 13 0 25 0;
#X connect 14 0 11 0;
#X connect 15 0 17 0;
#X connect 16 0 18 0;
#X connect 17 0 21 0;
#X connect 18 0 21 1;
#X connect 19 0 23 0;
#X connect 20 0 15 1;
#X connect 20 1 16 1;
#X connect 21 0 22 0;
#X connect 22 0 24 0;
#X connect 23 0 15 0;
#X connect 23 0 16 0;
#X connect 23 1 42 0;
#X connect 25 0 5 0;
#X connect 26 0 32 0;
#X connect 27 0 28 0;
#X connect 28 0 26 0;
#X connect 29 0 28 1;
#X connect 30 0 29 0;
#X connect 33 0 19 0;
#X connect 37 0 53 0;
#X connect 41 0 3 0;
#X connect 42 0 24 0;
#X connect 43 0 41 0;
#X connect 44 0 45 0;
#X connect 45 0 31 0;
#X connect 46 0 48 0;
#X connect 47 0 50 0;
#X connect 49 0 48 1;
#X connect 50 0 46 0;
#X connect 51 0 49 0;
#X connect 52 0 12 0;
#X restore 28 271 pd pitchbending;
#N canvas 727 374 496 476 reverb 0;
#X obj 155 8 r~ inputL;
#X obj 181 40 r~ inputR;
#X obj 155 305 rev3~ 90 94 5000 90;
#X obj 155 394 *~;
#X obj 265 395 *~;
#X obj 155 431 s~ reverbL;
#X obj 265 431 s~ reverbR;
#X obj 186 371 line~;
#X obj 303 371 line~;
#X obj 186 343 r reverb;
#X obj 207 102 r reverb-level;
#X floatatom 207 126 5 0 0 0 - - - 0;
#X obj 233 149 r reverb-live;
#X floatatom 233 173 5 0 0 0 - - - 0;
#X obj 259 197 r reverb-crossover;
#X floatatom 259 221 5 0 0 0 - - - 0;
#X obj 285 245 r reverb-damping;
#X floatatom 285 269 5 0 0 0 - - - 0;
#X obj 198 71 r~ spat-loopback;
#X connect 0 0 2 0;
#X connect 1 0 2 1;
#X connect 2 0 3 0;
#X connect 2 1 3 0;
#X connect 2 2 4 0;
#X connect 2 3 4 0;
#X connect 3 0 5 0;
#X connect 4 0 6 0;
#X connect 7 0 3 1;
#X connect 8 0 4 1;
#X connect 9 0 8 0;
#X connect 9 0 7 0;
#X connect 10 0 11 0;
#X connect 11 0 2 2;
#X connect 12 0 13 0;
#X connect 13 0 2 3;
#X connect 14 0 15 0;
#X connect 15 0 2 4;
#X connect 16 0 17 0;
#X connect 17 0 2 5;
#X connect 18 0 2 1;
#X connect 18 0 2 0;
#X restore 28 296 pd reverb;
#X text 67 142 <-- all audio output;
#N canvas 513 495 450 300 reset 0;
#X msg 133 73 \; spat-reset bang \; pitchbending-reset bang \;;
#X obj 133 45 r reset;
#X text 34 153 all reset calls go here \, this should not be automated but from the _MAIN patch's reset bang.;
#X connect 1 0 0 0;
#X restore 28 321 pd reset;
#X restore 69 104 pd guts;
#X obj 70 59 tgl 35 0 start empty start 0 -10 0 12 #c6ffc7 #000000 #000000 0 1;
#X floatatom 191 161 5 0 0 2 go\ to - goto 36;
#X obj 113 59 bng 35 250 50 0 go empty go 8 -10 0 12 #c6ffc7 #000000 #000000;
#X obj 155 59 bng 35 250 50 0 rewind empty rewind 0 -10 0 12 #feffc6 #000000 #000000;
#X obj 198 59 bng 35 250 50 0 reset empty reset 0 -10 0 12 #c6feff #000000 #000000;
