#N canvas 536 61 465 393 12;
#X declare -path ./abstractions;
#X declare -path ./spat;
#X floatatom 58 99 5 0 0 2 scene scene - 36;
#N canvas 1002 61 491 393 guts 1;
#X text 28 72 Initial testing phase of master patch.;
#X obj 27 22 declare -path ./abstractions;
#X obj 28 46 declare -path ./spat;
#X obj 29 113 spat;
#N canvas 535 110 740 546 qlist 0;
#X obj 48 79 text define -k qlist;
#A set 1 \; playback1 open ../audio/a1.wav \; playback1 start \; spatpgm 1 \; spatpgm-go bang \; // play a1.wav and start spat pgm 1 \; 2 \; playback1 stop \; 3 \; playback1 open ../audio/a2.wav \; playback1 start \; // play a2.wav \; 4 \; playback1 stop \; 5 \; playback1 open ../audio/a3.wav \; playback1 start \; 6 \; playback2 open ../audio/a4.wav \; playback1 stop \; playback2 start \; // this will be the order we start/stop \; 7 \; playback1 open ../audio/a5.wav \; playback2 stop \; playback1 start \; 8 \; playback2 open ../audio/a6.wav \; playback1 stop \; playback2 start \; 9 \; playback1 open ../audio/a7.wav \; playback2 stop \; playback1 start \; 10 \; playback2 open ../audio/a8.wav \; playback1 stop \; playback2 start \; 11 \; playback1 open ../audio/a9.wav \; playback2 stop \; playback1 start \; 12 \; playback2 open ../audio/a10.wav \; playback1 stop \; playback2 start \; 13 \; playback1 open ../audio/a11.wav \; playback2 stop \; playback1 start \; 14 \; playback2 open ../audio/a12.wav \; playback1 stop \; playback2 start \; 15 \; playback1 open ../audio/a13.wav \; playback2 stop \; playback1 start \; 16 \; playback2 open ../audio/a14.wav \; playback1 stop \; playback2 start \; 17 \; playback1 open ../audio/a15.wav \; playback2 stop \; playback1 start \; 18 \; playback1 stop \; // end of page 2 \; 19 \; spatpgm 2 \; spatpgm-go bang \; playback1 open ../audio/a19.wav \; 200 playback1 start \; 20 \; playback1 open ../audio/a20.wav \; 200 playback1 start \; 21 \; spatpgm 3 \; spatpgm-go bang \; reverb 0.5 1000 \; ssb 0.25 250 \; ssb-bend 100 1000 1000 reverb 0 1500 \; ssb-bend 0 1500 \; ssb 0 1500 \; 22 \; playback1 open ../audio/a22.wav \; playback1 start \; 23 \; // two echoes and bend pitch on 2nd echo \; bend-input-on 1 \; pitchbending-gate-override 0 \; pitchbending-gate-thresh 70 \; delTime 175 \; delTime2 300 \; myDel-on 1 \; myDel2-on 1 \; 300 myDel-pb 3 500 \; 2500 mordent 0 \; gate-reset bang \; 24 \; playback1 open ../audio/a24.wav \; 200 playback1 start \; 25 \; playback1 open ../audio/a25.wav \; 200 playback1 start \; 26 \; playback1 open ../audio/a26.wav \; 200 playback1 start \; 500 reverb 1 100 \; 27 \; reverb 0 10 \; spatpgm 4 \; spatpgm-go bang \; 28 \; freq 75 0 0 0 0 0 \; bend 1.2 1 1 1 1 1 \; pitchdetection-thresh 70 \; sustainTime 250 \; releaseTime 1000 \; attack 0.9 \; attackTime 25 \; synthbender-pitchdetection-on 1 \; 1500 synthbender-reset bang \; 29 \; bend-input-on 1 \; threshold-detector-on 1 \; bend-input-steps 3 2500 \; 3000 pitchbending-reset bang \; 30 \; spatpgm 5 \; spatpgm-go bang \; pitchdetection-list 71 82 0 0 0 0 \; pitchdetection-on 1 \; bend-input-on 1 \; bend-input-steps 3 1600 \; playback1 open ../audio/a30.wav \; playback1 start \; 8000 pitchbending-reset bang \; 31 \; spatpgm 5 \; spatpgm-go bang \; pitchdetection-list 71 82 88 0 0 0 \; pitchdetection-on 1 \; bend-input-on 1 \; bend-input-steps 3 1600 \; playback1 open ../audio/a31.wav \; playback1 start \; 9000 pitchbending-reset bang \; 32 \; bend-input-on 1 \; threshold-detector-on 1 \; bend-input-steps -3 1600 \; threshold-detector 0.3 200 0.1 200 \; 33 \;;
#X msg 48 49 read qlist/daydreams.txt;
#X msg 136 265 step;
#X obj 111 265 bng 19 250 50 0 empty go empty 0 -10 0 12 #fcfcfc #000000 #000000;
#X floatatom 43 320 5 0 0 0 - - - 0;
#X obj 43 414 s scene;
#X obj 43 366 - 1;
#X obj 43 390 moses 0;
#X msg 43 265 line 1;
#X obj 43 236 r rewind;
#X obj 118 151 r goto;
#X msg 118 235 line \$1;
#X floatatom 118 203 5 0 0 0 - - - 0;
#X obj 118 179 text search qlist;
#X obj 48 22 loadbang;
#X text 248 43 our qlist logic \, qlist for this patch is located in ./qlist/daydreams.txt;
#X text 185 262 Everything can be controlled via the _MAIN patch.;
#X floatatom 125 377 5 0 0 0 - - - 0;
#X obj 125 421 del 500;
#X obj 125 399 t b f;
#X obj 125 445 s go;
#X obj 194 345 print done;
#X obj 194 321 bng 19 250 50 0 empty empty empty 0 -10 0 12 #fcfcfc #000000 #000000;
#X obj 43 296 text sequence qlist -g;
#X obj 43 343 moses 180;
#X text 195 406 This is how we'll handle delays to messages \, put a number larger than 180 (1-180 are reserved for scene #'s) in front of a message \, and that message will be delayed by that many ms (1/1000s of a sec). See scene 19 for the first example.;
#X connect 1 0 0 0;
#X connect 2 0 23 0;
#X connect 3 0 23 0;
#X connect 4 0 24 0;
#X connect 6 0 7 0;
#X connect 7 1 5 0;
#X connect 8 0 23 0;
#X connect 9 0 8 0;
#X connect 10 0 13 0;
#X connect 11 0 23 0;
#X connect 12 0 11 0;
#X connect 13 0 12 0;
#X connect 14 0 1 0;
#X connect 17 0 19 0;
#X connect 18 0 20 0;
#X connect 19 0 18 0;
#X connect 19 1 18 1;
#X connect 22 0 21 0;
#X connect 23 0 4 0;
#X connect 23 1 22 0;
#X connect 24 0 6 0;
#X connect 24 1 17 0;
#X restore 28 162 pd qlist;
#X obj 29 137 playback;
#N canvas 527 566 450 300 comments 0;
#X obj 82 91 r //;
#X text 49 29 We reserve this for single line comments in the qlist;
#X restore 28 188 pd comments;
#N canvas 677 380 572 366 input 0;
#X obj 179 65 adc~ 1 2;
#X text 55 24 This is where our microphone input will be handled;
#X obj 179 195 s~ inputL;
#X obj 232 160 s~ inputR;
#X text 21 249 use these sends~ (via [r~ ] ) to get input to your subpatch or abstraction;
#X obj 325 89 r test;
#X obj 267 89 r~ test;
#X obj 267 117 *~;
#X obj 325 113 tgl 19 0 empty empty empty 0 -10 0 12 #fcfcfc #000000 #000000 0 1;
#X text 379 89 See test subpatch;
#X connect 0 0 2 0;
#X connect 0 1 3 0;
#X connect 5 0 8 0;
#X connect 6 0 7 0;
#X connect 7 0 3 0;
#X connect 7 0 2 0;
#X connect 8 0 7 1;
#X restore 28 214 pd input;
#N canvas 182 128 1101 775 pitchbending 0;
#X obj 265 17 r~ inputL;
#X obj 340 17 r~ inputR;
#X obj 265 56 +~;
#X obj 368 105 line~;
#X msg 368 82 \$1 35;
#X obj 155 240 pitchbend-tape;
#X obj 315 239 threshold~ 0.6 200 0.2 200;
#X obj 314 212 r threshold-detector;
#X obj 377 523 r bend-input-steps;
#X floatatom 155 218 5 0 0 0 - - - 0;
#X obj 155 197 line;
#X obj 128 446 tgl 19 0 empty empty empty 0 -10 0 12 #fcfcfc #000000 #000000 0 1;
#X obj 368 40 r bend-input-on;
#X obj 155 173 r \$0-pb;
#X obj 359 584 f;
#X obj 399 584 f;
#X floatatom 359 608 5 0 0 0 - - - 0;
#X floatatom 399 608 5 0 0 0 - - - 0;
#X obj 330 523 bng 19 250 50 0 empty empty empty 0 -10 0 12 #fcfcfc #000000 #000000;
#X obj 377 548 unpack 0 0;
#X obj 359 632 pack 0 0;
#X msg 359 659 \$1 \$2;
#X obj 330 549 t b b;
#X obj 359 692 s \$0-pb;
#X obj 368 61 tgl 19 0 empty empty empty 0 -10 0 12 #fcfcfc #000000 #000000 0 1;
#X obj 315 336 sel 1;
#X msg 315 290 1;
#X obj 315 313 *;
#X obj 351 294 tgl 19 0 empty empty empty 0 -10 0 12 #fcfcfc #000000 #000000 0 1;
#X obj 351 271 r threshold-detector-on;
#X obj 128 519 s \$0-begin;
#X obj 315 360 s \$0-begin;
#X obj 330 498 r \$0-begin;
#X text 539 403 turn bend-input-on 1 \; set the detection parameters \; turn on your method of detection \; set the input steps \, 2 = whole step up \, -2 = whole step down \, etc. 2500 = time period \;;
#X obj 827 189 r pitchbending-reset;
#X msg 541 314 \; bend-input-on 1 \; bend-input-steps 2 2500 \; threshold-detector-on 1 \;;
#X obj 291 267 bng 19 250 50 0 empty empty empty 0 -10 0 12 #fcfcfc #000000 #000000;
#X obj 42 264 output~;
#N canvas 161 560 647 381 del 0;
#X obj 162 37 inlet~;
#X obj 162 254 outlet~;
#X obj 76 110 vd~ myDel;
#X obj 76 62 r delTime;
#X obj 473 122 vd~ myDel2;
#X obj 473 72 r delTime2;
#X obj 378 151 pitchbend-tape;
#X obj 378 77 r myDel-pb;
#X obj 378 101 line;
#X floatatom 378 125 5 0 0 0 - - - 0;
#X obj 378 215 r mordent;
#X obj 378 241 sel 0;
#X obj 135 230 *~;
#X obj 243 229 *~;
#X obj 243 139 r myDel2-on;
#X obj 243 208 line~;
#X msg 243 183 \$1 50;
#X obj 243 161 tgl 19 0 empty empty empty 0 -10 0 12 #fcfcfc #000000 #000000 0 1;
#X obj 153 208 line~;
#X msg 153 183 \$1 50;
#X obj 153 161 tgl 19 0 empty empty empty 0 -10 0 12 #fcfcfc #000000 #000000 0 1;
#X obj 153 139 r myDel-on;
#X msg 378 267 \; myDel-on 0 \; myDel2-on 0 \; delTime 0 \; delTime2 0 \; myDel-pb 0 \;;
#X text 111 13 need to add a noise gate to this;
#X obj 206 80 delwrite~ myDel 500;
#X obj 206 115 delwrite~ myDel2 500;
#X obj 473 96 sig~;
#X obj 76 86 sig~;
#X msg 478 267 \; myDel-on 1 \; myDel2-on 1 \; delTime 100 \; delTime2 50 \; myDel-pb 2 \;;
#X connect 0 0 1 0;
#X connect 0 0 24 0;
#X connect 0 0 25 0;
#X connect 2 0 12 0;
#X connect 3 0 27 0;
#X connect 4 0 6 1;
#X connect 5 0 26 0;
#X connect 6 0 13 1;
#X connect 7 0 8 0;
#X connect 8 0 9 0;
#X connect 9 0 6 0;
#X connect 10 0 11 0;
#X connect 11 0 22 0;
#X connect 11 1 28 0;
#X connect 12 0 1 0;
#X connect 13 0 1 0;
#X connect 14 0 17 0;
#X connect 15 0 13 0;
#X connect 16 0 15 0;
#X connect 17 0 16 0;
#X connect 18 0 12 1;
#X connect 19 0 18 0;
#X connect 20 0 19 0;
#X connect 21 0 20 0;
#X connect 26 0 4 0;
#X connect 27 0 2 0;
#X restore 265 133 pd del;
#X obj 327 633 f 0;
#N canvas 76 627 517 425 gate 0;
#X obj 155 13 inlet~;
#X obj 155 265 outlet~;
#X obj 155 240 *~;
#X obj 173 144 >;
#X floatatom 173 105 5 0 0 0 - - - 0;
#X obj 214 106 r pitchbending-gate-thresh;
#X obj 173 216 line~;
#X msg 173 192 \$1 50;
#X obj 173 167 tgl 19 0 empty empty empty 0 -10 0 12 #fcfcfc #000000 #000000 0 1;
#X obj 218 133 r pitchbending-gate-override;
#X obj 218 157 tgl 19 0 empty empty empty 0 -10 0 12 #fcfcfc #000000 #000000 0 1;
#X obj 253 223 loadbang;
#X msg 253 250 \; pitchbending-gate-override 1 \; pitchbending-gate-thresh 40 \;;
#X obj 173 81 env~ 4096;
#X obj 316 223 r gate-reset;
#X connect 0 0 2 0;
#X connect 0 0 13 0;
#X connect 2 0 1 0;
#X connect 3 0 8 0;
#X connect 4 0 3 0;
#X connect 5 0 3 1;
#X connect 6 0 2 1;
#X connect 7 0 6 0;
#X connect 8 0 7 0;
#X connect 9 0 10 0;
#X connect 10 0 7 0;
#X connect 11 0 12 0;
#X connect 13 0 4 0;
#X connect 14 0 12 0;
#X restore 265 103 pd gate;
#X obj 128 471 pitchdetection-multi;
#X obj 128 495 bng 19 250 50 0 empty empty empty 0 -10 0 12 #fcfcfc #000000 #000000;
#X obj 64 68 osc~;
#X floatatom 64 10 5 0 0 0 - - - 0;
#X obj 64 129 *~;
#X obj 144 87 line~;
#X obj 64 32 mtof;
#X obj 128 421 r pitchdetection-on;
#X text 9 151 This is used for testing;
#X obj 144 23 bng 19 250 50 0 empty empty empty 0 -10 0 12 #fcfcfc #000000 #000000;
#X msg 103 50 0.25;
#X msg 144 57 0.8 \, 0 1500;
#X obj 265 80 *~;
#X obj 265 162 *~ 1;
#X obj 14 83 osc~;
#X obj 14 61 * 1.5;
#X obj 14 104 *~ 0.4;
#X msg 541 220 \; bend-input-on 1 \; bend-input-steps -2 2500 \; pitchdetection-list 49 48 52 60 63 65 \; pitchdetection-thresh 40 \; pitchdetection-on 1 \;;
#X obj 155 264 s~ pitchbending;
#X msg 827 222 \; bend-input-on 0 \; pitchdetection-on 0 \; threshold-detector-on 0 \; pitchdetection-reset bang \; gate-reset bang \; mordent 0 \;;
#X connect 0 0 2 0;
#X connect 1 0 2 1;
#X connect 2 0 53 0;
#X connect 3 0 53 1;
#X connect 4 0 3 0;
#X connect 5 0 37 0;
#X connect 5 0 37 1;
#X connect 5 0 59 0;
#X connect 6 0 26 0;
#X connect 6 0 36 0;
#X connect 7 0 6 0;
#X connect 8 0 19 0;
#X connect 9 0 5 0;
#X connect 10 0 9 0;
#X connect 11 0 41 0;
#X connect 12 0 24 0;
#X connect 13 0 10 0;
#X connect 14 0 16 0;
#X connect 15 0 17 0;
#X connect 16 0 20 0;
#X connect 17 0 20 1;
#X connect 18 0 22 0;
#X connect 19 0 14 1;
#X connect 19 1 15 1;
#X connect 20 0 21 0;
#X connect 21 0 23 0;
#X connect 22 0 14 0;
#X connect 22 0 15 0;
#X connect 22 1 39 0;
#X connect 24 0 4 0;
#X connect 25 0 31 0;
#X connect 26 0 27 0;
#X connect 27 0 25 0;
#X connect 28 0 27 1;
#X connect 29 0 28 0;
#X connect 32 0 18 0;
#X connect 34 0 60 0;
#X connect 38 0 54 0;
#X connect 39 0 23 0;
#X connect 40 0 38 0;
#X connect 41 0 42 0;
#X connect 41 1 42 0;
#X connect 41 2 42 0;
#X connect 41 3 42 0;
#X connect 41 4 42 0;
#X connect 41 5 42 0;
#X connect 42 0 30 0;
#X connect 43 0 45 0;
#X connect 44 0 47 0;
#X connect 45 0 40 0;
#X connect 46 0 45 1;
#X connect 47 0 43 0;
#X connect 47 0 56 0;
#X connect 48 0 11 0;
#X connect 50 0 52 0;
#X connect 50 0 51 0;
#X connect 51 0 43 1;
#X connect 51 0 55 1;
#X connect 52 0 46 0;
#X connect 53 0 40 0;
#X connect 54 0 5 1;
#X connect 54 0 6 0;
#X connect 54 0 41 1;
#X connect 55 0 57 0;
#X connect 56 0 55 0;
#X connect 57 0 45 0;
#X restore 28 240 pd pitchbending;
#X text 67 112 <-- all audio output;
#N canvas 513 495 450 300 reset 0;
#X obj 133 45 r reset;
#X text 34 153 all reset calls go here \, this should not be automated but from the _MAIN patch's reset bang.;
#X msg 133 73 \; spat-reset bang \; pitchbending-reset bang \; scene 0 \;;
#X connect 0 0 2 0;
#X restore 28 318 pd reset;
#N canvas 220 547 572 505 synthbender 0;
#X obj 160 184 synthbender;
#X obj 160 85 r synthbender-pitchdetection-on;
#X obj 160 109 tgl 19 0 empty empty empty 0 -10 0 12 #fcfcfc #000000 #000000 0 1;
#X obj 197 107 r~ inputL;
#X obj 270 107 r~ inputR;
#X obj 197 130 +~;
#X obj 197 154 *~ 0.5;
#X obj 344 107 r synthbender-all-on;
#X obj 344 131 tgl 19 0 empty empty empty 0 -10 0 12 #fcfcfc #000000 #000000 0 1;
#X obj 48 208 output~;
#X obj 160 208 s~ synthbender;
#X connect 0 0 9 0;
#X connect 0 0 9 1;
#X connect 0 0 10 0;
#X connect 1 0 2 0;
#X connect 2 0 0 0;
#X connect 3 0 5 0;
#X connect 4 0 5 1;
#X connect 5 0 6 0;
#X connect 6 0 0 1;
#X connect 7 0 8 0;
#X connect 8 0 0 2;
#X restore 28 266 pd synthbender;
#N canvas 782 143 940 497 reverb 0;
#X obj 155 8 r~ inputL;
#X obj 181 40 r~ inputR;
#X obj 155 305 rev3~ 90 94 5000 90;
#X obj 155 394 *~;
#X obj 265 395 *~;
#X obj 155 431 s~ reverbL;
#X obj 265 431 s~ reverbR;
#X obj 186 371 line~;
#X obj 303 371 line~;
#X obj 186 343 r reverb;
#X obj 207 102 r reverb-level;
#X floatatom 207 126 5 0 0 0 - - - 0;
#X obj 233 149 r reverb-live;
#X floatatom 233 173 5 0 0 0 - - - 0;
#X obj 259 197 r reverb-crossover;
#X floatatom 259 221 5 0 0 0 - - - 0;
#X obj 285 245 r reverb-damping;
#X floatatom 285 269 5 0 0 0 - - - 0;
#X obj 198 71 r~ spat-loopback;
#X obj 481 261 hilbert~;
#X obj 482 302 complex-mod~;
#X obj 481 160 r~ inputL;
#X obj 557 160 r~ inputR;
#X obj 481 202 *~;
#X obj 557 202 *~;
#X obj 635 151 r ssb;
#X obj 635 174 line~;
#X obj 481 233 +~;
#X floatatom 563 279 5 0 0 0 - - - 0;
#X obj 564 233 r ssb-bend;
#X obj 564 257 line;
#X obj 482 336 +~;
#X obj 482 360 *~ 0.5;
#X obj 482 385 s~ \$0-ssb;
#X obj 329 398 r~ \$0-ssb;
#X text 477 43 This is mainly for scene #21 \, it is a frequency shifter but single sideband modulation \, so it has two phases. It could be used elsewhere too.;
#X obj 30 418 output~;
#X connect 0 0 2 0;
#X connect 1 0 2 1;
#X connect 2 0 3 0;
#X connect 2 1 3 0;
#X connect 2 2 4 0;
#X connect 2 3 4 0;
#X connect 3 0 5 0;
#X connect 3 0 36 0;
#X connect 4 0 6 0;
#X connect 4 0 36 1;
#X connect 7 0 3 1;
#X connect 8 0 4 1;
#X connect 9 0 8 0;
#X connect 9 0 7 0;
#X connect 10 0 11 0;
#X connect 11 0 2 2;
#X connect 12 0 13 0;
#X connect 13 0 2 3;
#X connect 14 0 15 0;
#X connect 15 0 2 4;
#X connect 16 0 17 0;
#X connect 17 0 2 5;
#X connect 18 0 2 1;
#X connect 18 0 2 0;
#X connect 19 0 20 0;
#X connect 19 1 20 1;
#X connect 20 0 31 0;
#X connect 20 1 31 1;
#X connect 21 0 23 0;
#X connect 22 0 24 0;
#X connect 23 0 27 0;
#X connect 24 0 27 1;
#X connect 25 0 26 0;
#X connect 26 0 24 1;
#X connect 26 0 23 1;
#X connect 27 0 19 0;
#X connect 28 0 20 2;
#X connect 29 0 30 0;
#X connect 30 0 28 0;
#X connect 31 0 32 0;
#X connect 32 0 33 0;
#X connect 32 0 36 1;
#X connect 32 0 36 0;
#X connect 34 0 6 0;
#X connect 34 0 5 0;
#X restore 28 292 pd reverb ssb;
#N canvas 743 328 652 568 testing 0;
#X obj 77 67 tabplay~ array1;
#X obj 191 67 tabplay~ array2;
#X obj 77 99 *~;
#X obj 106 93 tgl 19 0 empty empty empty 0 -10 0 12 #fcfcfc #000000 #000000 0 1;
#X obj 191 99 *~;
#X obj 220 94 tgl 19 0 empty empty empty 0 -10 0 12 #fcfcfc #000000 #000000 0 1;
#X obj 77 30 bng 19 250 50 0 empty empty empty 0 -10 0 12 #fcfcfc #000000 #000000;
#X msg 70 180 \; test 1 \;;
#X msg 70 221 \; test 0 \;;
#X obj 21 307 bng 19 250 50 0 empty empty empty 0 -10 0 12 #fcfcfc #000000 #000000;
#X obj 20 67 s \$0-go;
#X obj 21 281 r \$0-go;
#X obj 20 37 bng 19 250 50 0 empty empty empty 0 -10 0 12 #fcfcfc #000000 #000000;
#X obj 77 132 *~ 0.5;
#X obj 77 156 s~ test;
#N canvas 121 146 578 300 arrays 0;
#N canvas 0 22 450 278 (subpatch) 0;
#X array array1 103989 float 2;
#X coords 0 1 103989 -1 200 140 1;
#X restore 17 115 graph;
#X obj 16 75 soundfiler;
#N canvas 0 22 450 278 (subpatch) 0;
#X array array2 63701 float 2;
#X coords 0 1 63701 -1 200 140 1;
#X restore 223 115 graph;
#X msg 284 47 read -resize ../test/F#4.aiff array2;
#X msg 16 47 read -resize ../test/A#2.aiff array1;
#X obj 16 19 loadbang;
#X connect 3 0 1 0;
#X connect 4 0 1 0;
#X connect 5 0 4 0;
#X connect 5 0 3 0;
#X restore 315 69 pd arrays;
#X msg 274 390 \; pitchbending-reset bang \;;
#X obj 274 367 del 8000;
#X msg 21 388 \; bend-input-on 1 \; threshold-detector-on 1 \; bend-input-steps -3 1600 \; threshold-detector 0.3 200 0.1 200 \;;
#X connect 0 0 2 0;
#X connect 1 0 4 0;
#X connect 2 0 13 0;
#X connect 3 0 2 1;
#X connect 4 0 13 0;
#X connect 5 0 4 1;
#X connect 6 0 0 0;
#X connect 6 0 1 0;
#X connect 9 0 18 0;
#X connect 9 0 17 0;
#X connect 11 0 9 0;
#X connect 12 0 10 0;
#X connect 13 0 14 0;
#X connect 17 0 16 0;
#X restore 28 345 pd testing;
#X restore 189 331 pd guts;
#X obj 189 82 tgl 35 0 start empty start 0 -10 0 12 #c6ffc7 #000000 #000000 0 1;
#X floatatom 59 237 5 0 0 2 go\ to - goto 36;
#X obj 189 146 bng 35 250 50 0 go empty go 8 -10 0 12 #c6ffc7 #000000 #000000;
#X obj 189 219 bng 35 250 50 0 rewind empty rewind 0 -10 0 12 #feffc6 #000000 #000000;
#X obj 189 289 bng 35 250 50 0 reset empty reset 0 -10 0 12 #c6feff #000000 #000000;
#X text 227 89 <-- this does nothing right now;
#X text 120 14 Day Dreams \, by Philippe Boesmans;
#X text 60 362 programming by Robert Esler \, see spat for others;
