#N canvas 543 59 637 496 12;
#X floatatom 182 193 5 0 0 0 scene scene - 36;
#N canvas 968 104 752 576 guts 0;
#X obj 41 114 text define -k qlist;
#A set 0 \; 1 \; play a19.wav \; 2 \; play a20.wav \; 3 \;;
#X msg 41 84 read qlist/daydreams.txt;
#X msg 98 165 step;
#X obj 42 314 r play;
#X obj 42 338 print play;
#X obj 140 165 bng 19 250 50 0 empty empty empty 0 -10 0 12 #fcfcfc #000000 #000000;
#X obj 42 196 text sequence qlist -g;
#X floatatom 42 220 5 0 0 0 - - - 0;
#X msg 42 165 line 0;
#X obj 42 291 s scene;
#X obj 42 243 - 1;
#X obj 42 267 moses 0;
#X text 302 83 Initial testing phase of master patch.;
#X connect 1 0 0 0;
#X connect 2 0 6 0;
#X connect 3 0 4 0;
#X connect 5 0 6 0;
#X connect 6 0 7 0;
#X connect 7 0 10 0;
#X connect 8 0 6 0;
#X connect 10 0 11 0;
#X connect 11 1 9 0;
#X restore 182 168 pd guts;
#X obj 183 123 tgl 35 0 start empty start 0 -10 0 12 #c6ffc7 #000000 #000000 0 1;
