#N canvas 171 350 521 422 12;
#X obj 161 181 cyclone/midiparse;
#X obj 190 11 tgl 22 0 empty empty empty 17 7 0 10 #d0d0d0 #404040 #000000 0 1;
#X msg 197 78 stop;
#X obj 161 82 bng 17 250 50 0 empty empty empty 17 7 0 10 #dcdcdc #000000 #000000;
#X text 220 13 play/stop;
#X obj 161 153 cyclone/midiflush;
#X msg 266 113 bang;
#X obj 190 43 select 1 0;
#X msg 55 42 read;
#N canvas 638 210 345 266 polysynth 0;
#X obj 65 20 inlet;
#N canvas 667 245 370 323 synth 0;
#X obj 234 124 / 127;
#X obj 219 204 *~;
#X obj 81 134 phasor~;
#X obj 81 102 mtof;
#X obj 81 31 inlet;
#X obj 219 273 outlet~;
#X obj 81 70 unpack float float;
#X obj 234 174 vline~;
#X msg 234 149 \$1 50;
#X obj 81 162 cyclone/triangle~ 0.9;
#X obj 219 236 /~ 3;
#X connect 0 0 8 0;
#X connect 1 0 10 0;
#X connect 2 0 9 0;
#X connect 3 0 2 0;
#X connect 4 0 6 0;
#X connect 6 0 3 0;
#X connect 6 1 0 0;
#X connect 7 0 1 1;
#X connect 8 0 7 0;
#X connect 9 0 1 0;
#X connect 10 0 5 0;
#X restore 41 151 pd synth;
#X obj 65 84 pack f f f;
#X obj 100 207 outlet~;
#N canvas 667 245 370 323 synth 0;
#X obj 234 124 / 127;
#X obj 219 204 *~;
#X obj 81 134 phasor~;
#X obj 81 102 mtof;
#X obj 81 31 inlet;
#X obj 219 273 outlet~;
#X obj 81 70 unpack float float;
#X obj 234 174 vline~;
#X msg 234 149 \$1 50;
#X obj 81 162 cyclone/triangle~ 0.9;
#X obj 219 236 /~ 3;
#X connect 0 0 8 0;
#X connect 1 0 10 0;
#X connect 2 0 9 0;
#X connect 3 0 2 0;
#X connect 4 0 6 0;
#X connect 6 0 3 0;
#X connect 6 1 0 0;
#X connect 7 0 1 1;
#X connect 8 0 7 0;
#X connect 9 0 1 0;
#X connect 10 0 5 0;
#X restore 100 151 pd synth;
#N canvas 667 245 370 323 synth 0;
#X obj 234 124 / 127;
#X obj 219 204 *~;
#X obj 81 134 phasor~;
#X obj 81 102 mtof;
#X obj 81 31 inlet;
#X obj 219 273 outlet~;
#X obj 81 70 unpack float float;
#X obj 234 174 vline~;
#X msg 234 149 \$1 50;
#X obj 81 162 cyclone/triangle~ 0.9;
#X obj 219 236 /~ 3;
#X connect 0 0 8 0;
#X connect 1 0 10 0;
#X connect 2 0 9 0;
#X connect 3 0 2 0;
#X connect 4 0 6 0;
#X connect 6 0 3 0;
#X connect 6 1 0 0;
#X connect 7 0 1 1;
#X connect 8 0 7 0;
#X connect 9 0 1 0;
#X connect 10 0 5 0;
#X restore 161 152 pd synth;
#X text 124 19 3-voice polyphonic synth;
#X obj 65 115 route 1 2 3, f 18;
#X obj 65 52 poly 3 1;
#X connect 0 0 8 0;
#X connect 1 0 3 0;
#X connect 2 0 7 0;
#X connect 4 0 3 0;
#X connect 5 0 3 0;
#X connect 7 0 1 0;
#X connect 7 1 4 0;
#X connect 7 2 5 0;
#X connect 8 0 2 0;
#X connect 8 1 2 1;
#X connect 8 2 2 2;
#X restore 161 214 pd polysynth;
#X msg 95 41 read seq.mid;
#X obj 161 250 ./out~;
#X obj 161 113 cyclone/seq;
#X obj 265 75 r \$0-seq;
#X floatatom 391 250 5 0 0 0 - - - 0;
#X floatatom 117 217 5 0 0 0 - - - 0;
#X floatatom 262 251 5 0 0 0 - - - 0;
#X floatatom 307 250 5 0 0 0 - - - 0;
#X floatatom 203 308 5 0 0 0 - - - 0;
#X floatatom 349 250 5 0 0 0 - - - 0;
#X floatatom 435 250 5 0 0 0 - - - 0;
#X connect 0 0 9 0;
#X connect 0 0 15 0;
#X connect 0 1 18 0;
#X connect 0 2 16 0;
#X connect 0 3 17 0;
#X connect 0 4 19 0;
#X connect 0 5 14 0;
#X connect 0 6 20 0;
#X connect 1 0 7 0;
#X connect 2 0 12 0;
#X connect 3 0 12 0;
#X connect 5 0 0 0;
#X connect 6 0 5 0;
#X connect 7 0 3 0;
#X connect 7 1 2 0;
#X connect 7 1 6 0;
#X connect 8 0 12 0;
#X connect 9 0 11 0;
#X connect 10 0 12 0;
#X connect 12 0 5 0;
#X connect 13 0 12 0;
