#N canvas 34 198 1006 544 12;
#X declare -path ./abstractions;
#X obj 135 359 osc~;
#X obj 135 386 *~;
#X obj 284 90 t b;
#X obj 275 301 line~;
#X obj 135 409 output~;
#X obj 284 65 bng 19 250 50 0 empty empty empty 0 -10 0 12 #fcfcfc #000000 #000000;
#X obj 135 292 line~;
#X obj 284 113 del 150;
#X obj 136 132 * 1.2;
#X obj 153 234 r freq;
#X obj 168 105 r bend;
#X obj 206 233 r freqTime;
#X obj 136 78 r detectFreq;
#X obj 136 163 s freq;
#X obj 384 186 f;
#X obj 284 137 t b b;
#X obj 284 37 r go;
#X msg 284 174 0;
#X obj 161 313 r go;
#X obj 275 253 r attack;
#X obj 284 212 s attack;
#X obj 307 277 r attackTime;
#X obj 384 213 s attackTime;
#X obj 330 90 r sustainTime;
#X obj 402 162 r releaseTime;
#X obj 25 245 r detectFreq;
#X obj 135 260 f;
#X obj 135 190 r go;
#X obj 188 260 f;
#X obj 135 212 t b b;
#X floatatom 202 300 5 0 0 0 - - - 0;
#X msg 439 314 \; bend 1.2 \; detectFreq 800 \; freqTime 1000 \; sustainTime 150 \; releaseTime 500 \; attack 0.9 \; attackTime 10 \; go bang \;;
#X text 448 285 pitch up;
#X text 591 286 pitch down.;
#X text 526 68 Much of the older sampler's used variable speed plaback to execute pitch bending. But since the essense of a marimba tone is sinusoidal \, I'm experimenting with using a simple synth to create a pitch bend. This could create the same effect when combined with sigmund~ and the acoustic sound of a marimba. This could be adapted for multiple pitches too \, but right now this would be used for single pitches.;
#X obj 265 417 outlet~;
#X msg 161 337 -0.25, f 6;
#X obj 771 249 declare -path ./abstractions;
#X obj 760 350 pitchdetection;
#X obj 760 310 tgl 19 0 empty empty empty 0 -10 0 12 #fcfcfc #000000 #000000 0 1;
#X floatatom 823 301 5 0 0 0 - - - 0;
#X floatatom 855 323 5 0 0 0 - - - 0;
#X text 864 301 pitch (MIDI);
#X text 897 323 dB threshold;
#X floatatom 760 374 5 0 0 0 - - - 0;
#X msg 580 312 \; bend 0.75 \; detectFreq 220 \; freqTime 2000 \; sustainTime 500 \; releaseTime 2000 \; attack 0.9 \; attackTime 10 \; go bang \;;
#N canvas 304 304 450 300 input 0;
#X obj 178 52 adc~ 1 2;
#X obj 178 76 *~ 0.5;
#X obj 230 76 *~ 0.5;
#X obj 178 112 +~;
#X obj 177 146 outlet~;
#X connect 0 0 1 0;
#X connect 0 1 2 0;
#X connect 1 0 3 0;
#X connect 2 0 3 1;
#X connect 3 0 4 0;
#X restore 790 273 pd input;
#X connect 0 0 1 0;
#X connect 1 0 4 0;
#X connect 1 0 4 1;
#X connect 1 0 35 0;
#X connect 2 0 7 0;
#X connect 3 0 1 1;
#X connect 5 0 2 0;
#X connect 6 0 0 0;
#X connect 7 0 15 0;
#X connect 8 0 13 0;
#X connect 9 0 26 1;
#X connect 9 0 30 0;
#X connect 10 0 8 1;
#X connect 11 0 28 1;
#X connect 12 0 8 0;
#X connect 14 0 22 0;
#X connect 15 0 17 0;
#X connect 15 1 14 0;
#X connect 16 0 5 0;
#X connect 17 0 20 0;
#X connect 18 0 36 0;
#X connect 19 0 3 0;
#X connect 21 0 3 1;
#X connect 23 0 7 1;
#X connect 24 0 14 1;
#X connect 25 0 6 0;
#X connect 26 0 6 0;
#X connect 27 0 29 0;
#X connect 28 0 6 1;
#X connect 29 0 26 0;
#X connect 29 1 28 0;
#X connect 36 0 0 1;
#X connect 38 0 44 0;
#X connect 39 0 38 0;
#X connect 40 0 38 2;
#X connect 41 0 38 3;
#X connect 46 0 38 1;
